<svg xmlns="http://www.w3.org/2000/svg" xmlns:xlink="http://www.w3.org/1999/xlink" id="Layer_1" x="0px" y="0px" width="50px" height="50px" viewBox="0 0 50 50" xml:space="preserve">
<path fill-rule="evenodd" clip-rule="evenodd" fill="#1048F6" d="M109.916,33.583c-0.804,0.03-1.479,0.039-2.209,0.045  c-5.386,0.042-10.772,0.052-16.158,0.005c-3.061-0.026-4.499-1.497-4.519-4.576c-0.031-5.462-0.022-10.926,0.001-16.387  c0.011-2.569,1.34-4.148,3.892-4.167c10.002-0.071,20.004-0.065,30.006,0.021c2.513,0.022,4.14,2.381,3.862,4.596  c-0.061,0.491-0.097,1.164-1.158,1.249c-0.652-0.103-1.011-0.879-0.976-1.271c0.248-2.809-1.378-3.086-3.602-3.069  c-8.927,0.068-17.851,0.023-26.776,0.036c-3.07,0.004-3.253,0.203-3.257,3.28c-0.006,5.155-0.012,10.31-0.001,15.465  c0.005,2.919,0.282,3.188,3.149,3.188c5.078,0.001,10.155-0.01,15.233,0.009c0.793,0.003,1.698-0.012,2.519,0.025  C109.937,32.328,109.906,33.279,109.916,33.583z"></path>
<path fill-rule="evenodd" clip-rule="evenodd" fill="#1048F6" d="M129.276,30.739c0.002,2.688,0.021,5.377-0.003,8.066  c-0.024,2.556-1.707,4.36-4.237,4.432c-2.61,0.076-5.225,0.077-7.834,0.006c-2.271-0.063-3.769-1.482-3.8-3.784  c-0.075-5.991-0.075-11.983,0.008-17.974c0.035-2.522,1.208-3.625,3.723-3.706c2.608-0.083,5.225-0.086,7.834-0.012  c3.052,0.086,4.278,1.394,4.305,4.446C129.296,25.055,129.276,27.897,129.276,30.739z M127.285,30.74  c0-2.997-0.034-5.995,0.015-8.993c0.021-1.333-0.458-2.014-1.852-2.003c-2.845,0.023-5.696-0.106-8.526,0.082  c-0.675,0.044-1.825,1.071-1.841,1.667c-0.137,5.991-0.139,11.99-0.002,17.983c0.014,0.607,1.137,1.657,1.802,1.704  c2.754,0.196,5.53,0.035,8.294,0.104c1.636,0.039,2.157-0.72,2.128-2.242C127.247,36.277,127.286,33.509,127.285,30.74z"></path>
<path fill-rule="evenodd" clip-rule="evenodd" fill="#1048F6" d="M109.865,38.249c-0.945,0.007-1.788,0-2.656,0.003  c-6.851,0.021-13.705-0.023-20.555,0.072c-0.75,0.01-2.027,0.661-2.135,1.199c-0.32,1.618,0.988,1.752,2.236,1.749  c6.852-0.009,13.704-0.006,20.556-0.002c0.614,0,1.249-0.047,1.834,0.091c0.279,0.065,0.566,0.521,0.585,0.812  c0.019,0.289-0.206,0.744-0.476,0.853c-0.479,0.19-1.042,0.223-1.57,0.224c-6.852,0.016-13.703,0.043-20.555-0.002  c-3.076-0.021-4.706-1.685-4.747-4.42c-0.021-1.472,0.596-2.205,1.995-2.209c8.006-0.019,24.829,0.238,25.495,0.264  C109.878,37.166,109.874,37.966,109.865,38.249z"></path>
<path fill-rule="evenodd" clip-rule="evenodd" fill="#1048F6" d="M197.877,18.575c1.744,0,3.09-0.001,4.436,0  c4.899,0.008,6.908,3.347,4.845,7.881c-0.447,0.981-0.6,2.162-0.619,3.257c-0.046,2.398-0.043,4.655-1.62,6.806  c-0.919,1.255-0.627,3.347-1.433,4.743c-1.272,2.204-2.852,4.292-4.624,6.115c-0.776,0.8-2.326,0.991-3.566,1.169  c-3.789,0.545-7.41,0.067-10.897-1.728c-1.922-0.986-4.086-1.516-6.164-2.184c-1.413-0.456-2.759-0.576-3.806,0.903  c-0.305,0.432-1.066,0.736-1.628,0.753c-2.672,0.076-5.354,0.147-8.021,0c-1.812-0.102-3.029-1.681-3.043-3.782  c-0.045-6.655-0.042-13.314-0.001-19.971c0.014-2.107,1.568-3.804,3.646-3.913c2.257-0.117,4.528-0.072,6.789,0.02  c0.627,0.026,1.444,0.298,1.818,0.752c1.063,1.29,2.267,1.134,3.517,0.574c6.25-2.806,11.749-6.626,15.572-12.423  c1.135-1.724,1.677-3.84,2.47-5.729c6.126,0.994,6.296,6.454,4.696,10.507C199.501,14.211,198.808,16.112,197.877,18.575z   M196.859,3.989c-1.297,2.22-2.298,4.422-3.731,6.293c-4.088,5.339-9.459,9.025-15.737,11.36c-1.268,0.471-1.904,1.046-1.889,2.484  c0.063,5.495,0.051,10.989,0.008,16.484c-0.011,1.46,0.577,2.03,2.024,2.24c1.595,0.229,3.247,0.595,4.683,1.293  c3.871,1.884,7.777,3.267,12.196,2.878c2.335-0.206,4.409-0.453,4.893-3.294c0.049-0.287,0.346-0.604,0.612-0.771  c2.469-1.558,2.845-3.836,2.282-6.456c3.131-2.121,3.749-5.749,1.697-7.979c0.801-1.836,1.846-3.445,2.179-5.19  c0.39-2.053-0.58-2.848-2.692-2.869c-1.922-0.02-3.848,0.038-5.769-0.033c-0.696-0.025-1.87-0.187-1.967-0.53  c-0.184-0.651,0.093-1.565,0.454-2.216c1.768-3.177,3.579-6.266,3.228-10.169C199.174,5.779,198.591,4.694,196.859,3.989z   M173.714,32.604c0-3.365-0.035-6.73,0.018-10.094c0.021-1.387-0.522-2.052-1.914-2.046c-2.059,0.01-4.119,0.011-6.179-0.01  c-1.471-0.014-2.1,0.701-2.094,2.154c0.021,6.661,0.018,13.322,0.004,19.983c-0.002,1.367,0.58,2.012,1.987,1.98  c2.058-0.045,4.121-0.063,6.178,0.011c1.533,0.053,2.051-0.608,2.021-2.091C173.669,39.197,173.714,35.9,173.714,32.604z"></path>
<image width="308" height="385" xlink:href="2.jpg" transform="matrix(0.75 0 0 0.75 -592.7866 -372.9932)">
</image>
<image width="255" height="408" xlink:href="6.jpg" transform="matrix(0.75 0 0 0.75 -385.0859 -402.9463)">
</image>
<path fill-rule="evenodd" clip-rule="evenodd" d="M-194.138-202.198c-9.992,0-19.985,0.029-29.978-0.011  c-5.962-0.024-7.781-1.883-7.791-7.89c-0.02-12.366-0.017-24.731,0.009-37.096c0.011-5.684,2.23-7.854,7.98-7.854  c19.984-0.005,39.97-0.003,59.954,0.014c5.954,0.005,8.2,2.222,8.204,8.052c0.007,12.366,0.011,24.731-0.011,37.096  c-0.01,5.688-1.907,7.64-7.642,7.672C-173.653-202.158-183.896-202.199-194.138-202.198z M-194.177-229.175  c-10.369,0-20.739,0.065-31.106-0.043c-2.815-0.029-4.091,0.724-3.97,3.809c0.21,5.363,0.18,10.745,0.005,16.111  c-0.105,3.256,1.248,4.519,4.395,4.513c20.613-0.039,41.227-0.044,61.839,0.005c2.854,0.008,4.1-1.129,4.051-4.008  c-0.092-5.37-0.281-10.758,0.047-16.11c0.226-3.686-1.287-4.386-4.529-4.338C-173.688-229.089-183.933-229.183-194.177-229.175z   M-159.306-244.303c-1.524,0-2.861,0-4.198,0c-19.221,0.002-38.441,0.006-57.662,0.005c-8.139-0.001-7.982-0.004-8.125,8.115  c-0.061,3.472,1.096,4.478,4.512,4.451c18.346-0.144,36.693-0.075,55.04-0.071C-158.021-231.799-158.021-231.793-159.306-244.303z   M-159.317-247.708c0.718-3.069-0.404-4.112-3.196-4.106c-20.854,0.043-41.708-0.023-62.561,0.115  c-1.353,0.009-3.731,1.295-3.853,2.221c-0.383,2.932,2.277,1.896,3.739,1.901c20.729,0.068,41.458,0.05,62.187,0.04  C-161.785-247.54-160.57-247.648-159.317-247.708z"></path>
<image width="319" height="456" xlink:href="3.jpg" transform="matrix(0.75 0 0 0.75 -90.292 -467.0737)">
</image>
<path fill-rule="evenodd" clip-rule="evenodd" fill="#1048F6" d="M25.177,40.702c-6.029-0.002-12.06-0.118-18.084,0.049  c-2.859,0.08-4.832-1.474-4.804-4.948c0.057-7.218,0.008-14.437,0.021-21.655c0.007-3.413,1.429-4.877,4.842-4.884  C19.133,9.241,31.114,9.243,43.097,9.26c3.44,0.005,4.578,1.122,4.59,4.5c0.026,7.517,0.033,15.032,0.009,22.55  c-0.011,3.418-1.001,4.378-4.435,4.389C37.232,40.717,31.204,40.704,25.177,40.702z M24.983,39.104c0,0,0-0.004,0-0.008  c6.105,0,12.211-0.043,18.315,0.025c1.978,0.022,2.84-0.665,2.823-2.721c-0.062-7.596-0.055-15.191,0.003-22.785  c0.014-1.823-0.65-2.491-2.494-2.483c-12.286,0.055-24.571,0.06-36.856,0c-1.868-0.009-2.505,0.698-2.494,2.483  C4.321,21.21,4.315,28.807,4.279,36.4c-0.011,1.99,0.819,2.761,2.833,2.733C13.069,39.051,19.027,39.104,24.983,39.104z"></path>
<path fill-rule="evenodd" clip-rule="evenodd" fill="#1048F6" d="M15.986,33.914c-1.712-0.045-2.277,0.078-3.563,0.105  c-0.891,0.018-2.489,0.199-2.493-0.822c-0.007-1.604-0.078-2.032,0.599-3.122c1.236-1.994,3.82-2.766,6.335-2.453  c2.543,0.315,4.56,1.635,5.412,4.073c0.443,1.269,0.035,2.138-1.383,2.201C19.26,33.967,17.623,33.91,15.986,33.914z M20.332,31.862  c0.268-3.185-7.451-4.815-8.671,0C14.641,31.862,17.465,31.862,20.332,31.862z"></path>
<image width="267" height="362" xlink:href="5.jpg" transform="matrix(0.75 0 0 0.75 -281.917 110.0762)">
</image>
<path fill-rule="evenodd" clip-rule="evenodd" d="M717.11-184.627c-0.242,2.848-0.19,5.757-0.777,8.531  c-1.854,8.753-9.101,11.999-16.291,14.729c-10.253,3.894-21.018,3.923-31.596,1.709c-8.145-1.704-16.099-4.546-20.758-12.29  c-1.288-2.142-2.235-4.831-2.301-7.297c-0.132-4.948-0.467-10.218,1.033-14.779c1.196-3.635,4.435-7.273,7.736-9.418  c11.26-7.315,24.033-8.222,36.953-6.53c4.291,0.563,8.438,2.555,12.537,4.182C713.176-202.006,718.256-195.312,717.11-184.627z   M681.013-207.553c-7.884-0.659-15.526,0.957-22.607,4.621c-4.867,2.518-9.514,5.597-9.886,11.977  c-0.419,7.186,4.462,10.672,9.845,13.559c8.649,4.64,18.083,5.047,27.639,4.698c6.847-0.25,13.313-2.063,19.221-5.293  c11.762-6.431,12.234-16.457,0.941-23.697C698.679-206.488,690.101-208.203,681.013-207.553z M648.802-180.174  c-0.677,6.099,2.448,10.971,9.017,14.004c7.859,3.63,16.045,5.948,24.796,5.343c3.804-0.263,7.634-0.706,11.352-1.521  c5.992-1.315,11.754-3.471,16.217-7.855c2.72-2.672,5.103-5.828,3.565-10.147C692.058-165.754,670.562-165.896,648.802-180.174z"></path>
<path fill-rule="evenodd" clip-rule="evenodd" d="M668.888-183.079c1.288-0.299,2.571-0.829,3.865-0.857  c4.862-0.105,9.729-0.01,14.593-0.068c1.638-0.02,3.657,0.501,3.728-2.326c0.068-2.788-1.831-2.487-3.559-2.499  c-4.615-0.031-9.23-0.011-13.845-0.038c-5.062-0.029-5.233-0.231-5.201-5.721c0.028-4.689,0.433-5.056,5.108-5.129  c2.703-0.043,5.864,1.055,7.314-3.415c2.584,4.424,6.427,3.251,9.946,3.495c1.078,0.075,2.106,0.866,3.158,1.33  c-0.083,0.402-0.165,0.804-0.248,1.207c-1.393,0.229-2.782,0.632-4.179,0.655c-5.112,0.086-10.232-0.083-15.336,0.158  c-1.064,0.05-2.718,1.27-2.965,2.24c-0.572,2.24,1.259,2.563,3.035,2.564c5.363,0.003,10.73,0.147,16.088-0.019  c3.91-0.121,4.014,2.174,4.002,5.088c-0.013,2.883-0.043,5.164-3.985,5.111c-2.939-0.039-6.542-1.402-8.378,2.608  c-0.088,0.191-1.808,0.03-1.885-0.228c-1.054-3.559-3.965-2.18-6.23-2.439c-1.63-0.188-3.271-0.282-4.906-0.417  C668.968-182.211,668.928-182.645,668.888-183.079z"></path>
<rect x="106.435" y="110.903" fill-rule="evenodd" clip-rule="evenodd" fill="#1048F6" width="4.748" height="2.307"></rect>
<rect x="122.892" y="110.903" fill-rule="evenodd" clip-rule="evenodd" fill="#1048F6" width="2.374" height="2.307"></rect>
<rect x="113.816" y="110.903" fill-rule="evenodd" clip-rule="evenodd" fill="#1048F6" width="6.902" height="2.307"></rect>
<path fill="#1048F6" d="M126.051,118.132h-39.17c-2.12,0-3.845-1.691-3.845-3.769V89.038c0-2.078,1.725-3.77,3.845-3.77h39.17  c2.12,0,3.845,1.691,3.845,3.77v25.325C129.896,116.44,128.171,118.132,126.051,118.132z M86.881,87.115  c-1.103,0-1.999,0.861-1.999,1.923v25.325c0,1.061,0.896,1.923,1.999,1.923h39.17c1.103,0,1.999-0.862,1.999-1.923V89.038  c0-1.062-0.896-1.923-1.999-1.923H86.881z"></path>
<rect x="84.368" y="89.575" fill="#1048F6" width="44.091" height="1.947"></rect>
<rect x="84.368" y="98.625" fill="#1048F6" width="44.091" height="2.024"></rect>
<rect x="49.948" y="-65.446" fill-rule="evenodd" clip-rule="evenodd" width="7.719" height="3.75"></rect>
<rect x="76.698" y="-65.446" fill-rule="evenodd" clip-rule="evenodd" width="3.859" height="3.75"></rect>
<rect x="61.948" y="-65.446" fill-rule="evenodd" clip-rule="evenodd" width="11.219" height="3.75"></rect>
<path fill-rule="evenodd" clip-rule="evenodd" fill="none" stroke="#000000" stroke-width="3" stroke-miterlimit="10" d="  M86.583-59.821c0,2.555-2.127,4.625-4.75,4.625H18.167c-2.623,0-4.75-2.07-4.75-4.625v-41.166c0-2.554,2.127-4.625,4.75-4.625  h63.666c2.623,0,4.75,2.071,4.75,4.625V-59.821z"></path>
<rect x="14.083" y="-100.112" width="71.667" height="3.166"></rect>
<rect x="14.083" y="-85.403" width="71.667" height="3.291"></rect>
<path fill-rule="evenodd" clip-rule="evenodd" fill="#1048F6" d="M16.054,16.403c-2.249,0-4.072,1.823-4.072,4.073  c0,2.249,1.823,4.073,4.072,4.073c2.25,0,4.073-1.824,4.073-4.073C20.127,18.227,18.304,16.403,16.054,16.403z M16.054,22.989  c-1.387,0-2.513-1.126-2.513-2.513c0-1.388,1.126-2.513,2.513-2.513c1.389,0,2.514,1.125,2.514,2.513  C18.567,21.863,17.442,22.989,16.054,22.989z"></path>
<path fill="#1048F6" d="M44.059,18.969c0,0.608-0.493,1.101-1.101,1.101h-11.81c-0.608,0-1.1-0.493-1.1-1.101l0,0  c0-0.608,0.491-1.1,1.1-1.1h11.81C43.565,17.87,44.059,18.361,44.059,18.969L44.059,18.969z"></path>
<path fill="#1048F6" d="M44.059,32.283c0,0.607-0.493,1.102-1.101,1.102h-11.81c-0.608,0-1.1-0.494-1.1-1.102l0,0  c0-0.608,0.491-1.1,1.1-1.1h11.81C43.565,31.184,44.059,31.675,44.059,32.283L44.059,32.283z"></path>
<path fill="#1048F6" d="M41.177,23.42c0,0.607-0.392,1.1-0.873,1.1h-9.382c-0.481,0-0.873-0.493-0.873-1.1l0,0  c0-0.607,0.392-1.099,0.873-1.099h9.382C40.785,22.321,41.177,22.813,41.177,23.42L41.177,23.42z"></path>
<path fill="#1048F6" d="M41.177,27.762c0,0.607-0.392,1.1-0.873,1.1h-9.382c-0.481,0-0.873-0.492-0.873-1.1l0,0  c0-0.608,0.392-1.1,0.873-1.1h9.382C40.785,26.662,41.177,27.153,41.177,27.762L41.177,27.762z"></path>
<path fill-rule="evenodd" clip-rule="evenodd" d="M-26.449-12.684c-10.111-0.003-20.229-0.197-30.332,0.082  c-4.798,0.133-8.105-2.471-8.06-8.299c0.095-12.107,0.014-24.218,0.035-36.326c0.01-5.725,2.395-8.181,8.122-8.192  c20.098-0.038,40.196-0.034,60.294-0.006c5.771,0.008,7.68,1.882,7.699,7.548c0.044,12.609,0.056,25.216,0.016,37.826  c-0.019,5.732-1.681,7.344-7.439,7.361C-6.226-12.66-16.337-12.682-26.449-12.684z M-26.772-15.364c0-0.003,0-0.007,0-0.012  c10.241,0,20.483-0.073,30.724,0.042c3.315,0.037,4.763-1.117,4.734-4.566C8.582-32.641,8.593-45.381,8.69-58.12  c0.023-3.057-1.092-4.178-4.183-4.165c-20.608,0.092-41.217,0.101-61.824,0.001c-3.133-0.016-4.201,1.171-4.185,4.165  c0.069,12.74,0.061,25.48-0.001,38.219c-0.017,3.339,1.375,4.632,4.754,4.585C-46.758-15.453-36.765-15.364-26.772-15.364z"></path>
<path fill-rule="evenodd" clip-rule="evenodd" d="M-41.865-24.071c-2.871-0.073-3.82,0.132-5.976,0.177  c-1.494,0.031-4.174,0.335-4.182-1.379c-0.012-2.69-0.131-3.406,1.005-5.236c2.073-3.344,6.407-4.639,10.626-4.114  c4.265,0.53,7.647,2.741,9.078,6.833c0.744,2.128,0.059,3.584-2.318,3.689C-36.372-23.98-39.12-24.074-41.865-24.071z   M-34.574-27.511c0.45-5.343-12.499-8.079-14.545,0C-44.122-27.511-39.385-27.511-34.574-27.511z"></path>
<path fill-rule="evenodd" clip-rule="evenodd" d="M-41.751-53.442c-3.772,0-6.83,3.058-6.83,6.831c0,3.773,3.058,6.831,6.83,6.831  c3.773,0,6.831-3.058,6.831-6.831C-34.92-50.384-37.978-53.442-41.751-53.442z M-41.751-42.396c-2.327,0-4.214-1.887-4.214-4.215  c0-2.328,1.887-4.214,4.214-4.214c2.328,0,4.215,1.887,4.215,4.214C-37.536-44.283-39.423-42.396-41.751-42.396z"></path>
<path d="M5.224-49.138c0,1.019-0.826,1.845-1.845,1.845h-19.811c-1.019,0-1.845-0.826-1.845-1.845l0,0  c0-1.019,0.826-1.845,1.845-1.845H3.379C4.397-50.983,5.224-50.157,5.224-49.138L5.224-49.138z"></path>
<path d="M5.224-26.805c0,1.019-0.826,1.845-1.845,1.845h-19.811c-1.019,0-1.845-0.826-1.845-1.845l0,0  c0-1.02,0.826-1.846,1.845-1.846H3.379C4.397-28.65,5.224-27.824,5.224-26.805L5.224-26.805z"></path>
<path d="M0.39-41.672c0,1.018-0.656,1.844-1.465,1.844h-15.735c-0.81,0-1.466-0.826-1.466-1.844l0,0c0-1.02,0.656-1.846,1.466-1.846  h15.735C-0.267-43.518,0.39-42.691,0.39-41.672L0.39-41.672z"></path>
<path d="M0.39-34.391c0,1.02-0.656,1.846-1.465,1.846h-15.735c-0.81,0-1.466-0.826-1.466-1.846l0,0c0-1.019,0.656-1.845,1.466-1.845  h15.735C-0.267-36.235,0.39-35.409,0.39-34.391L0.39-34.391z"></path>
</svg>