<svg xmlns="http://www.w3.org/2000/svg" xmlns:xlink="http://www.w3.org/1999/xlink" id="Layer_1" x="0px" y="0px" width="50px" height="50px" viewBox="0 0 50 50" xml:space="preserve">
<path fill-rule="evenodd" clip-rule="evenodd" fill="#1048F6" d="M-52.73-102.196c-0.804,0.03-1.479,0.039-2.209,0.045  c-5.386,0.042-10.772,0.052-16.158,0.005c-3.061-0.026-4.499-1.497-4.519-4.576c-0.031-5.462-0.022-10.926,0.001-16.387  c0.011-2.569,1.34-4.148,3.892-4.167c10.002-0.071,20.004-0.065,30.006,0.021c2.513,0.022,4.14,2.381,3.862,4.596  c-0.061,0.491-0.097,1.164-1.158,1.249c-0.652-0.103-1.011-0.879-0.976-1.271c0.248-2.809-1.378-3.086-3.602-3.069  c-8.927,0.068-17.851,0.023-26.776,0.036c-3.07,0.004-3.253,0.203-3.257,3.28c-0.006,5.155-0.012,10.31-0.001,15.465  c0.005,2.919,0.282,3.188,3.149,3.188c5.078,0.001,10.155-0.01,15.233,0.009c0.793,0.003,1.698-0.012,2.519,0.025  C-52.71-103.451-52.74-102.5-52.73-102.196z"></path>
<path fill-rule="evenodd" clip-rule="evenodd" fill="#1048F6" d="M-33.37-105.04c0.002,2.688,0.021,5.377-0.003,8.066  c-0.024,2.556-1.707,4.36-4.237,4.432c-2.61,0.076-5.225,0.077-7.834,0.006c-2.271-0.063-3.769-1.482-3.8-3.784  c-0.075-5.991-0.075-11.983,0.008-17.974c0.035-2.522,1.208-3.625,3.723-3.706c2.608-0.083,5.225-0.086,7.834-0.012  c3.052,0.086,4.278,1.394,4.305,4.446C-33.351-110.725-33.37-107.882-33.37-105.04z M-35.361-105.039  c0-2.997-0.034-5.995,0.015-8.993c0.021-1.333-0.458-2.014-1.852-2.003c-2.845,0.023-5.696-0.106-8.526,0.082  c-0.675,0.044-1.825,1.071-1.841,1.667c-0.137,5.991-0.139,11.99-0.002,17.983c0.014,0.607,1.137,1.657,1.802,1.704  c2.754,0.196,5.53,0.035,8.294,0.104c1.636,0.039,2.157-0.72,2.128-2.242C-35.399-99.502-35.36-102.271-35.361-105.039z"></path>
<path fill-rule="evenodd" clip-rule="evenodd" fill="#1048F6" d="M-52.781-97.53c-0.945,0.007-1.788,0-2.656,0.003  c-6.851,0.021-13.705-0.023-20.555,0.072c-0.75,0.01-2.027,0.661-2.135,1.199c-0.32,1.618,0.988,1.752,2.236,1.749  c6.852-0.009,13.704-0.006,20.556-0.002c0.614,0,1.249-0.047,1.834,0.091c0.279,0.065,0.566,0.521,0.585,0.812  c0.019,0.289-0.206,0.744-0.476,0.853c-0.479,0.19-1.042,0.223-1.57,0.224c-6.852,0.016-13.703,0.043-20.555-0.002  c-3.076-0.021-4.706-1.685-4.747-4.42c-0.021-1.472,0.596-2.205,1.995-2.209c8.006-0.019,24.829,0.238,25.495,0.264  C-52.769-98.613-52.772-97.813-52.781-97.53z"></path>
<path fill-rule="evenodd" clip-rule="evenodd" fill="#1048F6" d="M35.23-117.204c1.744,0,3.09-0.001,4.436,0  c4.899,0.008,6.908,3.347,4.845,7.881c-0.447,0.981-0.6,2.162-0.619,3.257c-0.046,2.398-0.043,4.655-1.62,6.806  c-0.919,1.255-0.627,3.347-1.433,4.743c-1.272,2.204-2.852,4.292-4.624,6.115c-0.776,0.8-2.326,0.991-3.566,1.169  c-3.789,0.545-7.41,0.067-10.897-1.728c-1.922-0.986-4.086-1.516-6.164-2.184c-1.413-0.456-2.759-0.576-3.806,0.903  c-0.305,0.432-1.066,0.736-1.628,0.753c-2.672,0.076-5.354,0.147-8.021,0c-1.812-0.102-3.029-1.681-3.043-3.782  c-0.045-6.655-0.042-13.314-0.001-19.971c0.014-2.107,1.568-3.804,3.646-3.913c2.257-0.117,4.528-0.072,6.789,0.02  c0.627,0.026,1.444,0.298,1.818,0.752c1.063,1.29,2.267,1.134,3.517,0.574c6.25-2.806,11.749-6.626,15.572-12.423  c1.135-1.724,1.677-3.84,2.47-5.729c6.126,0.994,6.296,6.454,4.696,10.507C36.854-121.568,36.161-119.667,35.23-117.204z   M34.213-131.791c-1.297,2.22-2.298,4.422-3.731,6.293c-4.088,5.339-9.459,9.025-15.737,11.36c-1.268,0.471-1.904,1.046-1.889,2.484  c0.063,5.495,0.051,10.989,0.008,16.484c-0.011,1.46,0.577,2.03,2.024,2.24c1.595,0.229,3.247,0.595,4.683,1.293  c3.871,1.884,7.777,3.267,12.196,2.878c2.335-0.206,4.409-0.453,4.893-3.294c0.049-0.287,0.346-0.604,0.612-0.771  c2.469-1.558,2.845-3.836,2.282-6.456c3.131-2.121,3.749-5.749,1.697-7.979c0.801-1.836,1.846-3.445,2.179-5.19  c0.39-2.053-0.58-2.848-2.692-2.869c-1.922-0.02-3.848,0.038-5.769-0.033c-0.696-0.025-1.87-0.187-1.967-0.53  c-0.184-0.651,0.093-1.565,0.454-2.216c1.768-3.177,3.579-6.266,3.228-10.169C36.527-130,35.944-131.085,34.213-131.791z   M11.067-103.175c0-3.365-0.035-6.73,0.018-10.094c0.021-1.387-0.522-2.052-1.914-2.046c-2.059,0.01-4.119,0.011-6.179-0.01  c-1.471-0.014-2.1,0.701-2.094,2.154c0.021,6.661,0.018,13.322,0.004,19.983c-0.002,1.367,0.58,2.012,1.987,1.98  c2.058-0.045,4.121-0.063,6.178,0.011c1.533,0.053,2.051-0.608,2.021-2.091C11.022-96.582,11.067-99.879,11.067-103.175z"></path>
<path fill-rule="evenodd" clip-rule="evenodd" d="M-356.784-337.977c-9.992,0-19.985,0.029-29.978-0.011  c-5.962-0.024-7.781-1.883-7.791-7.89c-0.02-12.366-0.017-24.731,0.009-37.096c0.011-5.684,2.23-7.854,7.98-7.854  c19.984-0.005,39.97-0.003,59.954,0.014c5.954,0.005,8.2,2.222,8.204,8.052c0.007,12.366,0.011,24.731-0.011,37.096  c-0.01,5.688-1.907,7.64-7.642,7.672C-336.3-337.937-346.542-337.978-356.784-337.977z M-356.823-364.955  c-10.369,0-20.739,0.065-31.106-0.043c-2.815-0.029-4.091,0.724-3.97,3.809c0.21,5.363,0.18,10.745,0.005,16.111  c-0.105,3.256,1.248,4.519,4.395,4.513c20.613-0.039,41.227-0.044,61.839,0.005c2.854,0.008,4.1-1.129,4.051-4.008  c-0.092-5.37-0.281-10.758,0.047-16.11c0.226-3.686-1.287-4.386-4.529-4.338C-336.334-364.868-346.579-364.962-356.823-364.955z   M-321.952-380.082c-1.524,0-2.861,0-4.198,0c-19.221,0.002-38.441,0.006-57.662,0.005c-8.139-0.001-7.982-0.004-8.125,8.115  c-0.061,3.472,1.096,4.478,4.512,4.451c18.346-0.144,36.693-0.075,55.04-0.071C-320.667-367.579-320.667-367.573-321.952-380.082z   M-321.964-383.488c0.718-3.069-0.404-4.112-3.196-4.106c-20.854,0.043-41.708-0.023-62.561,0.115  c-1.353,0.009-3.731,1.295-3.853,2.221c-0.383,2.932,2.277,1.896,3.739,1.901c20.729,0.068,41.458,0.05,62.187,0.04  C-324.432-383.319-323.217-383.428-321.964-383.488z"></path>
<path fill-rule="evenodd" clip-rule="evenodd" fill="#1048F6" d="M-137.47-95.077c-6.029-0.002-12.06-0.118-18.084,0.049  c-2.859,0.08-4.832-1.474-4.804-4.948c0.057-7.218,0.008-14.437,0.021-21.655c0.007-3.413,1.429-4.877,4.842-4.884  c11.981-0.022,23.963-0.021,35.945-0.003c3.44,0.005,4.578,1.122,4.59,4.5c0.026,7.517,0.033,15.032,0.009,22.55  c-0.011,3.418-1.001,4.378-4.435,4.389C-125.414-95.063-131.442-95.075-137.47-95.077z M-137.663-96.676c0,0,0-0.004,0-0.008  c6.105,0,12.211-0.043,18.315,0.025c1.978,0.022,2.84-0.665,2.823-2.721c-0.062-7.596-0.055-15.191,0.003-22.785  c0.014-1.823-0.65-2.491-2.494-2.483c-12.286,0.055-24.571,0.06-36.856,0c-1.868-0.009-2.505,0.698-2.494,2.483  c0.041,7.594,0.035,15.191-0.001,22.785c-0.011,1.99,0.819,2.761,2.833,2.733C-149.577-96.729-143.619-96.676-137.663-96.676z"></path>
<path fill-rule="evenodd" clip-rule="evenodd" fill="#1048F6" d="M-146.66-101.865c-1.712-0.045-2.277,0.078-3.563,0.105  c-0.891,0.018-2.489,0.199-2.493-0.822c-0.007-1.604-0.078-2.032,0.599-3.122c1.236-1.994,3.82-2.766,6.335-2.453  c2.543,0.315,4.56,1.635,5.412,4.073c0.443,1.269,0.035,2.138-1.383,2.201C-143.387-101.813-145.023-101.869-146.66-101.865z   M-142.314-103.917c0.268-3.185-7.451-4.815-8.671,0C-148.006-103.917-145.182-103.917-142.314-103.917z"></path>
<path fill-rule="evenodd" clip-rule="evenodd" d="M-333.682-4.362c-0.242,2.848-0.191,5.757-0.777,8.531  c-1.854,8.754-9.101,11.999-16.292,14.729c-10.253,3.894-21.018,3.923-31.596,1.709c-8.145-1.704-16.099-4.546-20.758-12.29  c-1.288-2.143-2.235-4.831-2.301-7.297c-0.132-4.948-0.467-10.218,1.033-14.779c1.196-3.635,4.435-7.273,7.736-9.418  c11.26-7.315,24.033-8.222,36.953-6.53c4.291,0.563,8.438,2.555,12.537,4.182C-337.618-21.741-332.538-15.048-333.682-4.362z   M-369.78-27.288c-7.884-0.659-15.526,0.957-22.607,4.621c-4.867,2.518-9.514,5.597-9.886,11.977  c-0.419,7.186,4.462,10.672,9.845,13.559c8.649,4.64,18.083,5.047,27.639,4.698c6.847-0.25,13.313-2.063,19.221-5.293  c11.762-6.431,12.235-16.456,0.941-23.697C-352.114-26.224-360.692-27.938-369.78-27.288z M-401.991,0.091  c-0.677,6.099,2.448,10.971,9.017,14.004c7.859,3.63,16.045,5.948,24.796,5.344c3.804-0.264,7.634-0.706,11.352-1.521  c5.992-1.315,11.754-3.471,16.217-7.855c2.719-2.672,5.102-5.828,3.564-10.146C-358.735,14.511-380.231,14.368-401.991,0.091z"></path>
<path fill-rule="evenodd" clip-rule="evenodd" d="M-370.939,42.142c1.288-0.299,2.571-0.829,3.865-0.856  c4.862-0.105,9.729-0.011,14.593-0.068c1.638-0.02,3.657,0.502,3.728-2.326c0.068-2.787-1.831-2.486-3.559-2.498  c-4.615-0.031-9.23-0.012-13.845-0.038c-5.062-0.029-5.233-0.231-5.201-5.721c0.028-4.688,0.433-5.056,5.108-5.129  c2.703-0.043,5.864,1.055,7.314-3.415c2.584,4.424,6.427,3.252,9.946,3.495c1.078,0.075,2.106,0.866,3.158,1.329  c-0.083,0.402-0.165,0.805-0.248,1.207c-1.393,0.229-2.782,0.632-4.179,0.655c-5.112,0.087-10.232-0.083-15.336,0.158  c-1.064,0.05-2.718,1.271-2.965,2.24c-0.572,2.24,1.259,2.563,3.035,2.564c5.363,0.003,10.73,0.147,16.088-0.019  c3.91-0.121,4.014,2.174,4.002,5.088c-0.013,2.883-0.043,5.164-3.985,5.111c-2.939-0.039-6.542-1.402-8.378,2.608  c-0.088,0.19-1.808,0.03-1.885-0.228c-1.054-3.559-3.965-2.18-6.23-2.439c-1.63-0.188-3.271-0.282-4.906-0.418  C-370.859,43.01-370.899,42.576-370.939,42.142z"></path>
<rect x="-56.212" y="-24.876" fill-rule="evenodd" clip-rule="evenodd" fill="#1048F6" width="4.748" height="2.307"></rect>
<rect x="-39.755" y="-24.876" fill-rule="evenodd" clip-rule="evenodd" fill="#1048F6" width="2.374" height="2.307"></rect>
<rect x="-48.83" y="-24.876" fill-rule="evenodd" clip-rule="evenodd" fill="#1048F6" width="6.902" height="2.307"></rect>
<path fill="#1048F6" d="M-36.596-17.647h-39.17c-2.12,0-3.845-1.691-3.845-3.769v-25.325c0-2.078,1.725-3.77,3.845-3.77h39.17  c2.12,0,3.845,1.691,3.845,3.77v25.325C-32.751-19.339-34.476-17.647-36.596-17.647z M-75.766-48.664  c-1.103,0-1.999,0.861-1.999,1.923v25.325c0,1.061,0.896,1.923,1.999,1.923h39.17c1.103,0,1.999-0.862,1.999-1.923v-25.325  c0-1.062-0.896-1.923-1.999-1.923H-75.766z"></path>
<rect x="-78.278" y="-46.204" fill="#1048F6" width="44.091" height="1.947"></rect>
<rect x="-78.278" y="-37.154" fill="#1048F6" width="44.091" height="2.024"></rect>
<rect x="-112.698" y="-201.226" fill-rule="evenodd" clip-rule="evenodd" width="7.719" height="3.75"></rect>
<rect x="-85.948" y="-201.226" fill-rule="evenodd" clip-rule="evenodd" width="3.859" height="3.75"></rect>
<rect x="-100.698" y="-201.226" fill-rule="evenodd" clip-rule="evenodd" width="11.219" height="3.75"></rect>
<path fill-rule="evenodd" clip-rule="evenodd" fill="none" stroke="#000000" stroke-width="3" stroke-miterlimit="10" d="  M-76.063-195.601c0,2.555-2.127,4.625-4.75,4.625h-63.666c-2.623,0-4.75-2.07-4.75-4.625v-41.166c0-2.554,2.127-4.625,4.75-4.625  h63.666c2.623,0,4.75,2.071,4.75,4.625V-195.601z"></path>
<rect x="-148.563" y="-235.892" width="71.667" height="3.166"></rect>
<rect x="-148.563" y="-221.183" width="71.667" height="3.291"></rect>
<path fill-rule="evenodd" clip-rule="evenodd" fill="#1048F6" d="M-146.593-119.376c-2.249,0-4.072,1.823-4.072,4.073  c0,2.249,1.823,4.073,4.072,4.073c2.25,0,4.073-1.824,4.073-4.073C-142.52-117.553-144.343-119.376-146.593-119.376z   M-146.593-112.79c-1.387,0-2.513-1.126-2.513-2.513c0-1.388,1.126-2.513,2.513-2.513c1.389,0,2.514,1.125,2.514,2.513  C-144.079-113.916-145.204-112.79-146.593-112.79z"></path>
<path fill="#1048F6" d="M-118.588-116.81c0,0.608-0.493,1.101-1.101,1.101h-11.81c-0.608,0-1.1-0.493-1.1-1.101l0,0  c0-0.608,0.491-1.1,1.1-1.1h11.81C-119.081-117.91-118.588-117.418-118.588-116.81L-118.588-116.81z"></path>
<path fill="#1048F6" d="M-118.588-103.496c0,0.607-0.493,1.102-1.101,1.102h-11.81c-0.608,0-1.1-0.494-1.1-1.102l0,0  c0-0.608,0.491-1.1,1.1-1.1h11.81C-119.081-104.596-118.588-104.104-118.588-103.496L-118.588-103.496z"></path>
<path fill="#1048F6" d="M-121.47-112.359c0,0.607-0.392,1.1-0.873,1.1h-9.382c-0.481,0-0.873-0.493-0.873-1.1l0,0  c0-0.607,0.392-1.099,0.873-1.099h9.382C-121.861-113.458-121.47-112.966-121.47-112.359L-121.47-112.359z"></path>
<path fill="#1048F6" d="M-121.47-108.018c0,0.607-0.392,1.1-0.873,1.1h-9.382c-0.481,0-0.873-0.492-0.873-1.1l0,0  c0-0.608,0.392-1.1,0.873-1.1h9.382C-121.861-109.117-121.47-108.626-121.47-108.018L-121.47-108.018z"></path>
<path fill-rule="evenodd" clip-rule="evenodd" d="M-189.096-148.463c-10.111-0.003-20.229-0.197-30.332,0.082  c-4.798,0.133-8.105-2.471-8.06-8.299c0.095-12.107,0.014-24.218,0.035-36.326c0.01-5.725,2.395-8.181,8.122-8.192  c20.098-0.038,40.196-0.034,60.294-0.006c5.771,0.008,7.68,1.882,7.699,7.548c0.044,12.609,0.056,25.216,0.016,37.826  c-0.019,5.732-1.681,7.344-7.439,7.361C-168.872-148.439-178.983-148.461-189.096-148.463z M-189.419-151.144  c0-0.003,0-0.007,0-0.012c10.241,0,20.483-0.073,30.724,0.042c3.315,0.037,4.763-1.117,4.734-4.566  c-0.104-12.74-0.093-25.48,0.005-38.219c0.023-3.057-1.092-4.178-4.183-4.165c-20.608,0.092-41.217,0.101-61.824,0.001  c-3.133-0.016-4.201,1.171-4.185,4.165c0.069,12.74,0.061,25.48-0.001,38.219c-0.017,3.339,1.375,4.632,4.754,4.585  C-209.404-151.232-199.411-151.144-189.419-151.144z"></path>
<path fill-rule="evenodd" clip-rule="evenodd" d="M-204.512-159.851c-2.871-0.073-3.82,0.132-5.976,0.177  c-1.494,0.031-4.174,0.335-4.182-1.379c-0.012-2.69-0.131-3.406,1.005-5.236c2.073-3.344,6.407-4.639,10.626-4.114  c4.265,0.53,7.647,2.741,9.078,6.833c0.744,2.128,0.059,3.584-2.318,3.689C-199.019-159.76-201.767-159.854-204.512-159.851z   M-197.221-163.29c0.45-5.343-12.499-8.079-14.545,0C-206.769-163.29-202.031-163.29-197.221-163.29z"></path>
<path fill-rule="evenodd" clip-rule="evenodd" d="M-204.397-189.221c-3.772,0-6.83,3.058-6.83,6.831c0,3.773,3.058,6.831,6.83,6.831  c3.773,0,6.831-3.058,6.831-6.831C-197.566-186.163-200.624-189.221-204.397-189.221z M-204.397-178.176  c-2.327,0-4.214-1.887-4.214-4.215c0-2.328,1.887-4.214,4.214-4.214c2.328,0,4.215,1.887,4.215,4.214  C-200.183-180.063-202.069-178.176-204.397-178.176z"></path>
<path d="M-157.423-184.917c0,1.019-0.826,1.845-1.845,1.845h-19.811c-1.019,0-1.845-0.826-1.845-1.845l0,0  c0-1.019,0.826-1.845,1.845-1.845h19.811C-158.249-186.762-157.423-185.936-157.423-184.917L-157.423-184.917z"></path>
<path d="M-157.423-162.584c0,1.019-0.826,1.845-1.845,1.845h-19.811c-1.019,0-1.845-0.826-1.845-1.845l0,0  c0-1.02,0.826-1.846,1.845-1.846h19.811C-158.249-164.43-157.423-163.604-157.423-162.584L-157.423-162.584z"></path>
<path d="M-162.257-177.451c0,1.018-0.656,1.844-1.465,1.844h-15.735c-0.81,0-1.466-0.826-1.466-1.844l0,0  c0-1.02,0.656-1.846,1.466-1.846h15.735C-162.913-179.297-162.257-178.471-162.257-177.451L-162.257-177.451z"></path>
<path d="M-162.257-170.17c0,1.02-0.656,1.846-1.465,1.846h-15.735c-0.81,0-1.466-0.826-1.466-1.846l0,0  c0-1.019,0.656-1.845,1.466-1.845h15.735C-162.913-172.015-162.257-171.188-162.257-170.17L-162.257-170.17z"></path>
<ellipse fill-rule="evenodd" clip-rule="evenodd" fill="none" stroke="#000000" stroke-width="4" stroke-miterlimit="10" cx="-335.837" cy="90.971" rx="33.69" ry="18.042"></ellipse>
<path fill-rule="evenodd" clip-rule="evenodd" fill="none" stroke="#000000" stroke-width="4" stroke-miterlimit="10" d="  M-302.146,90.971c0.85,2.1,1.083,5.335,1.083,7.625c0,13.61-14.57,23.625-34.4,23.625c-19.83,0-34.6-9.015-34.6-22.625  c0-2.29-0.314-6.525,0.536-8.625"></path>
<polyline fill="none" stroke="#000000" stroke-width="3" stroke-linecap="round" stroke-miterlimit="10" points="-323.48,83.221   -347.48,83.221 -347.48,90.971 -324.48,90.971 -324.646,98.388 -347.48,98.388 "></polyline>
<line fill="none" stroke="#000000" stroke-width="3" stroke-linecap="round" stroke-miterlimit="10" x1="-335.837" y1="77.971" x2="-335.837" y2="82.596"></line>
<line fill="none" stroke="#000000" stroke-width="3" stroke-linecap="round" stroke-miterlimit="10" x1="-335.48" y1="99.471" x2="-335.48" y2="104.096"></line>
<path fill="#1048F6" d="M22.4-27.976C9.839-27.976,0-33.501,0-40.556c0-7.053,9.839-12.578,22.4-12.578S44.8-47.608,44.8-40.556  C44.8-33.501,34.962-27.976,22.4-27.976z M22.4-50.623c-10.782,0-19.89,4.611-19.89,10.067c0,5.458,9.107,10.069,19.89,10.069  c10.78,0,19.889-4.611,19.889-10.069C42.289-46.012,33.181-50.623,22.4-50.623z"></path>
<path fill="#1048F6" d="M22.635-19.687c-13.525,0-22.972-6.355-22.972-15.456c0-0.27-0.007-0.587-0.015-0.93  c-0.038-1.627-0.084-3.651,0.443-4.953l2.326,0.94c-0.331,0.823-0.289,2.708-0.259,3.957c0.008,0.362,0.015,0.698,0.015,0.985  c0,7.623,8.415,12.945,20.461,12.945c11.782,0,20.335-5.707,20.335-13.571c0-1.793-0.221-3.405-0.589-4.316l2.327-0.94  c0.673,1.659,0.772,4.006,0.772,5.257C45.48-26.451,35.872-19.687,22.635-19.687z"></path>
<path fill="#1048F6" d="M30.344-34.958H15.093c-0.521,0-0.941-0.421-0.941-0.942c0-0.519,0.421-0.94,0.941-0.94h13.41l0.063-2.772  H14.151v-6.748h16.004c0.521,0,0.941,0.423,0.941,0.942s-0.421,0.94-0.941,0.94H16.034v2.981H30.49L30.344-34.958z"></path>
<path fill="#1048F6" d="M22.4-44.87c-0.521,0-0.94-0.421-0.94-0.941v-2.902c0-0.52,0.42-0.942,0.94-0.942  c0.519,0,0.941,0.423,0.941,0.942v2.902C23.342-45.291,22.919-44.87,22.4-44.87z"></path>
<path fill="#1048F6" d="M22.624-31.375c-0.52,0-0.941-0.423-0.941-0.942v-2.902c0-0.521,0.422-0.942,0.941-0.942  c0.521,0,0.94,0.422,0.94,0.942v2.902C23.564-31.798,23.145-31.375,22.624-31.375z"></path>
<path fill-rule="evenodd" clip-rule="evenodd" fill="#FFFFFF" d="M-138.13-46.081c2.543-1.472,4.243-3.339,6.593-4.485  c3.831-1.869,7.271-0.789,10.469,1.729c3.67,2.891,7.043,8.56,4.425,15.464c-2.707,7.73-8.314,13.406-14.983,18.028  c-1.62,1.124-3.266,2.21-4.859,3.368c-1.117,0.812-2.071,0.82-3.299,0.063c-8.067-4.979-15.189-10.88-19.299-19.702  c-3.481-7.476-1.352-15.758,7.085-18.967c4.983-1.895,8.857,0.019,12.489,3.152C-139.081-47.061-138.225-46.182-138.13-46.081z   M-157.711-39.248c0.065,4.086,1.313,7.313,3.301,10.284c3.962,5.924,9.242,10.441,15.259,14.139  c0.468,0.287,1.428,0.299,1.877,0.006c4.366-2.85,8.654-5.809,12.01-9.901c3.131-3.82,6.051-7.705,6.526-12.897  c0.397-4.342-1.656-8.273-5.929-10.088c-3.001-1.274-6.774-1.198-9.994,2.126c-0.873,0.901-1.295,1.847-2.257,3.055  c-0.737,0.924-1.031,1.472-2.666-0.824c-0.295-0.416-0.501-0.649-0.768-1.084c-2.308-3.747-6.759-5.012-10.87-3.514  C-155.082-46.539-157.594-43.508-157.711-39.248z"></path>
<image width="260" height="432" xlink:href="7.jpg" transform="matrix(0.75 0 0 0.75 555.582 -261.1616)">
</image>
<path fill-rule="evenodd" clip-rule="evenodd" fill="#FFFFFF" d="M12.109,8.06c0.075-0.583,0.139-0.884,0.15-1.188  c0.139-3.597,0.137-3.605,3.646-3.603c6.877,0.008,13.756,0.023,20.632,0.04c3.188,0.008,3.257,0.083,3.347,3.195  c0.013,0.425,0.078,0.847,0.145,1.54c1.564,0,3.089-0.016,4.613,0.004c1.861,0.025,2.337,0.567,1.884,2.405  c-0.382,1.55-0.819,3.115-1.476,4.564c-1.517,3.354-3.054,6.714-4.849,9.922c-0.71,1.27-2.247,2.048-3.184,3.228  c-0.885,1.114-1.667,2.392-2.157,3.722c-1.149,3.123-3.01,5.602-5.77,7.463c-0.303,0.204-0.47,1.221-0.25,1.479  c0.901,1.057,1.921,2.028,2.97,2.946c2.304,2.016-0.056,2.752-0.724,2.77c-3.343,0.094-6.709,0.36-10.035,0.006  c-1.707-0.182-1.234-2.043-0.811-2.521c1.011-1.144,2.183-2.144,3.179-3.297c0.202-0.233,0.084-1.149-0.165-1.307  c-3.655-2.301-5.413-5.904-6.886-9.733c-0.165-0.429-0.441-0.925-0.813-1.146c-3.83-2.282-5.339-6.172-6.892-9.99  c-1.087-2.673-1.948-5.438-2.884-8.172c-0.535-1.564,0.01-2.285,1.75-2.32C9.007,8.035,10.484,8.06,12.109,8.06z M14.854,6.003  c0.416,3.672,0.798,7.026,1.177,10.379c0.628,5.553,2.102,10.868,4.602,15.866c0.652,1.303,1.449,2.683,2.545,3.586  c2.516,2.076,3.747,2.264,5.859-0.151c1.854-2.12,3.338-4.77,4.288-7.434c2.369-6.644,3.256-13.619,3.755-20.641  c0.086-1.219-0.308-1.645-1.54-1.618c-2.969,0.064-5.94,0.015-8.911,0.013C22.863,6.002,19.098,6.003,14.854,6.003z M37.772,23.493  c0.146,0.064,0.291,0.13,0.437,0.194c1.779-4.247,3.558-8.494,5.354-12.784c-3.063-0.813-3.954-0.465-4.277,1.649  C38.73,16.192,38.272,19.845,37.772,23.493z M13.797,23.439c0.155-0.063,0.311-0.126,0.466-0.188  c-0.442-3.321-0.972-6.634-1.301-9.966c-0.271-2.731-1.465-3.484-4.316-2.284C10.362,15.146,12.08,19.293,13.797,23.439z   M24.594,43.979c1.145,0,1.883,0,2.948,0c-0.593-0.76-0.984-1.262-1.478-1.896C25.572,42.719,25.181,43.222,24.594,43.979z"></path>
<image width="223" height="339" xlink:href="9.jpg" transform="matrix(0.75 0 0 0.75 842.2725 -18.1113)">
</image>
<image width="291" height="350" xlink:href="10.jpg" transform="matrix(0.75 0 0 0.75 1155.6865 -202.9219)">
</image>
<path fill="#FFFFFF" d="M-42.963,15.079l-1.412-1.233c-0.067-0.058-4.254-3.617-10.099-3.617c-3.263,0-6.452,1.098-9.479,3.263  l-1.245,0.891l-0.027-1.53c-0.035-1.997-0.009-11.994,4.035-12.604C-60.104,0.083-58.362,0-56.017,0  c3.762,0,7.937,0.215,8.358,0.237h0.016c1.216,0,4.099,1.264,4.6,12.968L-42.963,15.079z M-54.474,8.62  c4.408,0,7.893,1.779,9.73,2.971c-0.611-8.825-2.708-9.684-2.903-9.742l-0.063-0.003c-0.044-0.003-4.403-0.237-8.307-0.237  c-2.266,0-3.926,0.077-4.934,0.229c-1.731,0.261-2.552,5.373-2.659,9.495C-60.684,9.531-57.617,8.62-54.474,8.62z"></path>
<path fill="#FFFFFF" d="M-56.017,47.775c-2.346,0-4.087-0.083-5.174-0.247c-4.044-0.61-4.07-10.607-4.035-12.604l0.027-1.53  l1.245,0.891c3.027,2.165,6.217,3.263,9.479,3.263c5.887,0,10.057-3.581,10.098-3.617l1.413-1.233l-0.08,1.874  c-0.501,11.704-3.384,12.968-4.6,12.968h-0.019C-48.105,47.562-52.266,47.775-56.017,47.775z M-63.609,36.443  c0.109,4.122,0.93,9.233,2.659,9.494c1.008,0.152,2.668,0.229,4.934,0.229c3.904,0,8.263-0.234,8.307-0.237l0.063-0.003l0.012,0.001  c0.134-0.04,2.273-0.809,2.893-9.743c-1.838,1.191-5.322,2.971-9.73,2.971C-57.617,39.155-60.684,38.244-63.609,36.443z"></path>
<path fill="#FFFFFF" d="M-54.368,39.511c-8.51,0-15.434-6.904-15.434-15.391c0-8.487,6.924-15.393,15.434-15.393  s15.433,6.905,15.433,15.393C-38.936,32.606-45.858,39.511-54.368,39.511z M-54.368,10.336c-7.623,0-13.825,6.184-13.825,13.784  c0,7.6,6.202,13.782,13.825,13.782s13.824-6.183,13.824-13.782C-40.544,16.52-46.745,10.336-54.368,10.336z"></path>
<path fill="#FFFFFF" d="M-54.321,25.085l-6.223-3.716c-0.382-0.228-0.507-0.722-0.279-1.103c0.229-0.382,0.723-0.506,1.104-0.278  l5.304,3.166l7.477-5.535c0.357-0.263,0.86-0.189,1.126,0.168c0.264,0.357,0.188,0.861-0.168,1.126L-54.321,25.085z"></path>
<path fill="#FFFFFF" d="M-37.147,21.773h-1.084c-1.26,0-2.281,0.963-2.281,2.15v0.793c0,1.188,1.021,2.15,2.281,2.15h1.084  c1.26,0,2.281-0.963,2.281-2.15v-0.793C-34.866,22.736-35.888,21.773-37.147,21.773z M-36.258,24.521  c0,0.604-0.517,1.092-1.157,1.092h-0.55c-0.64,0-1.156-0.488-1.156-1.092v-0.4c0-0.604,0.517-1.092,1.156-1.092h0.55  c0.641,0,1.157,0.488,1.157,1.092V24.521z"></path>
<path fill-rule="evenodd" clip-rule="evenodd" fill="#FFFFFF" d="M23.77,43.382"></path>
<path fill="#FFFFFF" d="M112.758,26.461c-0.106,0-0.213-0.022-0.312-0.066l-21.103-9.292c-0.28-0.124-0.46-0.4-0.462-0.707  c-0.001-0.306,0.179-0.584,0.458-0.708l21.036-9.421c0.202-0.091,0.432-0.092,0.633-0.002l21.165,9.422  c0.279,0.125,0.46,0.402,0.46,0.708c-0.001,0.307-0.183,0.584-0.463,0.708l-21.102,9.292  C112.971,26.438,112.864,26.461,112.758,26.461z M93.564,16.388l19.193,8.452l19.188-8.45L112.694,7.82L93.564,16.388z"></path>
<path fill="#FFFFFF" d="M113.016,34.53c-0.105,0-0.211-0.021-0.31-0.065L89.088,24.141c-0.393-0.171-0.57-0.627-0.399-1.02  c0.171-0.392,0.628-0.57,1.02-0.398l23.305,10.187l22.788-10.186c0.393-0.174,0.85,0.001,1.023,0.392  c0.175,0.391,0,0.849-0.391,1.023l-23.102,10.324C113.231,34.508,113.124,34.53,113.016,34.53z"></path>
<path fill="#FFFFFF" d="M113.016,41.908c-0.105,0-0.211-0.022-0.31-0.065L89.088,31.518c-0.393-0.171-0.57-0.627-0.399-1.019  s0.628-0.572,1.02-0.399l23.305,10.188l22.788-10.185c0.393-0.175,0.85,0,1.023,0.391c0.175,0.39,0,0.848-0.391,1.022L113.332,41.84  C113.231,41.886,113.124,41.908,113.016,41.908z"></path>
<polygon fill="none" stroke="#FFFFFF" stroke-width="3" stroke-linecap="round" stroke-linejoin="round" stroke-miterlimit="10" points="  196.959,-193.207 237.709,-211.457 278.709,-193.207 237.834,-175.207 "></polygon>
<polyline fill="none" stroke="#FFFFFF" stroke-width="3" stroke-linecap="round" stroke-linejoin="round" stroke-miterlimit="10" points="  192.584,-179.574 238.334,-159.574 283.084,-179.574 "></polyline>
<polyline fill="none" stroke="#FFFFFF" stroke-width="3" stroke-linecap="round" stroke-linejoin="round" stroke-miterlimit="10" points="  192.584,-165.283 238.334,-145.283 283.084,-165.283 "></polyline>
</svg>