<svg xmlns="http://www.w3.org/2000/svg" xmlns:xlink="http://www.w3.org/1999/xlink" id="Layer_1" x="0px" y="0px" width="150px" height="150px" viewBox="0 0 150 150" xml:space="preserve">
<path fill-rule="evenodd" clip-rule="evenodd" fill="#1248F8" d="M74.579,112.927c-16.69,0-33.381,0.046-50.071-0.016  c-11.525-0.043-20.546-8.146-22.372-18.644C0.042,82.236,8.002,71.023,19.641,68.534c2.545-0.544,5.104-0.616,7.678-0.304  c0.545,0.066,0.924-0.062,1.273-0.522c4.377-5.764,10.125-9.394,17.215-10.812c1.783-0.357,3.631-0.401,5.454-0.534  c0.547-0.04,0.906-0.188,1.212-0.667c5.493-8.606,13.218-14.151,23.091-16.676c3.833-0.98,7.738-1.286,11.702-1.018  c8.976,0.605,16.714,4.057,23.331,10.067c4.257,3.866,7.311,8.583,9.385,13.933c0.235,0.607,0.497,0.821,1.172,0.765  c1.527-0.127,3.065-0.215,4.597-0.189c5.095,0.087,9.627,1.865,13.746,4.77c5.827,4.111,9.166,9.813,10.223,16.783  c2.03,13.396-7.103,25.742-20.277,28.311c-1.642,0.319-3.342,0.463-5.015,0.467C107.811,112.94,91.194,112.927,74.579,112.927z"></path>
<path fill-rule="evenodd" clip-rule="evenodd" fill="#1248F8" d="M9.085,48.183c0-2.48,0.019-4.96-0.014-7.439  c-0.008-0.632,0.206-0.795,0.81-0.789c1.852,0.017,1.815-0.007,1.863-1.836c0.043-1.678-0.03-3.397,0.313-5.022  c0.833-3.937,4.185-6.779,8.154-7.44c5.05-0.841,10.394,2.59,11.296,7.858c0.294,1.715,0.194,3.501,0.241,5.256  c0.032,1.195,0.006,1.195,1.221,1.196c1.458,0.001,1.458,0.001,1.458,1.451c0,4.141,0.019,8.283-0.014,12.423  c-0.007,1.059-0.079,2.136-0.287,3.17c-0.605,3.007-3.417,5.331-6.473,5.359c-3.868,0.036-7.737,0.037-11.605,0.001  c-3.426-0.032-6.151-2.351-6.797-5.724c-0.106-0.555-0.155-1.129-0.16-1.694C9.075,52.696,9.085,50.439,9.085,48.183z M21.7,39.966  c2.155,0,4.31-0.011,6.465,0.009c0.541,0.005,0.758-0.171,0.73-0.728c-0.071-1.408-0.193-2.821-0.137-4.226  c0.129-3.265-3.023-6.816-7.263-6.688c-3.292,0.1-6.237,2.588-6.813,5.821c-0.292,1.634-0.106,3.351-0.155,5.029  c-0.018,0.623,0.263,0.801,0.856,0.794C17.488,39.951,19.594,39.967,21.7,39.966z M21.688,57.228c0.743,0,1.486,0.004,2.229-0.001  c0.816-0.005,0.895-0.111,0.759-0.91c-0.235-1.386-0.455-2.774-0.694-4.159c-0.154-0.887-0.174-1.668,0.418-2.506  c0.691-0.977,0.562-2.137-0.141-3.129c-0.728-1.027-1.74-1.521-3.018-1.3c-2.272,0.393-3.307,2.885-1.995,4.792  c0.268,0.39,0.47,0.725,0.366,1.278c-0.329,1.744-0.524,3.513-0.832,5.262c-0.105,0.593,0.117,0.688,0.606,0.678  C20.153,57.216,20.921,57.228,21.688,57.228z"></path>
<image width="1501" height="1501" xlink:href="Net-easy/Cloud Security.png" transform="matrix(0.24 0 0 0.24 660.0762 -80.9976)">
</image>
</svg>