<svg xmlns="http://www.w3.org/2000/svg" xmlns:xlink="http://www.w3.org/1999/xlink" id="Layer_1" x="0px" y="0px" width="378.667px" height="157.334px" viewBox="68.167 -2.5 378.667 157.334" xml:space="preserve">
<path fill="#1248F8" d="M211.791,150.833c-32.215,0-64.426,0.087-96.633-0.033c-22.209-0.08-39.205-15.295-43.21-34.834  c-4.632-22.604,9.316-44.862,32.1-50.719c5.428-1.4,10.943-1.763,16.509-0.933c1.005,0.151,1.687-0.143,2.328-0.983  c8.478-11.146,19.584-18.208,33.312-20.953c3.407-0.681,6.934-0.792,10.409-1.02c1.238-0.082,1.996-0.466,2.668-1.517  c11.235-17.456,27.048-28.554,47.325-32.664c23.178-4.695,44.107,0.788,62.417,15.796c9.398,7.704,16.066,17.452,20.577,28.7  c0.911,2.266,0.893,2.243,3.294,1.982c6.391-0.7,12.774-0.593,18.937,1.337c18.438,5.78,30.535,17.782,34.924,36.815  c4.67,20.296-4.678,41.443-23.107,52.223c-6.725,3.942-13.968,6.216-21.778,6.577c-2.487,0.121-4.98,0.219-7.471,0.219  C273.522,150.838,242.655,150.833,211.791,150.833z"></path>
<path fill="none" stroke="#1248F8" stroke-width="2" stroke-miterlimit="10" d="M296.889,148.678  c-32.213,0-64.421,0.088-96.631-0.031c-22.208-0.077-39.206-15.298-43.21-34.834c-4.633-22.605,9.316-44.861,32.099-50.721  c5.427-1.399,10.943-1.762,16.513-0.931c1.006,0.15,1.687-0.146,2.326-0.983c8.477-11.148,19.581-18.209,33.313-20.954  c3.4-0.681,6.929-0.793,10.408-1.021c1.238-0.083,1.992-0.466,2.669-1.518c11.231-17.457,27.048-28.554,47.317-32.663  c37.553-7.607,47.664,3.698,62.425,15.795c9.394,7.703,16.062,17.454,20.577,28.702c0.907,2.266,0.886,2.24,3.293,1.98  c6.389-0.698,12.773-0.592,18.938,1.337c18.436,5.779,30.533,17.782,34.919,36.819c4.673,20.292-4.678,41.438-23.104,52.217  c-6.729,3.942-13.971,6.217-21.779,6.579c-2.489,0.121-4.98,0.222-7.472,0.222C358.618,148.681,327.758,148.678,296.889,148.678z"></path>
</svg>