<svg xmlns="http://www.w3.org/2000/svg" xmlns:xlink="http://www.w3.org/1999/xlink" id="Layer_1" x="0px" y="0px" width="200px" height="84.693px" viewBox="157 34.307 200 84.693" xml:space="preserve">
<path fill="#1248F8" d="M233.367,115.496c-16.857,0-33.712,0.045-50.564-0.018c-11.622-0.042-20.516-8.004-22.611-18.228  c-2.424-11.828,4.875-23.475,16.797-26.54c2.84-0.732,5.727-0.922,8.639-0.488c0.526,0.079,0.883-0.075,1.218-0.515  c4.437-5.832,10.248-9.527,17.432-10.964c1.782-0.356,3.628-0.415,5.446-0.534c0.648-0.043,1.045-0.244,1.396-0.794  c5.879-9.134,14.153-14.941,24.764-17.092c12.128-2.457,23.08,0.413,32.661,8.266c4.918,4.031,8.407,9.132,10.768,15.018  c0.477,1.186,0.467,1.173,1.724,1.037c3.344-0.366,6.685-0.311,9.909,0.7c9.647,3.024,15.978,9.305,18.274,19.264  c2.443,10.62-2.448,21.687-12.092,27.326c-3.519,2.063-7.309,3.253-11.396,3.442c-1.301,0.063-2.605,0.114-3.909,0.114  C265.669,115.498,249.518,115.496,233.367,115.496z"></path>
<path fill="none" stroke="#1248F8" stroke-width="2" stroke-miterlimit="10" d="M277.896,114.368  c-16.856,0-33.71,0.046-50.564-0.017c-11.621-0.04-20.516-8.005-22.61-18.228c-2.425-11.829,4.875-23.475,16.796-26.541  c2.84-0.732,5.727-0.922,8.641-0.487c0.526,0.079,0.883-0.076,1.218-0.515c4.436-5.833,10.246-9.528,17.432-10.964  c1.779-0.356,3.626-0.415,5.446-0.534c0.648-0.043,1.043-0.244,1.396-0.794c5.877-9.134,14.153-14.941,24.761-17.091  c19.649-3.981,24.94,1.935,32.664,8.265c4.916,4.031,8.405,9.133,10.768,15.019c0.475,1.186,0.464,1.172,1.723,1.036  c3.344-0.365,6.685-0.31,9.91,0.7c9.647,3.024,15.978,9.305,18.272,19.267c2.445,10.618-2.448,21.684-12.09,27.323  c-3.521,2.063-7.311,3.253-11.396,3.442c-1.303,0.063-2.606,0.116-3.91,0.116C310.197,114.37,294.049,114.368,277.896,114.368z"></path>
</svg>