<svg xmlns="http://www.w3.org/2000/svg" xmlns:xlink="http://www.w3.org/1999/xlink" id="Layer_1" x="0px" y="0px" width="40px" height="41px" viewBox="0 0 40 41" xml:space="preserve">
<path fill-rule="evenodd" clip-rule="evenodd" fill="#1248F8" d="M19.657,30.91c-4.353,0-8.704,0.012-13.057-0.004  c-3.007-0.012-5.357-2.125-5.835-4.859c-0.528-3.025,1.391-5.918,4.374-6.669c0.723-0.183,1.454-0.213,2.19-0.122  c0.142,0.017,0.241-0.015,0.333-0.135c1.141-1.504,2.64-2.449,4.488-2.82c0.445-0.09,0.907-0.111,1.363-0.137  c0.188-0.012,0.302-0.061,0.407-0.224c1.561-2.409,3.762-3.901,6.574-4.427c4.684-0.875,9.317,1.705,11.004,6.135  c0.055,0.144,0.117,0.195,0.278,0.183c0.405-0.031,0.813-0.056,1.218-0.05c1.329,0.023,2.511,0.486,3.585,1.243  c1.52,1.071,2.391,2.558,2.667,4.375c0.532,3.502-1.865,6.68-5.174,7.354c-0.477,0.098-0.972,0.15-1.458,0.152  C28.296,30.914,23.977,30.91,19.657,30.91z"></path>
<path fill-rule="evenodd" clip-rule="evenodd" fill="#1248F8" d="M2.578,14.028c0-0.646,0.005-1.294-0.004-1.94  c-0.002-0.164,0.054-0.207,0.211-0.205c0.483,0.004,0.474-0.002,0.486-0.479c0.011-0.438-0.009-0.887,0.081-1.311  C3.57,9.067,4.444,8.326,5.479,8.154c1.317-0.219,2.711,0.676,2.946,2.049c0.076,0.447,0.05,0.914,0.063,1.371  c0.008,0.312,0.002,0.312,0.318,0.313c0.38,0,0.38,0,0.38,0.377c0,1.08,0.005,2.16-0.003,3.24c-0.002,0.275-0.021,0.557-0.075,0.826  c-0.158,0.784-0.891,1.391-1.688,1.397c-1.009,0.009-2.018,0.01-3.026,0.001C3.5,17.719,2.79,17.115,2.621,16.235  c-0.027-0.145-0.04-0.294-0.041-0.442C2.575,15.205,2.578,14.617,2.578,14.028z M5.867,11.885c0.562,0,1.124-0.003,1.686,0.003  c0.142,0,0.197-0.045,0.19-0.19c-0.019-0.367-0.051-0.735-0.036-1.103c0.034-0.851-0.788-1.777-1.894-1.743  c-0.858,0.026-1.626,0.675-1.776,1.519c-0.076,0.426-0.027,0.873-0.04,1.311c-0.005,0.162,0.068,0.209,0.223,0.207  C4.769,11.881,5.318,11.885,5.867,11.885z M5.864,16.386c0.193,0,0.387,0.002,0.581,0c0.213-0.002,0.233-0.029,0.197-0.237  c-0.062-0.361-0.118-0.724-0.181-1.085c-0.04-0.23-0.046-0.436,0.109-0.653c0.18-0.255,0.146-0.558-0.037-0.815  c-0.189-0.269-0.454-0.396-0.787-0.34c-0.593,0.104-0.862,0.753-0.52,1.25c0.069,0.102,0.122,0.189,0.095,0.333  c-0.086,0.455-0.137,0.916-0.217,1.372c-0.027,0.154,0.03,0.18,0.158,0.177C5.464,16.383,5.664,16.386,5.864,16.386z"></path>
<rect x="84.333" y="-1.667" fill="none" width="40" height="41"></rect>
<rect x="-50.667" y="-5" fill-rule="evenodd" clip-rule="evenodd" fill="#1248F8" width="14.667" height="19.167"></rect>
</svg>