<svg xmlns="http://www.w3.org/2000/svg" xmlns:xlink="http://www.w3.org/1999/xlink" id="Layer_1" x="0px" y="0px" width="150px" height="150px" viewBox="0 0 150 150" xml:space="preserve">
<path fill-rule="evenodd" clip-rule="evenodd" fill="#1248F8" d="M76.185,115.906c-16.144,0-32.288,0.067-48.431-0.027  c-8.273-0.047-14.564-3.834-18.831-10.903c-2.234-3.701-3.134-7.794-2.813-12.072c0.81-10.81,8.876-18.165,17.586-19.779  c2.392-0.443,4.779-0.539,7.178-0.184c0.525,0.078,0.732-0.208,0.979-0.535c3.149-4.154,7.157-7.177,12.001-9.091  c2.886-1.14,5.881-1.773,8.989-1.76c1.093,0.005,1.783-0.325,2.433-1.303c5.757-8.659,13.767-14.087,24.005-15.88  c12.686-2.221,23.678,1.384,32.843,10.407c3.409,3.357,5.84,7.402,7.635,11.833c0.434,1.074,0.169,1.168,1.605,0.987  c11.813-1.488,23.85,6.09,26.762,18.611c3.116,13.399-5.604,26.743-19.186,29.264c-1.442,0.268-2.93,0.412-4.396,0.416  C108.424,115.918,92.304,115.906,76.185,115.906z"></path>
<path fill-rule="evenodd" clip-rule="evenodd" fill="#1248F8" d="M53.346,47.237c-0.479-0.186-0.957-0.378-1.439-0.557  c-4.267-1.576-8.531-3.161-12.807-4.711c-0.585-0.212-0.841-0.485-0.786-1.123c0.058-0.685,0.013-1.377,0.013-2.15  c0.313,0.089,0.562,0.138,0.794,0.229c5.698,2.241,11.39,4.498,17.096,6.718c0.622,0.242,0.802,0.562,0.788,1.206  c-0.043,1.92-0.017,1.916-1.83,2.631c-5.365,2.113-10.728,4.231-16.091,6.345c-0.214,0.084-0.438,0.148-0.752,0.254  c0-0.967-0.04-1.846,0.03-2.715c0.016-0.197,0.387-0.44,0.641-0.534c4.309-1.603,8.625-3.184,12.939-4.774  c0.481-0.178,0.951-0.388,1.427-0.583C53.36,47.395,53.353,47.315,53.346,47.237z"></path>
<path fill-rule="evenodd" clip-rule="evenodd" fill="#1248F8" d="M19.885,56.09c-1.653-0.643-3.181-1.229-4.704-1.829  c-4.343-1.711-8.679-3.437-13.029-5.128c-0.619-0.24-0.877-0.541-0.86-1.238c0.048-1.932,0.01-1.94,1.817-2.654  c5.337-2.107,10.677-4.208,16.017-6.309c0.215-0.084,0.44-0.143,0.75-0.242c0,0.958,0.047,1.837-0.034,2.705  c-0.019,0.209-0.431,0.452-0.708,0.555c-4.417,1.646-8.843,3.269-13.266,4.901c-0.327,0.121-0.644,0.264-1.16,0.476  c0.402,0.208,0.624,0.353,0.867,0.443c4.532,1.679,9.062,3.363,13.605,5.013c0.544,0.197,0.755,0.449,0.716,1.024  C19.848,54.517,19.885,55.232,19.885,56.09z"></path>
<path fill-rule="evenodd" clip-rule="evenodd" fill="#1248F8" d="M22.05,68.793c0.146-0.542,0.252-0.996,0.388-1.44  c3.615-11.808,7.241-23.611,10.828-35.427c0.243-0.8,0.543-1.189,1.407-1.051c0.415,0.066,0.849,0.011,1.395,0.011  c-0.309,1.037-0.585,1.984-0.874,2.928c-3.467,11.33-6.947,22.656-10.383,33.995c-0.243,0.8-0.583,1.1-1.384,0.994  C23.011,68.748,22.581,68.793,22.05,68.793z"></path>
<image width="1500" height="1500" xlink:href="Net-easy/Cloud Development.png" transform="matrix(0.24 0 0 0.24 717.082 -77.9976)">
</image>
</svg>