<svg xmlns="http://www.w3.org/2000/svg" xmlns:xlink="http://www.w3.org/1999/xlink" id="Layer_1" x="0px" y="0px" width="40px" height="41px" viewBox="0 0 40 41" xml:space="preserve">
<path fill-rule="evenodd" clip-rule="evenodd" fill="#1248F8" d="M22.106,29.892c-3.738,0-7.476,0.011-11.214-0.003  c-2.577-0.01-4.55-1.775-5.015-4.043c-0.537-2.622,1.081-5.205,3.725-5.886c0.63-0.162,1.271-0.204,1.916-0.107  c0.117,0.018,0.196-0.018,0.271-0.115c0.983-1.293,2.272-2.112,3.865-2.431c0.396-0.079,0.805-0.093,1.208-0.119  c0.144-0.009,0.231-0.054,0.311-0.176c1.303-2.025,3.138-3.313,5.491-3.79c2.689-0.545,5.118,0.091,7.243,1.833  c1.091,0.894,1.864,2.025,2.388,3.33c0.105,0.263,0.104,0.261,0.382,0.23c0.742-0.081,1.482-0.069,2.198,0.155  c2.14,0.67,3.543,2.063,4.052,4.271c0.543,2.355-0.543,4.81-2.681,6.061c-0.781,0.457-1.622,0.721-2.528,0.763  c-0.288,0.014-0.577,0.025-0.866,0.025C29.27,29.893,25.688,29.892,22.106,29.892z"></path>
<path fill-rule="evenodd" clip-rule="evenodd" fill="#1248F8" d="M4.381,17.675c-0.083,0.025-0.164,0.044-0.24,0.073  c-0.274,0.105-0.55,0.21-0.821,0.322c-0.122,0.051-0.206,0.009-0.273-0.085c-0.22-0.309-0.436-0.619-0.654-0.929  c-0.098-0.139-0.086-0.271,0.024-0.395c0.152-0.171,0.301-0.345,0.462-0.506c0.191-0.19,0.262-0.402,0.182-0.666  c-0.057-0.186-0.098-0.376-0.141-0.565c-0.048-0.208-0.166-0.343-0.372-0.409c-0.228-0.073-0.452-0.156-0.674-0.245  c-0.216-0.086-0.273-0.206-0.238-0.434c0.05-0.318,0.089-0.638,0.146-0.955c0.053-0.298,0.126-0.357,0.432-0.376  c0.239-0.015,0.478-0.029,0.717-0.034c0.147-0.002,0.255-0.058,0.332-0.183c0.142-0.227,0.286-0.452,0.432-0.676  c0.105-0.163,0.118-0.326,0.031-0.503c-0.1-0.205-0.19-0.415-0.277-0.625c-0.12-0.293-0.086-0.412,0.171-0.599  C3.874,9.7,4.131,9.514,4.395,9.338c0.188-0.125,0.297-0.115,0.468,0.034c0.194,0.167,0.38,0.344,0.568,0.517  c0.122,0.112,0.251,0.166,0.426,0.116c0.218-0.062,0.443-0.1,0.666-0.146c0.227-0.047,0.375-0.178,0.446-0.401  C7.04,9.235,7.115,9.014,7.198,8.796c0.075-0.198,0.188-0.261,0.388-0.231c0.352,0.052,0.702,0.107,1.053,0.163  c0.212,0.034,0.298,0.129,0.311,0.347c0.015,0.244,0.026,0.488,0.034,0.733C8.99,10.026,9.082,10.19,9.272,10.3  c0.188,0.108,0.378,0.215,0.563,0.329c0.172,0.107,0.342,0.11,0.521,0.022c0.205-0.101,0.41-0.199,0.62-0.289  c0.236-0.101,0.337-0.08,0.493,0.12c0.205,0.263,0.404,0.532,0.595,0.806c0.149,0.215,0.136,0.341-0.036,0.54  c-0.156,0.181-0.314,0.361-0.478,0.536c-0.131,0.139-0.165,0.295-0.122,0.477c0.058,0.248,0.114,0.497,0.171,0.746  c0.029,0.131,0.105,0.213,0.231,0.261c0.239,0.089,0.477,0.185,0.714,0.279c0.279,0.112,0.36,0.253,0.31,0.547  c-0.047,0.273-0.099,0.546-0.152,0.818c-0.074,0.369-0.134,0.416-0.509,0.431c-0.239,0.009-0.48,0.002-0.715,0.041  c-0.111,0.018-0.236,0.104-0.305,0.196c-0.139,0.187-0.24,0.399-0.36,0.6c-0.113,0.188-0.113,0.375-0.017,0.571  c0.104,0.209,0.202,0.421,0.289,0.638c0.092,0.226,0.063,0.317-0.128,0.461c-0.254,0.191-0.508,0.381-0.769,0.563  c-0.27,0.188-0.395,0.173-0.628-0.053c-0.148-0.143-0.296-0.287-0.446-0.428c-0.155-0.146-0.339-0.182-0.542-0.129  c-0.215,0.055-0.428,0.117-0.645,0.166c-0.207,0.047-0.323,0.171-0.388,0.369c-0.077,0.237-0.166,0.472-0.262,0.702  c-0.071,0.175-0.191,0.236-0.373,0.209c-0.346-0.052-0.691-0.105-1.036-0.163c-0.221-0.037-0.289-0.106-0.309-0.324  c-0.026-0.288-0.023-0.579-0.068-0.863c-0.019-0.117-0.104-0.252-0.201-0.323C5.082,18,4.849,17.878,4.62,17.751  C4.55,17.712,4.465,17.7,4.381,17.675z M9.576,14.201c0.001-1.286-1.05-2.346-2.325-2.347c-1.274-0.001-2.352,1.063-2.342,2.337  c0.01,1.364,1.028,2.338,2.355,2.341C8.679,16.534,9.586,15.37,9.576,14.201z"></path>
<path fill-rule="evenodd" clip-rule="evenodd" fill="#1248F8" d="M16.524,15.112c-0.057-0.037-0.137-0.073-0.195-0.132  c-0.053-0.053-0.096-0.126-0.121-0.197c-0.154-0.429-0.904-0.551-1.215-0.078c-0.181,0.277-0.238,0.28-0.533,0.126  c-0.123-0.064-0.246-0.13-0.364-0.201s-0.173-0.172-0.117-0.312c0.004-0.01,0.004-0.022,0.009-0.032  c0.201-0.396,0.059-0.712-0.223-1.005c-0.091-0.096-0.182-0.135-0.308-0.12c-0.094,0.011-0.188,0.019-0.282,0.021  c-0.284,0.006-0.312-0.012-0.388-0.278c-0.041-0.144-0.063-0.293-0.111-0.435c-0.045-0.134,0.01-0.216,0.111-0.281  c0.074-0.048,0.151-0.1,0.234-0.126c0.447-0.14,0.474-0.882,0.139-1.133c-0.066-0.05-0.134-0.1-0.202-0.148  c-0.106-0.076-0.14-0.17-0.076-0.289c0.092-0.172,0.18-0.345,0.278-0.513c0.069-0.117,0.173-0.166,0.312-0.12  c0.084,0.028,0.171,0.049,0.256,0.075c0.451,0.135,0.938-0.271,0.881-0.739c-0.058-0.467-0.059-0.416,0.364-0.542  C15.49,8.497,15.49,8.5,15.754,8.967c0.188,0.332,0.751,0.412,1.029,0.145c0.028-0.027,0.057-0.055,0.077-0.087  c0.207-0.325,0.269-0.346,0.651-0.135c0.01,0.005,0.02,0.009,0.029,0.015c0.504,0.275,0.444,0.275,0.302,0.715  c-0.146,0.45,0.26,0.922,0.727,0.853c0.065-0.01,0.132-0.014,0.198-0.023c0.124-0.019,0.23,0.018,0.275,0.135  c0.076,0.202,0.15,0.407,0.19,0.618c0.014,0.074-0.061,0.188-0.127,0.247c-0.085,0.075-0.2,0.117-0.306,0.167  c-0.152,0.071-0.232,0.175-0.268,0.35c-0.073,0.368-0.005,0.655,0.339,0.856c0.178,0.104,0.202,0.243,0.105,0.426  c-0.07,0.133-0.141,0.266-0.216,0.396c-0.1,0.17-0.229,0.211-0.41,0.139c-0.418-0.168-0.674-0.114-0.952,0.238  c-0.071,0.09-0.112,0.234-0.105,0.35c0.035,0.622,0.057,0.5-0.413,0.65C16.775,15.055,16.666,15.076,16.524,15.112z M17.332,11.853  c0.001-0.865-0.606-1.384-1.412-1.407c-0.722-0.021-1.341,0.631-1.359,1.363c-0.022,0.885,0.715,1.421,1.363,1.429  C16.699,13.248,17.331,12.619,17.332,11.853z"></path>
<path fill-rule="evenodd" clip-rule="evenodd" fill="#1248F8" d="M1.36,22.437c-0.103-0.027-0.259-0.024-0.297-0.089  c-0.08-0.139-0.125-0.312-0.129-0.472c-0.001-0.067,0.13-0.15,0.215-0.204c0.244-0.154,0.336-0.425,0.198-0.656  c-0.044-0.073-0.115-0.135-0.186-0.187c-0.124-0.091-0.154-0.194-0.08-0.331c0.032-0.058,0.061-0.119,0.084-0.181  c0.063-0.165,0.168-0.213,0.341-0.153c0.167,0.058,0.339,0.057,0.498-0.041c0.182-0.113,0.244-0.24,0.203-0.448  c-0.022-0.12-0.047-0.261,0.073-0.314c0.156-0.071,0.334-0.102,0.506-0.123c0.037-0.005,0.097,0.097,0.131,0.157  c0.212,0.371,0.575,0.414,0.858,0.098c0.161-0.181,0.212-0.188,0.428-0.07c0.039,0.021,0.076,0.047,0.116,0.066  c0.151,0.074,0.214,0.178,0.146,0.35c-0.07,0.18-0.027,0.351,0.076,0.507c0.088,0.134,0.206,0.183,0.37,0.165  c0.114-0.012,0.296-0.017,0.336,0.047c0.091,0.142,0.124,0.325,0.152,0.497c0.007,0.042-0.092,0.115-0.154,0.152  c-0.38,0.226-0.423,0.556-0.109,0.871c0.17,0.171,0.175,0.201,0.058,0.417c-0.028,0.054-0.065,0.104-0.095,0.157  c-0.059,0.108-0.143,0.147-0.264,0.108c-0.053-0.017-0.108-0.021-0.163-0.03c-0.347-0.055-0.612,0.212-0.556,0.557  c0.041,0.252,0.032,0.267-0.209,0.346c-0.026,0.009-0.054,0.014-0.08,0.022c-0.281,0.09-0.281,0.09-0.435-0.155  c-0.16-0.256-0.42-0.36-0.633-0.239c-0.1,0.058-0.189,0.14-0.268,0.225c-0.088,0.095-0.176,0.102-0.281,0.044  c-0.063-0.034-0.127-0.068-0.191-0.101c-0.139-0.068-0.191-0.161-0.14-0.323c0.03-0.094,0.031-0.212,0.004-0.307  C1.808,22.535,1.712,22.361,1.36,22.437z M4.097,21.461c0.001-0.552-0.394-0.96-0.931-0.961c-0.532-0.001-0.989,0.436-0.989,0.945  c0,0.55,0.427,0.975,0.987,0.982C3.688,22.436,4.095,22.013,4.097,21.461z"></path>
</svg>