<svg xmlns="http://www.w3.org/2000/svg" width="40.000000pt" height="41.000000pt" viewBox="0 0 40.000000 41.000000" preserveAspectRatio="xMidYMid meet"><metadata>
Created by potrace 1.16, written by Peter Selinger 2001-2019
</metadata><g transform="translate(0.000000,41.000000) scale(0.100000,-0.100000)" fill="#000000" stroke="none"><path d="M36 308 c-3 -13 -6 -35 -6 -50 0 -24 4 -28 28 -29 20 -1 22 -2 7 -6 -52 -13 -73 -73 -37 -106 16 -14 44 -17 179 -17 142 0 162 2 176 18 34 38 8 122 -37 122 -8 0 -28 14 -44 30 -39 39 -97 41 -139 7 -51 -42 -62 -41 -65 6 -3 37 -6 42 -29 45 -20 2 -28 -2 -33 -20z"></path></g></svg>