<svg xmlns="http://www.w3.org/2000/svg" xmlns:xlink="http://www.w3.org/1999/xlink" id="Layer_1" x="0px" y="0px" width="40px" height="41px" viewBox="0 0 40 41" xml:space="preserve">
<path fill-rule="evenodd" clip-rule="evenodd" fill="#1248F8" d="M20.303,30.209c-4.23,0-8.462,0.017-12.692-0.008  c-2.169-0.013-3.817-1.005-4.936-2.857c-0.586-0.97-0.821-2.043-0.737-3.164c0.212-2.833,2.326-4.761,4.608-5.184  c0.627-0.116,1.253-0.141,1.882-0.048c0.138,0.021,0.191-0.054,0.257-0.14c0.825-1.088,1.875-1.881,3.146-2.382  c0.756-0.299,1.541-0.465,2.355-0.461c0.286,0.001,0.468-0.085,0.638-0.342c1.509-2.27,3.608-3.692,6.291-4.162  c3.325-0.582,6.206,0.363,8.608,2.728c0.894,0.88,1.53,1.94,2.001,3.101c0.113,0.282,0.044,0.306,0.421,0.259  c3.096-0.39,6.25,1.596,7.014,4.878c0.817,3.511-1.469,7.009-5.028,7.669c-0.378,0.07-0.768,0.108-1.152,0.109  C28.753,30.211,24.528,30.209,20.303,30.209z"></path>
<path fill-rule="evenodd" clip-rule="evenodd" fill="#1248F8" d="M14.317,12.211c-0.126-0.049-0.251-0.099-0.377-0.146  c-1.119-0.413-2.236-0.829-3.356-1.235c-0.154-0.056-0.221-0.127-0.207-0.294c0.016-0.18,0.004-0.361,0.004-0.563  c0.082,0.023,0.147,0.036,0.208,0.06c1.493,0.588,2.985,1.179,4.48,1.761c0.163,0.063,0.21,0.147,0.207,0.316  c-0.012,0.503-0.005,0.502-0.48,0.689c-1.405,0.554-2.812,1.109-4.217,1.663c-0.057,0.022-0.115,0.039-0.197,0.066  c0-0.253-0.011-0.483,0.008-0.711c0.004-0.052,0.102-0.115,0.168-0.14c1.13-0.42,2.261-0.834,3.392-1.251  c0.126-0.047,0.249-0.102,0.374-0.153C14.321,12.252,14.319,12.231,14.317,12.211z"></path>
<path fill-rule="evenodd" clip-rule="evenodd" fill="#1248F8" d="M5.548,14.531c-0.434-0.168-0.834-0.322-1.233-0.479  C3.177,13.604,2.04,13.151,0.9,12.708c-0.162-0.063-0.23-0.142-0.226-0.325c0.013-0.506,0.003-0.508,0.477-0.695  c1.398-0.552,2.798-1.103,4.197-1.653c0.057-0.022,0.115-0.038,0.197-0.063c0,0.251,0.012,0.481-0.009,0.709  c-0.005,0.055-0.113,0.118-0.186,0.146c-1.158,0.431-2.318,0.856-3.478,1.284c-0.085,0.032-0.169,0.069-0.304,0.125  c0.105,0.054,0.163,0.092,0.228,0.116c1.188,0.44,2.375,0.881,3.565,1.314c0.143,0.052,0.198,0.118,0.188,0.268  C5.538,14.119,5.548,14.307,5.548,14.531z"></path>
<path fill-rule="evenodd" clip-rule="evenodd" fill="#1248F8" d="M6.115,17.86c0.038-0.142,0.066-0.261,0.102-0.377  c0.947-3.095,1.898-6.188,2.838-9.285c0.063-0.209,0.143-0.312,0.369-0.275c0.108,0.017,0.222,0.003,0.365,0.003  c-0.081,0.272-0.153,0.52-0.229,0.768c-0.909,2.969-1.821,5.938-2.722,8.91c-0.063,0.21-0.153,0.288-0.362,0.261  C6.367,17.849,6.254,17.86,6.115,17.86z"></path>
<rect x="49.501" y="7.915" fill-rule="evenodd" clip-rule="evenodd" fill="#1248F8" width="14.666" height="19.166"></rect>
</svg>