<svg xmlns="http://www.w3.org/2000/svg" xmlns:xlink="http://www.w3.org/1999/xlink" id="Layer_1" x="0px" y="0px" width="150px" height="150px" viewBox="0 0 150 150" xml:space="preserve">
<path fill-rule="evenodd" clip-rule="evenodd" fill="#1248F8" d="M83.4,116.398c-14.384,0-28.767,0.04-43.149-0.013  c-9.917-0.036-17.507-6.83-19.295-15.555c-2.069-10.094,4.16-20.032,14.333-22.649c2.424-0.624,4.887-0.786,7.373-0.415  c0.45,0.067,0.753-0.065,1.039-0.44c3.786-4.977,8.744-8.13,14.875-9.356c1.52-0.304,3.095-0.354,4.649-0.456  c0.552-0.036,0.89-0.208,1.191-0.677c5.016-7.795,12.077-12.75,21.131-14.585c10.35-2.097,19.696,0.352,27.872,7.053  c4.196,3.44,7.174,7.793,9.189,12.816c0.406,1.012,0.397,1.001,1.47,0.885c2.854-0.312,5.704-0.265,8.457,0.597  c8.233,2.581,13.635,7.94,15.593,16.44c2.087,9.063-2.089,18.505-10.317,23.319c-3.005,1.759-6.238,2.775-9.726,2.937  c-1.111,0.052-2.224,0.097-3.336,0.098C110.965,116.401,97.183,116.398,83.4,116.398z"></path>
<path fill-rule="evenodd" clip-rule="evenodd" fill="#1248F8" d="M15.194,69.389c-0.322,0.097-0.631,0.168-0.925,0.281  c-1.057,0.404-2.115,0.808-3.159,1.241c-0.471,0.195-0.796,0.032-1.054-0.33C9.211,69.396,8.379,68.2,7.54,67.009  c-0.376-0.533-0.333-1.043,0.094-1.52c0.585-0.655,1.157-1.324,1.777-1.944c0.734-0.734,1.007-1.549,0.698-2.566  c-0.216-0.714-0.375-1.446-0.542-2.174c-0.183-0.799-0.636-1.319-1.431-1.576c-0.875-0.282-1.739-0.6-2.592-0.94  c-0.83-0.331-1.052-0.792-0.916-1.67c0.191-1.224,0.343-2.454,0.559-3.672c0.203-1.146,0.487-1.373,1.663-1.446  c0.918-0.058,1.837-0.112,2.756-0.129c0.568-0.011,0.98-0.224,1.279-0.704c0.545-0.872,1.099-1.737,1.658-2.6  c0.406-0.626,0.455-1.253,0.123-1.938c-0.383-0.789-0.733-1.594-1.067-2.405c-0.464-1.128-0.333-1.583,0.657-2.304  c0.986-0.719,1.976-1.436,2.993-2.111c0.724-0.482,1.139-0.441,1.8,0.131c0.745,0.644,1.46,1.323,2.187,1.989  c0.47,0.431,0.965,0.639,1.636,0.448c0.84-0.24,1.708-0.384,2.564-0.564c0.873-0.184,1.444-0.686,1.719-1.545  c0.274-0.854,0.561-1.706,0.881-2.544c0.291-0.763,0.72-1.006,1.494-0.891c1.351,0.201,2.7,0.413,4.049,0.628  c0.814,0.13,1.146,0.497,1.195,1.333c0.056,0.939,0.103,1.88,0.131,2.82c0.026,0.843,0.379,1.473,1.114,1.894  c0.725,0.415,1.452,0.827,2.162,1.266c0.663,0.41,1.316,0.423,2.008,0.085c0.788-0.386,1.58-0.766,2.386-1.112  c0.909-0.39,1.297-0.306,1.897,0.463c0.79,1.013,1.556,2.046,2.29,3.1c0.575,0.826,0.523,1.312-0.138,2.078  c-0.602,0.698-1.211,1.39-1.84,2.062c-0.501,0.534-0.633,1.137-0.47,1.833c0.225,0.956,0.443,1.914,0.659,2.872  c0.113,0.502,0.406,0.821,0.893,1.002c0.92,0.344,1.833,0.711,2.747,1.078c1.073,0.429,1.387,0.969,1.192,2.104  c-0.181,1.052-0.381,2.102-0.589,3.148c-0.283,1.419-0.512,1.601-1.957,1.655c-0.919,0.036-1.85,0.011-2.751,0.158  c-0.428,0.07-0.91,0.399-1.173,0.755c-0.532,0.718-0.924,1.54-1.387,2.31c-0.437,0.725-0.436,1.442-0.063,2.198  c0.398,0.805,0.779,1.62,1.115,2.452c0.351,0.869,0.241,1.221-0.496,1.776c-0.975,0.734-1.953,1.466-2.955,2.164  c-1.039,0.724-1.52,0.665-2.419-0.203c-0.57-0.551-1.138-1.104-1.714-1.648c-0.597-0.563-1.304-0.698-2.085-0.497  c-0.827,0.213-1.648,0.453-2.481,0.641c-0.796,0.179-1.244,0.657-1.492,1.419c-0.298,0.914-0.639,1.816-1.006,2.704  c-0.277,0.671-0.739,0.907-1.436,0.803c-1.33-0.2-2.66-0.404-3.986-0.628c-0.849-0.142-1.114-0.408-1.19-1.247  c-0.101-1.106-0.09-2.227-0.262-3.32c-0.071-0.452-0.403-0.97-0.775-1.244c-0.806-0.595-1.705-1.065-2.585-1.554  C15.844,69.53,15.515,69.487,15.194,69.389z M35.187,56.022c0-4.949-4.04-9.028-8.948-9.032c-4.905-0.003-9.049,4.093-9.014,8.993  c0.038,5.252,3.957,8.998,9.065,9.006C31.732,64.999,35.222,60.52,35.187,56.022z"></path>
<path fill-rule="evenodd" clip-rule="evenodd" fill="#1248F8" d="M61.921,59.526c-0.218-0.142-0.526-0.281-0.75-0.505  c-0.206-0.206-0.368-0.484-0.468-0.761c-0.595-1.649-3.48-2.12-4.673-0.299c-0.697,1.064-0.917,1.076-2.051,0.484  c-0.474-0.248-0.947-0.5-1.404-0.776c-0.453-0.273-0.664-0.661-0.449-1.196c0.016-0.04,0.014-0.087,0.033-0.124  c0.774-1.526,0.228-2.74-0.855-3.871c-0.352-0.367-0.702-0.519-1.185-0.461c-0.36,0.043-0.724,0.072-1.085,0.081  c-1.094,0.025-1.198-0.046-1.492-1.07c-0.159-0.555-0.247-1.131-0.43-1.675c-0.173-0.514,0.04-0.83,0.428-1.082  c0.286-0.186,0.583-0.383,0.903-0.484c1.722-0.539,1.821-3.393,0.534-4.362c-0.257-0.193-0.515-0.384-0.777-0.57  c-0.41-0.289-0.538-0.653-0.295-1.11c0.352-0.661,0.693-1.33,1.072-1.975c0.265-0.45,0.666-0.64,1.199-0.462  c0.324,0.108,0.657,0.188,0.985,0.286c1.735,0.521,3.611-1.042,3.389-2.844c-0.221-1.798-0.226-1.601,1.399-2.085  c1.992-0.592,1.995-0.583,3.009,1.215c0.721,1.278,2.888,1.585,3.96,0.56c0.108-0.104,0.218-0.211,0.298-0.336  c0.795-1.25,1.032-1.331,2.503-0.52c0.038,0.021,0.078,0.036,0.115,0.057c1.938,1.059,1.707,1.059,1.159,2.752  c-0.561,1.732,1.002,3.548,2.795,3.283c0.254-0.038,0.511-0.054,0.765-0.091c0.478-0.072,0.889,0.07,1.06,0.521  c0.293,0.776,0.581,1.567,0.732,2.377c0.053,0.284-0.232,0.722-0.488,0.95c-0.326,0.29-0.77,0.453-1.176,0.642  c-0.585,0.272-0.894,0.672-1.027,1.347c-0.283,1.417-0.02,2.522,1.302,3.293c0.685,0.399,0.777,0.936,0.407,1.642  c-0.269,0.512-0.54,1.023-0.832,1.521c-0.382,0.654-0.879,0.813-1.579,0.532c-1.608-0.646-2.591-0.438-3.664,0.917  c-0.274,0.346-0.43,0.901-0.405,1.348c0.134,2.393,0.217,1.921-1.59,2.501C62.888,59.304,62.468,59.388,61.921,59.526z   M65.029,46.983c0.006-3.328-2.332-5.323-5.433-5.415c-2.779-0.082-5.159,2.43-5.231,5.247c-0.088,3.404,2.75,5.468,5.247,5.5  C62.593,52.352,65.027,49.933,65.029,46.983z"></path>
<path fill-rule="evenodd" clip-rule="evenodd" fill="#1248F8" d="M3.572,87.711c-0.396-0.106-0.998-0.093-1.144-0.344  c-0.308-0.532-0.479-1.198-0.495-1.815c-0.006-0.257,0.497-0.578,0.823-0.783c0.942-0.593,1.296-1.635,0.765-2.524  c-0.168-0.281-0.444-0.52-0.714-0.718c-0.477-0.352-0.594-0.75-0.307-1.272c0.123-0.226,0.231-0.46,0.323-0.698  c0.245-0.636,0.647-0.818,1.312-0.59c0.641,0.222,1.302,0.22,1.915-0.158c0.702-0.433,0.94-0.922,0.785-1.723  c-0.09-0.462-0.182-1.004,0.279-1.212c0.601-0.272,1.286-0.389,1.947-0.472c0.143-0.018,0.371,0.372,0.505,0.605  c0.816,1.427,2.21,1.59,3.3,0.374c0.623-0.694,0.818-0.726,1.648-0.27c0.15,0.083,0.293,0.179,0.447,0.254  c0.584,0.285,0.824,0.685,0.564,1.347c-0.271,0.689-0.104,1.347,0.293,1.951c0.339,0.515,0.792,0.701,1.425,0.634  c0.437-0.046,1.137-0.063,1.292,0.18c0.348,0.545,0.479,1.252,0.584,1.912c0.026,0.163-0.351,0.444-0.592,0.587  c-1.46,0.869-1.627,2.138-0.419,3.354c0.654,0.657,0.672,0.774,0.222,1.604c-0.113,0.208-0.251,0.399-0.365,0.605  c-0.228,0.416-0.551,0.565-1.015,0.417c-0.202-0.064-0.418-0.086-0.629-0.118c-1.331-0.209-2.354,0.816-2.138,2.141  c0.159,0.97,0.126,1.025-0.803,1.33c-0.102,0.034-0.207,0.056-0.309,0.089c-1.081,0.346-1.081,0.346-1.672-0.597  c-0.616-0.984-1.618-1.387-2.436-0.92c-0.383,0.219-0.728,0.534-1.03,0.86c-0.339,0.367-0.675,0.392-1.08,0.171  c-0.245-0.134-0.49-0.263-0.739-0.387c-0.533-0.264-0.735-0.621-0.537-1.243c0.116-0.361,0.122-0.815,0.014-1.18  C5.293,88.091,4.922,87.42,3.572,87.711z M14.099,83.958c0.007-2.123-1.514-3.693-3.581-3.698c-2.048-0.004-3.806,1.677-3.806,3.638  c0,2.116,1.641,3.748,3.798,3.779C12.524,87.706,14.092,86.081,14.099,83.958z"></path>
<image width="1500" height="1501" xlink:href="Net-easy/Cloud Management.png" transform="matrix(0.24 0 0 0.24 715.459 -93.001)">
</image>
</svg>