<svg xmlns="http://www.w3.org/2000/svg" width="1501.000000pt" height="1501.000000pt" viewBox="0 0 1501.000000 1501.000000" preserveAspectRatio="xMidYMid meet"><g transform="translate(0.000000,1501.000000) scale(0.100000,-0.100000)" fill="#000000" stroke="none"><path d="M3710 10685 c-83 -19 -210 -82 -277 -137 -110 -91 -196 -227 -228 -359 -9 -39 -18 -141 -22 -261 l-6 -198 -84 0 -83 0 0 -543 c0 -596 1 -604 61 -718 77 -144 198 -229 354 -250 51 -6 237 -9 495 -7 374 4 420 6 465 23 149 55 258 166 307 314 22 65 23 78 26 624 l3 557 -89 0 -90 0 -4 213 c-4 197 -6 218 -31 292 -15 44 -40 103 -57 132 -72 125 -224 248 -366 298 -99 34 -271 43 -374 20z m356 -229 c97 -48 180 -129 224 -220 31 -62 33 -75 41 -213 4 -82 8 -181 8 -220 l1 -73 -474 0 -473 0 -7 46 c-12 90 -7 297 10 359 39 153 167 290 319 344 50 18 78 21 167 18 100 -3 112 -6 184 -41z m-89 -1122 c69 -56 85 -89 81 -170 -3 -59 -8 -77 -31 -107 -15 -20 -27 -47 -27 -61 0 -14 14 -109 30 -211 17 -102 30 -192 30 -200 0 -13 -30 -15 -193 -15 -107 0 -196 2 -199 5 -2 3 11 101 29 219 l34 213 -32 52 c-66 105 -44 211 57 279 46 32 54 34 116 30 57 -3 73 -8 105 -34z"></path><path d="M7850 9859 c-489 -47 -983 -248 -1366 -557 -194 -156 -386 -366 -519 -567 -33 -49 -63 -93 -68 -96 -4 -3 -67 -9 -139 -13 -287 -14 -513 -74 -769 -202 -257 -128 -438 -277 -664 -548 l-40 -47 -115 11 c-337 35 -722 -71 -1014 -277 -117 -84 -299 -269 -374 -382 -111 -166 -191 -355 -234 -554 -32 -147 -32 -437 0 -583 65 -299 191 -539 396 -751 124 -130 237 -215 386 -292 140 -72 283 -123 433 -153 l112 -23 3530 0 c3866 0 3593 -4 3830 60 560 153 1011 591 1178 1145 68 224 89 444 63 661 -71 605 -407 1082 -951 1349 -150 74 -298 124 -451 151 -114 21 -264 25 -532 16 l-53 -2 -38 90 c-206 489 -512 862 -941 1147 -426 283 -922 431 -1429 427 -80 -1 -184 -5 -231 -10z"></path></g></svg>