<svg xmlns="http://www.w3.org/2000/svg" xmlns:xlink="http://www.w3.org/1999/xlink" id="Layer_1" x="0px" y="0px" width="50px" height="50px" viewBox="0 0 50 50" xml:space="preserve">
<path fill-rule="evenodd" clip-rule="evenodd" fill="#1048F6" d="M109.916-43.251c-0.804,0.03-1.479,0.039-2.209,0.045  c-5.386,0.042-10.772,0.052-16.158,0.005c-3.061-0.026-4.499-1.497-4.519-4.576c-0.031-5.462-0.022-10.926,0.001-16.387  c0.011-2.569,1.34-4.148,3.892-4.167c10.002-0.071,20.004-0.065,30.006,0.021c2.513,0.022,4.14,2.381,3.862,4.596  c-0.061,0.491-0.097,1.164-1.158,1.249c-0.652-0.103-1.011-0.879-0.976-1.271c0.248-2.809-1.378-3.086-3.602-3.069  c-8.927,0.068-17.851,0.023-26.776,0.036c-3.07,0.004-3.253,0.203-3.257,3.28c-0.006,5.155-0.012,10.31-0.001,15.465  c0.005,2.919,0.282,3.188,3.149,3.188c5.078,0.001,10.155-0.01,15.233,0.009c0.793,0.003,1.698-0.012,2.519,0.025  C109.937-44.506,109.906-43.555,109.916-43.251z"></path>
<path fill-rule="evenodd" clip-rule="evenodd" fill="#1048F6" d="M129.276-46.095c0.002,2.688,0.021,5.377-0.003,8.066  c-0.024,2.556-1.707,4.36-4.237,4.432c-2.61,0.076-5.225,0.077-7.834,0.006c-2.271-0.063-3.769-1.482-3.8-3.784  c-0.075-5.991-0.075-11.983,0.008-17.974c0.035-2.522,1.208-3.625,3.723-3.706c2.608-0.083,5.225-0.086,7.834-0.012  c3.052,0.086,4.278,1.394,4.305,4.446C129.296-51.779,129.276-48.937,129.276-46.095z M127.285-46.094  c0-2.997-0.034-5.995,0.015-8.993c0.021-1.333-0.458-2.014-1.852-2.003c-2.845,0.023-5.696-0.106-8.526,0.082  c-0.675,0.044-1.825,1.071-1.841,1.667c-0.137,5.991-0.139,11.99-0.002,17.983c0.014,0.607,1.137,1.657,1.802,1.704  c2.754,0.196,5.53,0.035,8.294,0.104c1.636,0.039,2.157-0.72,2.128-2.242C127.247-40.557,127.286-43.325,127.285-46.094z"></path>
<path fill-rule="evenodd" clip-rule="evenodd" fill="#1048F6" d="M109.865-38.585c-0.945,0.007-1.788,0-2.656,0.003  c-6.851,0.021-13.705-0.023-20.555,0.072c-0.75,0.01-2.027,0.661-2.135,1.199c-0.32,1.618,0.988,1.752,2.236,1.749  c6.852-0.009,13.704-0.006,20.556-0.002c0.614,0,1.249-0.047,1.834,0.091c0.279,0.065,0.566,0.521,0.585,0.812  c0.019,0.289-0.206,0.744-0.476,0.853c-0.479,0.19-1.042,0.223-1.57,0.224c-6.852,0.016-13.703,0.043-20.555-0.002  c-3.076-0.021-4.706-1.685-4.747-4.42c-0.021-1.472,0.596-2.205,1.995-2.209c8.006-0.019,24.829,0.238,25.495,0.264  C109.878-39.668,109.874-38.868,109.865-38.585z"></path>
<path fill-rule="evenodd" clip-rule="evenodd" fill="#1048F6" d="M197.877-58.259c1.744,0,3.09-0.001,4.436,0  c4.899,0.008,6.908,3.347,4.845,7.881c-0.447,0.981-0.6,2.162-0.619,3.257c-0.046,2.398-0.043,4.655-1.62,6.806  c-0.919,1.255-0.627,3.347-1.433,4.743c-1.272,2.204-2.852,4.292-4.624,6.115c-0.776,0.8-2.326,0.991-3.566,1.169  c-3.789,0.545-7.41,0.067-10.897-1.728c-1.922-0.986-4.086-1.516-6.164-2.184c-1.413-0.456-2.759-0.576-3.806,0.903  c-0.305,0.432-1.066,0.736-1.628,0.753c-2.672,0.076-5.354,0.147-8.021,0c-1.812-0.102-3.029-1.681-3.043-3.782  c-0.045-6.655-0.042-13.314-0.001-19.971c0.014-2.107,1.568-3.804,3.646-3.913c2.257-0.117,4.528-0.072,6.789,0.02  c0.627,0.026,1.444,0.298,1.818,0.752c1.063,1.29,2.267,1.134,3.517,0.574c6.25-2.806,11.749-6.626,15.572-12.423  c1.135-1.724,1.677-3.84,2.47-5.729c6.126,0.994,6.296,6.454,4.696,10.507C199.501-62.623,198.808-60.722,197.877-58.259z   M196.859-72.845c-1.297,2.22-2.298,4.422-3.731,6.293c-4.088,5.339-9.459,9.025-15.737,11.36c-1.268,0.471-1.904,1.046-1.889,2.484  c0.063,5.495,0.051,10.989,0.008,16.484c-0.011,1.46,0.577,2.03,2.024,2.24c1.595,0.229,3.247,0.595,4.683,1.293  c3.871,1.884,7.777,3.267,12.196,2.878c2.335-0.206,4.409-0.453,4.893-3.294c0.049-0.287,0.346-0.604,0.612-0.771  c2.469-1.558,2.845-3.836,2.282-6.456c3.131-2.121,3.749-5.749,1.697-7.979c0.801-1.836,1.846-3.445,2.179-5.19  c0.39-2.053-0.58-2.848-2.692-2.869c-1.922-0.02-3.848,0.038-5.769-0.033c-0.696-0.025-1.87-0.187-1.967-0.53  c-0.184-0.651,0.093-1.565,0.454-2.216c1.768-3.177,3.579-6.266,3.228-10.169C199.174-71.055,198.591-72.14,196.859-72.845z   M173.714-44.229c0-3.365-0.035-6.73,0.018-10.094c0.021-1.387-0.522-2.052-1.914-2.046c-2.059,0.01-4.119,0.011-6.179-0.01  c-1.471-0.014-2.1,0.701-2.094,2.154c0.021,6.661,0.018,13.322,0.004,19.983c-0.002,1.367,0.58,2.012,1.987,1.98  c2.058-0.045,4.121-0.063,6.178,0.011c1.533,0.053,2.051-0.608,2.021-2.091C173.669-37.637,173.714-40.934,173.714-44.229z"></path>
<path fill-rule="evenodd" clip-rule="evenodd" d="M-194.138-279.032c-9.992,0-19.985,0.029-29.978-0.011  c-5.962-0.024-7.781-1.883-7.791-7.89c-0.02-12.366-0.017-24.731,0.009-37.096c0.011-5.684,2.23-7.854,7.98-7.854  c19.984-0.005,39.97-0.003,59.954,0.014c5.954,0.005,8.2,2.222,8.204,8.052c0.007,12.366,0.011,24.731-0.011,37.096  c-0.01,5.688-1.907,7.64-7.642,7.672C-173.653-278.992-183.896-279.033-194.138-279.032z M-194.177-306.009  c-10.369,0-20.739,0.065-31.106-0.043c-2.815-0.029-4.091,0.724-3.97,3.809c0.21,5.363,0.18,10.745,0.005,16.111  c-0.105,3.256,1.248,4.519,4.395,4.513c20.613-0.039,41.227-0.044,61.839,0.005c2.854,0.008,4.1-1.129,4.051-4.008  c-0.092-5.37-0.281-10.758,0.047-16.11c0.226-3.686-1.287-4.386-4.529-4.338C-173.688-305.923-183.933-306.017-194.177-306.009z   M-159.306-321.137c-1.524,0-2.861,0-4.198,0c-19.221,0.002-38.441,0.006-57.662,0.005c-8.139-0.001-7.982-0.004-8.125,8.115  c-0.061,3.472,1.096,4.478,4.512,4.451c18.346-0.144,36.693-0.075,55.04-0.071C-158.021-308.633-158.021-308.627-159.306-321.137z   M-159.317-324.542c0.718-3.069-0.404-4.112-3.196-4.106c-20.854,0.043-41.708-0.023-62.561,0.115  c-1.353,0.009-3.731,1.295-3.853,2.221c-0.383,2.932,2.277,1.896,3.739,1.901c20.729,0.068,41.458,0.05,62.187,0.04  C-161.785-324.374-160.57-324.482-159.317-324.542z"></path>
<path fill-rule="evenodd" clip-rule="evenodd" fill="#1048F6" d="M25.177-36.132c-6.029-0.002-12.06-0.118-18.084,0.049  c-2.859,0.08-4.832-1.474-4.804-4.948c0.057-7.218,0.008-14.437,0.021-21.655c0.007-3.413,1.429-4.877,4.842-4.884  c11.981-0.022,23.963-0.021,35.945-0.003c3.44,0.005,4.578,1.122,4.59,4.5c0.026,7.517,0.033,15.032,0.009,22.55  c-0.011,3.418-1.001,4.378-4.435,4.389C37.232-36.117,31.204-36.13,25.177-36.132z M24.983-37.73c0,0,0-0.004,0-0.008  c6.105,0,12.211-0.043,18.315,0.025c1.978,0.022,2.84-0.665,2.823-2.721c-0.062-7.596-0.055-15.191,0.003-22.785  c0.014-1.823-0.65-2.491-2.494-2.483c-12.286,0.055-24.571,0.06-36.856,0C4.906-65.71,4.27-65.003,4.28-63.218  c0.041,7.594,0.035,15.191-0.001,22.785c-0.011,1.99,0.819,2.761,2.833,2.733C13.069-37.783,19.027-37.73,24.983-37.73z"></path>
<path fill-rule="evenodd" clip-rule="evenodd" fill="#1048F6" d="M15.986-42.92c-1.712-0.045-2.277,0.078-3.563,0.105  c-0.891,0.018-2.489,0.199-2.493-0.822c-0.007-1.604-0.078-2.032,0.599-3.122c1.236-1.994,3.82-2.766,6.335-2.453  c2.543,0.315,4.56,1.635,5.412,4.073c0.443,1.269,0.035,2.138-1.383,2.201C19.26-42.867,17.623-42.924,15.986-42.92z M20.332-44.972  c0.268-3.185-7.451-4.815-8.671,0C14.641-44.972,17.465-44.972,20.332-44.972z"></path>
<path fill-rule="evenodd" clip-rule="evenodd" d="M-171.036,54.583c-0.242,2.848-0.191,5.757-0.777,8.531  c-1.854,8.754-9.101,11.999-16.292,14.729c-10.253,3.894-21.018,3.923-31.596,1.709c-8.145-1.704-16.099-4.546-20.758-12.29  c-1.288-2.143-2.235-4.831-2.301-7.297c-0.132-4.948-0.467-10.218,1.033-14.779c1.196-3.635,4.435-7.273,7.736-9.418  c11.26-7.315,24.033-8.222,36.953-6.53c4.291,0.563,8.438,2.555,12.537,4.182C-174.971,37.204-169.891,43.897-171.036,54.583z   M-207.134,31.657c-7.884-0.659-15.526,0.957-22.607,4.621c-4.867,2.518-9.514,5.597-9.886,11.977  c-0.419,7.186,4.462,10.672,9.845,13.559c8.649,4.64,18.083,5.047,27.639,4.698c6.847-0.25,13.313-2.063,19.221-5.293  c11.762-6.431,12.235-16.456,0.941-23.697C-189.468,32.722-198.046,31.007-207.134,31.657z M-239.345,59.036  c-0.677,6.099,2.448,10.971,9.017,14.004c7.859,3.63,16.045,5.948,24.796,5.344c3.804-0.264,7.634-0.706,11.352-1.521  c5.992-1.315,11.754-3.471,16.217-7.855c2.719-2.672,5.102-5.828,3.564-10.146C-196.089,73.456-217.585,73.313-239.345,59.036z"></path>
<path fill-rule="evenodd" clip-rule="evenodd" d="M-208.292,101.087c1.288-0.299,2.571-0.829,3.865-0.856  c4.862-0.105,9.729-0.011,14.593-0.068c1.638-0.02,3.657,0.502,3.728-2.326c0.068-2.787-1.831-2.486-3.559-2.498  c-4.615-0.031-9.23-0.012-13.845-0.038c-5.062-0.029-5.233-0.231-5.201-5.721c0.028-4.688,0.433-5.056,5.108-5.129  c2.703-0.043,5.864,1.055,7.314-3.415c2.584,4.424,6.427,3.252,9.946,3.495c1.078,0.075,2.106,0.866,3.158,1.329  c-0.083,0.402-0.165,0.805-0.248,1.207c-1.393,0.229-2.782,0.632-4.179,0.655c-5.112,0.087-10.232-0.083-15.336,0.158  c-1.064,0.05-2.718,1.271-2.965,2.24c-0.572,2.24,1.259,2.563,3.035,2.564c5.363,0.003,10.73,0.147,16.088-0.019  c3.91-0.121,4.014,2.174,4.002,5.088c-0.013,2.883-0.043,5.164-3.985,5.111c-2.939-0.039-6.542-1.402-8.378,2.608  c-0.088,0.19-1.808,0.03-1.885-0.228c-1.054-3.559-3.965-2.18-6.23-2.439c-1.63-0.188-3.271-0.282-4.906-0.418  C-208.212,101.955-208.252,101.521-208.292,101.087z"></path>
<rect x="106.435" y="34.069" fill-rule="evenodd" clip-rule="evenodd" fill="#1048F6" width="4.748" height="2.307"></rect>
<rect x="122.892" y="34.069" fill-rule="evenodd" clip-rule="evenodd" fill="#1048F6" width="2.374" height="2.307"></rect>
<rect x="113.816" y="34.069" fill-rule="evenodd" clip-rule="evenodd" fill="#1048F6" width="6.902" height="2.307"></rect>
<path fill="#1048F6" d="M126.051,41.298h-39.17c-2.12,0-3.845-1.691-3.845-3.769V12.204c0-2.078,1.725-3.77,3.845-3.77h39.17  c2.12,0,3.845,1.691,3.845,3.77v25.325C129.896,39.606,128.171,41.298,126.051,41.298z M86.881,10.281  c-1.103,0-1.999,0.861-1.999,1.923v25.325c0,1.061,0.896,1.923,1.999,1.923h39.17c1.103,0,1.999-0.862,1.999-1.923V12.204  c0-1.062-0.896-1.923-1.999-1.923H86.881z"></path>
<rect x="84.368" y="12.741" fill="#1048F6" width="44.091" height="1.947"></rect>
<rect x="84.368" y="21.791" fill="#1048F6" width="44.091" height="2.024"></rect>
<rect x="49.948" y="-142.28" fill-rule="evenodd" clip-rule="evenodd" width="7.719" height="3.75"></rect>
<rect x="76.698" y="-142.28" fill-rule="evenodd" clip-rule="evenodd" width="3.859" height="3.75"></rect>
<rect x="61.948" y="-142.28" fill-rule="evenodd" clip-rule="evenodd" width="11.219" height="3.75"></rect>
<path fill-rule="evenodd" clip-rule="evenodd" fill="none" stroke="#000000" stroke-width="3" stroke-miterlimit="10" d="  M86.583-136.655c0,2.555-2.127,4.625-4.75,4.625H18.167c-2.623,0-4.75-2.07-4.75-4.625v-41.166c0-2.554,2.127-4.625,4.75-4.625  h63.666c2.623,0,4.75,2.071,4.75,4.625V-136.655z"></path>
<rect x="14.083" y="-176.946" width="71.667" height="3.166"></rect>
<rect x="14.083" y="-162.237" width="71.667" height="3.291"></rect>
<path fill-rule="evenodd" clip-rule="evenodd" fill="#1048F6" d="M16.054-60.431c-2.249,0-4.072,1.823-4.072,4.073  c0,2.249,1.823,4.073,4.072,4.073c2.25,0,4.073-1.824,4.073-4.073C20.127-58.607,18.304-60.431,16.054-60.431z M16.054-53.845  c-1.387,0-2.513-1.126-2.513-2.513c0-1.388,1.126-2.513,2.513-2.513c1.389,0,2.514,1.125,2.514,2.513  C18.567-54.971,17.442-53.845,16.054-53.845z"></path>
<path fill="#1048F6" d="M44.059-57.865c0,0.608-0.493,1.101-1.101,1.101h-11.81c-0.608,0-1.1-0.493-1.1-1.101l0,0  c0-0.608,0.491-1.1,1.1-1.1h11.81C43.565-58.964,44.059-58.473,44.059-57.865L44.059-57.865z"></path>
<path fill="#1048F6" d="M44.059-44.551c0,0.607-0.493,1.102-1.101,1.102h-11.81c-0.608,0-1.1-0.494-1.1-1.102l0,0  c0-0.608,0.491-1.1,1.1-1.1h11.81C43.565-45.65,44.059-45.159,44.059-44.551L44.059-44.551z"></path>
<path fill="#1048F6" d="M41.177-53.414c0,0.607-0.392,1.1-0.873,1.1h-9.382c-0.481,0-0.873-0.493-0.873-1.1l0,0  c0-0.607,0.392-1.099,0.873-1.099h9.382C40.785-54.513,41.177-54.021,41.177-53.414L41.177-53.414z"></path>
<path fill="#1048F6" d="M41.177-49.072c0,0.607-0.392,1.1-0.873,1.1h-9.382c-0.481,0-0.873-0.492-0.873-1.1l0,0  c0-0.608,0.392-1.1,0.873-1.1h9.382C40.785-50.172,41.177-49.681,41.177-49.072L41.177-49.072z"></path>
<path fill-rule="evenodd" clip-rule="evenodd" d="M-26.449-89.518c-10.111-0.003-20.229-0.197-30.332,0.082  c-4.798,0.133-8.105-2.471-8.06-8.299c0.095-12.107,0.014-24.218,0.035-36.326c0.01-5.725,2.395-8.181,8.122-8.192  c20.098-0.038,40.196-0.034,60.294-0.006c5.771,0.008,7.68,1.882,7.699,7.548c0.044,12.609,0.056,25.216,0.016,37.826  c-0.019,5.732-1.681,7.344-7.439,7.361C-6.226-89.494-16.337-89.516-26.449-89.518z M-26.772-92.198c0-0.003,0-0.007,0-0.012  c10.241,0,20.483-0.073,30.724,0.042c3.315,0.037,4.763-1.117,4.734-4.566c-0.104-12.74-0.093-25.48,0.005-38.219  c0.023-3.057-1.092-4.178-4.183-4.165c-20.608,0.092-41.217,0.101-61.824,0.001c-3.133-0.016-4.201,1.171-4.185,4.165  c0.069,12.74,0.061,25.48-0.001,38.219c-0.017,3.339,1.375,4.632,4.754,4.585C-46.758-92.287-36.765-92.198-26.772-92.198z"></path>
<path fill-rule="evenodd" clip-rule="evenodd" d="M-41.865-100.905c-2.871-0.073-3.82,0.132-5.976,0.177  c-1.494,0.031-4.174,0.335-4.182-1.379c-0.012-2.69-0.131-3.406,1.005-5.236c2.073-3.344,6.407-4.639,10.626-4.114  c4.265,0.53,7.647,2.741,9.078,6.833c0.744,2.128,0.059,3.584-2.318,3.689C-36.372-100.814-39.12-100.908-41.865-100.905z   M-34.574-104.345c0.45-5.343-12.499-8.079-14.545,0C-44.122-104.345-39.385-104.345-34.574-104.345z"></path>
<path fill-rule="evenodd" clip-rule="evenodd" d="M-41.751-130.276c-3.772,0-6.83,3.058-6.83,6.831c0,3.773,3.058,6.831,6.83,6.831  c3.773,0,6.831-3.058,6.831-6.831C-34.92-127.218-37.978-130.276-41.751-130.276z M-41.751-119.23c-2.327,0-4.214-1.887-4.214-4.215  c0-2.328,1.887-4.214,4.214-4.214c2.328,0,4.215,1.887,4.215,4.214C-37.536-121.117-39.423-119.23-41.751-119.23z"></path>
<path d="M5.224-125.972c0,1.019-0.826,1.845-1.845,1.845h-19.811c-1.019,0-1.845-0.826-1.845-1.845l0,0  c0-1.019,0.826-1.845,1.845-1.845H3.379C4.397-127.817,5.224-126.991,5.224-125.972L5.224-125.972z"></path>
<path d="M5.224-103.639c0,1.019-0.826,1.845-1.845,1.845h-19.811c-1.019,0-1.845-0.826-1.845-1.845l0,0  c0-1.02,0.826-1.846,1.845-1.846H3.379C4.397-105.484,5.224-104.658,5.224-103.639L5.224-103.639z"></path>
<path d="M0.39-118.506c0,1.018-0.656,1.844-1.465,1.844h-15.735c-0.81,0-1.466-0.826-1.466-1.844l0,0  c0-1.02,0.656-1.846,1.466-1.846h15.735C-0.267-120.352,0.39-119.525,0.39-118.506L0.39-118.506z"></path>
<path d="M0.39-111.225c0,1.02-0.656,1.846-1.465,1.846h-15.735c-0.81,0-1.466-0.826-1.466-1.846l0,0  c0-1.019,0.656-1.845,1.466-1.845h15.735C-0.267-113.069,0.39-112.243,0.39-111.225L0.39-111.225z"></path>
<ellipse fill-rule="evenodd" clip-rule="evenodd" fill="none" stroke="#000000" stroke-width="4" stroke-miterlimit="10" cx="-173.19" cy="149.916" rx="33.69" ry="18.042"></ellipse>
<path fill-rule="evenodd" clip-rule="evenodd" fill="none" stroke="#000000" stroke-width="4" stroke-miterlimit="10" d="  M-139.5,149.916c0.85,2.1,1.083,5.335,1.083,7.625c0,13.61-14.57,23.625-34.4,23.625c-19.83,0-34.6-9.015-34.6-22.625  c0-2.29-0.314-6.525,0.536-8.625"></path>
<polyline fill="none" stroke="#000000" stroke-width="3" stroke-linecap="round" stroke-miterlimit="10" points="-160.834,142.166   -184.833,142.166 -184.833,149.916 -161.834,149.916 -162,157.333 -184.833,157.333 "></polyline>
<line fill="none" stroke="#000000" stroke-width="3" stroke-linecap="round" stroke-miterlimit="10" x1="-173.19" y1="136.916" x2="-173.19" y2="141.541"></line>
<line fill="none" stroke="#000000" stroke-width="3" stroke-linecap="round" stroke-miterlimit="10" x1="-172.834" y1="158.416" x2="-172.834" y2="163.041"></line>
<path fill="#1048F6" d="M185.047,30.97c-12.562,0-22.4-5.525-22.4-12.58c0-7.053,9.839-12.578,22.4-12.578  s22.399,5.525,22.399,12.578C207.446,25.444,197.608,30.97,185.047,30.97z M185.047,8.322c-10.782,0-19.89,4.611-19.89,10.067  c0,5.458,9.107,10.069,19.89,10.069c10.78,0,19.889-4.611,19.889-10.069C204.936,12.934,195.827,8.322,185.047,8.322z"></path>
<path fill="#1048F6" d="M185.281,39.259c-13.525,0-22.972-6.355-22.972-15.456c0-0.27-0.007-0.587-0.015-0.93  c-0.038-1.627-0.084-3.651,0.443-4.953l2.326,0.94c-0.331,0.823-0.289,2.708-0.259,3.957c0.008,0.362,0.015,0.698,0.015,0.985  c0,7.623,8.415,12.945,20.461,12.945c11.782,0,20.335-5.707,20.335-13.571c0-1.793-0.221-3.405-0.589-4.316l2.327-0.94  c0.673,1.659,0.772,4.006,0.772,5.257C208.127,32.494,198.519,39.259,185.281,39.259z"></path>
<path fill="#1048F6" d="M192.99,23.987h-15.251c-0.521,0-0.941-0.421-0.941-0.942c0-0.519,0.421-0.94,0.941-0.94h13.41l0.063-2.772  h-14.414v-6.748h16.004c0.521,0,0.941,0.423,0.941,0.942s-0.421,0.94-0.941,0.94h-14.121v2.981h14.456L192.99,23.987z"></path>
<path fill="#1048F6" d="M185.047,14.075c-0.521,0-0.94-0.421-0.94-0.941v-2.902c0-0.52,0.42-0.942,0.94-0.942  c0.519,0,0.941,0.423,0.941,0.942v2.902C185.988,13.654,185.565,14.075,185.047,14.075z"></path>
<path fill="#1048F6" d="M185.271,27.57c-0.52,0-0.941-0.423-0.941-0.942v-2.902c0-0.521,0.422-0.942,0.941-0.942  c0.521,0,0.94,0.422,0.94,0.942v2.902C186.211,27.147,185.791,27.57,185.271,27.57z"></path>
<path fill-rule="evenodd" clip-rule="evenodd" fill="#FFFFFF" d="M24.517,12.864c2.543-1.472,4.243-3.339,6.593-4.485  c3.831-1.869,7.271-0.789,10.469,1.729c3.67,2.891,7.043,8.56,4.425,15.464c-2.707,7.73-8.314,13.406-14.983,18.028  c-1.62,1.124-3.266,2.21-4.859,3.368c-1.117,0.812-2.071,0.82-3.299,0.063C14.794,42.051,7.672,36.15,3.563,27.328  C0.081,19.853,2.211,11.57,10.647,8.361c4.983-1.895,8.857,0.019,12.489,3.152C23.565,11.885,24.422,12.764,24.517,12.864z   M4.936,19.697c0.065,4.086,1.313,7.313,3.301,10.284c3.962,5.924,9.242,10.441,15.259,14.139c0.468,0.287,1.428,0.299,1.877,0.006  c4.366-2.85,8.654-5.809,12.01-9.901c3.131-3.82,6.051-7.705,6.526-12.897c0.397-4.342-1.656-8.273-5.929-10.088  c-3.001-1.274-6.774-1.198-9.994,2.126c-0.873,0.901-1.295,1.847-2.257,3.055c-0.737,0.924-1.031,1.472-2.666-0.824  c-0.295-0.416-0.501-0.649-0.768-1.084c-2.308-3.747-6.759-5.012-10.87-3.514C7.564,12.406,5.053,15.438,4.936,19.697z"></path>
<image width="260" height="432" xlink:href="7.jpg" transform="matrix(0.75 0 0 0.75 797.25 -319.2383)">
</image>
<image width="243" height="307" xlink:href="8.jpg" transform="matrix(0.75 0 0 0.75 667.5391 -535.7021)">
</image>
<image width="223" height="339" xlink:href="9.jpg" transform="matrix(0.75 0 0 0.75 863 54.041)">
</image>
<image width="291" height="350" xlink:href="10.jpg" transform="matrix(0.75 0 0 0.75 1318.333 -143.9766)">
</image>
<path fill="#FFFFFF" d="M119.684,74.024l-1.412-1.233c-0.067-0.058-4.254-3.617-10.099-3.617c-3.263,0-6.452,1.098-9.479,3.263  l-1.245,0.891l-0.027-1.53c-0.035-1.997-0.009-11.994,4.035-12.604c1.087-0.164,2.828-0.247,5.174-0.247  c3.762,0,7.937,0.215,8.358,0.237h0.016c1.216,0,4.099,1.264,4.6,12.968L119.684,74.024z M108.173,67.565  c4.408,0,7.893,1.779,9.73,2.971c-0.611-8.825-2.708-9.684-2.903-9.742l-0.063-0.003c-0.044-0.003-4.403-0.237-8.307-0.237  c-2.266,0-3.926,0.077-4.934,0.229c-1.731,0.261-2.552,5.373-2.659,9.495C101.963,68.477,105.029,67.565,108.173,67.565z"></path>
<path fill="#FFFFFF" d="M106.63,106.721c-2.346,0-4.087-0.083-5.174-0.247c-4.044-0.61-4.07-10.607-4.035-12.604l0.027-1.53  l1.245,0.891c3.027,2.165,6.217,3.263,9.479,3.263c5.887,0,10.057-3.581,10.098-3.617l1.413-1.233l-0.08,1.874  c-0.501,11.704-3.384,12.968-4.6,12.968h-0.019C114.541,106.507,110.381,106.721,106.63,106.721z M99.037,95.389  c0.109,4.122,0.93,9.233,2.659,9.494c1.008,0.152,2.668,0.229,4.934,0.229c3.904,0,8.263-0.234,8.307-0.237l0.063-0.003l0.012,0.001  c0.134-0.04,2.273-0.809,2.893-9.743c-1.838,1.191-5.322,2.971-9.73,2.971C105.029,98.101,101.963,97.189,99.037,95.389z"></path>
<path fill="#FFFFFF" d="M108.278,98.456c-8.51,0-15.434-6.904-15.434-15.391c0-8.487,6.924-15.393,15.434-15.393  s15.433,6.905,15.433,15.393C123.711,91.552,116.788,98.456,108.278,98.456z M108.278,69.281c-7.623,0-13.825,6.184-13.825,13.784  c0,7.6,6.202,13.782,13.825,13.782s13.824-6.183,13.824-13.782C122.103,75.465,115.901,69.281,108.278,69.281z"></path>
<path fill="#FFFFFF" d="M108.325,84.03l-6.223-3.716c-0.382-0.228-0.507-0.722-0.279-1.103c0.229-0.382,0.723-0.506,1.104-0.278  l5.304,3.166l7.477-5.535c0.357-0.263,0.86-0.189,1.126,0.168c0.264,0.357,0.188,0.861-0.168,1.126L108.325,84.03z"></path>
<path fill="#FFFFFF" d="M125.499,80.719h-1.084c-1.26,0-2.281,0.963-2.281,2.15v0.793c0,1.188,1.021,2.15,2.281,2.15h1.084  c1.26,0,2.281-0.963,2.281-2.15v-0.793C127.78,81.682,126.759,80.719,125.499,80.719z M126.389,83.466  c0,0.604-0.517,1.092-1.157,1.092h-0.55c-0.64,0-1.156-0.488-1.156-1.092v-0.4c0-0.604,0.517-1.092,1.156-1.092h0.55  c0.641,0,1.157,0.488,1.157,1.092V83.466z"></path>
</svg>