<svg xmlns="http://www.w3.org/2000/svg" xmlns:xlink="http://www.w3.org/1999/xlink" id="Layer_1" x="0px" y="0px" width="50px" height="50px" viewBox="0 0 50 50" xml:space="preserve">
<path fill-rule="evenodd" clip-rule="evenodd" fill="#1048F6" d="M26.88-101.25c-0.804,0.03-1.479,0.039-2.209,0.045  c-5.386,0.042-10.772,0.052-16.158,0.005c-3.061-0.026-4.499-1.497-4.519-4.576c-0.031-5.462-0.022-10.926,0.001-16.387  c0.011-2.569,1.34-4.148,3.892-4.167c10.002-0.071,20.004-0.065,30.006,0.021c2.513,0.022,4.14,2.381,3.862,4.596  c-0.061,0.491-0.097,1.164-1.158,1.249c-0.652-0.103-1.011-0.879-0.976-1.271c0.248-2.809-1.378-3.086-3.602-3.069  c-8.927,0.068-17.851,0.023-26.776,0.036c-3.07,0.004-3.253,0.203-3.257,3.28c-0.006,5.155-0.012,10.31-0.001,15.465  c0.005,2.919,0.282,3.188,3.149,3.188c5.078,0.001,10.155-0.01,15.233,0.009c0.793,0.003,1.698-0.012,2.519,0.025  C26.9-102.505,26.87-101.554,26.88-101.25z"></path>
<path fill-rule="evenodd" clip-rule="evenodd" fill="#1048F6" d="M46.24-104.094c0.002,2.688,0.021,5.377-0.003,8.066  c-0.024,2.556-1.707,4.36-4.237,4.432c-2.61,0.076-5.225,0.077-7.834,0.006c-2.271-0.063-3.769-1.482-3.8-3.784  c-0.075-5.991-0.075-11.983,0.008-17.974c0.035-2.522,1.208-3.625,3.723-3.706c2.608-0.083,5.225-0.086,7.834-0.012  c3.052,0.086,4.278,1.394,4.305,4.446C46.26-109.778,46.24-106.936,46.24-104.094z M44.249-104.093c0-2.997-0.034-5.995,0.015-8.993  c0.021-1.333-0.458-2.014-1.852-2.003c-2.845,0.023-5.696-0.106-8.526,0.082c-0.675,0.044-1.825,1.071-1.841,1.667  c-0.137,5.991-0.139,11.99-0.002,17.983c0.014,0.607,1.137,1.657,1.802,1.704c2.754,0.196,5.53,0.035,8.294,0.104  c1.636,0.039,2.157-0.72,2.128-2.242C44.211-98.556,44.25-101.324,44.249-104.093z"></path>
<path fill-rule="evenodd" clip-rule="evenodd" fill="#1048F6" d="M26.829-96.584c-0.945,0.007-1.788,0-2.656,0.003  c-6.851,0.021-13.705-0.023-20.555,0.072c-0.75,0.01-2.027,0.661-2.135,1.199c-0.32,1.618,0.988,1.752,2.236,1.749  c6.852-0.009,13.704-0.006,20.556-0.002c0.614,0,1.249-0.047,1.834,0.091c0.279,0.065,0.566,0.521,0.585,0.812  c0.019,0.289-0.206,0.744-0.476,0.853c-0.479,0.19-1.042,0.223-1.57,0.224c-6.852,0.016-13.703,0.043-20.555-0.002  c-3.076-0.021-4.706-1.685-4.747-4.42c-0.021-1.472,0.596-2.205,1.995-2.209c8.006-0.019,24.829,0.238,25.495,0.264  C26.842-97.667,26.838-96.867,26.829-96.584z"></path>
<path fill-rule="evenodd" clip-rule="evenodd" fill="#1048F6" d="M114.841-116.258c1.744,0,3.09-0.001,4.436,0  c4.899,0.008,6.908,3.347,4.845,7.881c-0.447,0.981-0.6,2.162-0.619,3.257c-0.046,2.398-0.043,4.655-1.62,6.806  c-0.919,1.255-0.627,3.347-1.433,4.743c-1.272,2.204-2.852,4.292-4.624,6.115c-0.776,0.8-2.326,0.991-3.566,1.169  c-3.789,0.545-7.41,0.067-10.897-1.728c-1.922-0.986-4.086-1.516-6.164-2.184c-1.413-0.456-2.759-0.576-3.806,0.903  c-0.305,0.432-1.066,0.736-1.628,0.753c-2.672,0.076-5.354,0.147-8.021,0c-1.812-0.102-3.029-1.681-3.043-3.782  c-0.045-6.655-0.042-13.314-0.001-19.971c0.014-2.107,1.568-3.804,3.646-3.913c2.257-0.117,4.528-0.072,6.789,0.02  c0.627,0.026,1.444,0.298,1.818,0.752c1.063,1.29,2.267,1.134,3.517,0.574c6.25-2.806,11.749-6.626,15.572-12.423  c1.135-1.724,1.677-3.84,2.47-5.729c6.126,0.994,6.296,6.454,4.696,10.507C116.465-120.622,115.771-118.721,114.841-116.258z   M113.823-130.844c-1.297,2.22-2.298,4.422-3.731,6.293c-4.088,5.339-9.459,9.025-15.737,11.36  c-1.268,0.471-1.904,1.046-1.889,2.484c0.063,5.495,0.051,10.989,0.008,16.484c-0.011,1.46,0.577,2.03,2.024,2.24  c1.595,0.229,3.247,0.595,4.683,1.293c3.871,1.884,7.777,3.267,12.196,2.878c2.335-0.206,4.409-0.453,4.893-3.294  c0.049-0.287,0.346-0.604,0.612-0.771c2.469-1.558,2.845-3.836,2.282-6.456c3.131-2.121,3.749-5.749,1.697-7.979  c0.801-1.836,1.846-3.445,2.179-5.19c0.39-2.053-0.58-2.848-2.692-2.869c-1.922-0.02-3.848,0.038-5.769-0.033  c-0.696-0.025-1.87-0.187-1.967-0.53c-0.184-0.651,0.093-1.565,0.454-2.216c1.768-3.177,3.579-6.266,3.228-10.169  C116.138-129.054,115.555-130.139,113.823-130.844z M90.678-102.229c0-3.365-0.035-6.73,0.018-10.094  c0.021-1.387-0.522-2.052-1.914-2.046c-2.059,0.01-4.119,0.011-6.179-0.01c-1.471-0.014-2.1,0.701-2.094,2.154  c0.021,6.661,0.018,13.322,0.004,19.983c-0.002,1.367,0.58,2.012,1.987,1.98c2.058-0.045,4.121-0.063,6.178,0.011  c1.533,0.053,2.051-0.608,2.021-2.091C90.633-95.636,90.678-98.933,90.678-102.229z"></path>
<path fill-rule="evenodd" clip-rule="evenodd" d="M-277.174-337.031c-9.992,0-19.985,0.029-29.978-0.011  c-5.962-0.024-7.781-1.883-7.791-7.89c-0.02-12.366-0.017-24.731,0.009-37.096c0.011-5.684,2.23-7.854,7.98-7.854  c19.984-0.005,39.97-0.003,59.954,0.014c5.954,0.005,8.2,2.222,8.204,8.052c0.007,12.366,0.011,24.731-0.011,37.096  c-0.01,5.688-1.907,7.64-7.642,7.672C-256.689-336.991-266.932-337.032-277.174-337.031z M-277.213-364.008  c-10.369,0-20.739,0.065-31.106-0.043c-2.815-0.029-4.091,0.724-3.97,3.809c0.21,5.363,0.18,10.745,0.005,16.111  c-0.105,3.256,1.248,4.519,4.395,4.513c20.613-0.039,41.227-0.044,61.839,0.005c2.854,0.008,4.1-1.129,4.051-4.008  c-0.092-5.37-0.281-10.758,0.047-16.11c0.226-3.686-1.287-4.386-4.529-4.338C-256.724-363.922-266.969-364.016-277.213-364.008z   M-242.342-379.136c-1.524,0-2.861,0-4.198,0c-19.221,0.002-38.441,0.006-57.662,0.005c-8.139-0.001-7.982-0.004-8.125,8.115  c-0.061,3.472,1.096,4.478,4.512,4.451c18.346-0.144,36.693-0.075,55.04-0.071C-241.057-366.632-241.057-366.626-242.342-379.136z   M-242.354-382.542c0.718-3.069-0.404-4.112-3.196-4.106c-20.854,0.043-41.708-0.023-62.561,0.115  c-1.353,0.009-3.731,1.295-3.853,2.221c-0.383,2.932,2.277,1.896,3.739,1.901c20.729,0.068,41.458,0.05,62.187,0.04  C-244.821-382.373-243.606-382.481-242.354-382.542z"></path>
<path fill-rule="evenodd" clip-rule="evenodd" fill="#1048F6" d="M-57.859-94.131c-6.029-0.002-12.06-0.118-18.084,0.049  c-2.859,0.08-4.832-1.474-4.804-4.948c0.057-7.218,0.008-14.437,0.021-21.655c0.007-3.413,1.429-4.877,4.842-4.884  c11.981-0.022,23.963-0.021,35.945-0.003c3.44,0.005,4.578,1.122,4.59,4.5c0.026,7.517,0.033,15.032,0.009,22.55  c-0.011,3.418-1.001,4.378-4.435,4.389C-45.804-94.116-51.832-94.129-57.859-94.131z M-58.053-95.729c0,0,0-0.004,0-0.008  c6.105,0,12.211-0.043,18.315,0.025c1.978,0.022,2.84-0.665,2.823-2.721c-0.062-7.596-0.055-15.191,0.003-22.785  c0.014-1.823-0.65-2.491-2.494-2.483c-12.286,0.055-24.571,0.06-36.856,0c-1.868-0.009-2.505,0.698-2.494,2.483  c0.041,7.594,0.035,15.191-0.001,22.785c-0.011,1.99,0.819,2.761,2.833,2.733C-69.967-95.782-64.009-95.729-58.053-95.729z"></path>
<path fill-rule="evenodd" clip-rule="evenodd" fill="#1048F6" d="M-67.05-100.919c-1.712-0.045-2.277,0.078-3.563,0.105  c-0.891,0.018-2.489,0.199-2.493-0.822c-0.007-1.604-0.078-2.032,0.599-3.122c1.236-1.994,3.82-2.766,6.335-2.453  c2.543,0.315,4.56,1.635,5.412,4.073c0.443,1.269,0.035,2.138-1.383,2.201C-63.776-100.866-65.413-100.923-67.05-100.919z   M-62.704-102.971c0.268-3.185-7.451-4.815-8.671,0C-68.396-102.971-65.571-102.971-62.704-102.971z"></path>
<path fill-rule="evenodd" clip-rule="evenodd" d="M-254.072-3.416c-0.242,2.848-0.191,5.757-0.777,8.531  c-1.854,8.754-9.101,11.999-16.292,14.729c-10.253,3.894-21.018,3.923-31.596,1.709c-8.145-1.704-16.099-4.546-20.758-12.29  c-1.288-2.143-2.235-4.831-2.301-7.297c-0.132-4.948-0.467-10.218,1.033-14.779c1.196-3.635,4.435-7.273,7.736-9.418  c11.26-7.315,24.033-8.222,36.953-6.53c4.291,0.563,8.438,2.555,12.537,4.182C-258.007-20.795-252.927-14.102-254.072-3.416z   M-290.17-26.342c-7.884-0.659-15.526,0.957-22.607,4.621c-4.867,2.518-9.514,5.597-9.886,11.977  c-0.419,7.186,4.462,10.672,9.845,13.559c8.649,4.64,18.083,5.047,27.639,4.698c6.847-0.25,13.313-2.063,19.221-5.293  c11.762-6.431,12.235-16.456,0.941-23.697C-272.504-25.277-281.082-26.992-290.17-26.342z M-322.381,1.037  c-0.677,6.099,2.448,10.971,9.017,14.004c7.859,3.63,16.045,5.948,24.796,5.344c3.804-0.264,7.634-0.706,11.352-1.521  c5.992-1.315,11.754-3.471,16.217-7.855c2.719-2.672,5.102-5.828,3.564-10.146C-279.125,15.457-300.621,15.314-322.381,1.037z"></path>
<path fill-rule="evenodd" clip-rule="evenodd" d="M-291.329,43.088c1.288-0.299,2.571-0.829,3.865-0.856  c4.862-0.105,9.729-0.011,14.593-0.068c1.638-0.02,3.657,0.502,3.728-2.326c0.068-2.787-1.831-2.486-3.559-2.498  c-4.615-0.031-9.23-0.012-13.845-0.038c-5.062-0.029-5.233-0.231-5.201-5.721c0.028-4.688,0.433-5.056,5.108-5.129  c2.703-0.043,5.864,1.055,7.314-3.415c2.584,4.424,6.427,3.252,9.946,3.495c1.078,0.075,2.106,0.866,3.158,1.329  c-0.083,0.402-0.165,0.805-0.248,1.207c-1.393,0.229-2.782,0.632-4.179,0.655c-5.112,0.087-10.232-0.083-15.336,0.158  c-1.064,0.05-2.718,1.271-2.965,2.24c-0.572,2.24,1.259,2.563,3.035,2.564c5.363,0.003,10.73,0.147,16.088-0.019  c3.91-0.121,4.014,2.174,4.002,5.088c-0.013,2.883-0.043,5.164-3.985,5.111c-2.939-0.039-6.542-1.402-8.378,2.608  c-0.088,0.19-1.808,0.03-1.885-0.228c-1.054-3.559-3.965-2.18-6.23-2.439c-1.63-0.188-3.271-0.282-4.906-0.418  C-291.249,43.956-291.289,43.522-291.329,43.088z"></path>
<rect x="23.398" y="-23.93" fill-rule="evenodd" clip-rule="evenodd" fill="#1048F6" width="4.748" height="2.307"></rect>
<rect x="39.855" y="-23.93" fill-rule="evenodd" clip-rule="evenodd" fill="#1048F6" width="2.374" height="2.307"></rect>
<rect x="30.78" y="-23.93" fill-rule="evenodd" clip-rule="evenodd" fill="#1048F6" width="6.902" height="2.307"></rect>
<path fill="#1048F6" d="M43.015-16.701H3.845C1.725-16.701,0-18.393,0-20.47v-25.325c0-2.078,1.725-3.77,3.845-3.77h39.17  c2.12,0,3.845,1.691,3.845,3.77v25.325C46.859-18.393,45.135-16.701,43.015-16.701z M3.845-47.718c-1.103,0-1.999,0.861-1.999,1.923  v25.325c0,1.061,0.896,1.923,1.999,1.923h39.17c1.103,0,1.999-0.862,1.999-1.923v-25.325c0-1.062-0.896-1.923-1.999-1.923H3.845z"></path>
<rect x="1.332" y="-45.258" fill="#1048F6" width="44.091" height="1.947"></rect>
<rect x="1.332" y="-36.208" fill="#1048F6" width="44.091" height="2.024"></rect>
<rect x="-33.088" y="-200.279" fill-rule="evenodd" clip-rule="evenodd" width="7.719" height="3.75"></rect>
<rect x="-6.338" y="-200.279" fill-rule="evenodd" clip-rule="evenodd" width="3.859" height="3.75"></rect>
<rect x="-21.088" y="-200.279" fill-rule="evenodd" clip-rule="evenodd" width="11.219" height="3.75"></rect>
<path fill-rule="evenodd" clip-rule="evenodd" fill="none" stroke="#000000" stroke-width="3" stroke-miterlimit="10" d="  M3.547-194.654c0,2.555-2.127,4.625-4.75,4.625h-63.666c-2.623,0-4.75-2.07-4.75-4.625v-41.166c0-2.554,2.127-4.625,4.75-4.625  h63.666c2.623,0,4.75,2.071,4.75,4.625V-194.654z"></path>
<rect x="-68.953" y="-234.945" width="71.667" height="3.166"></rect>
<rect x="-68.953" y="-220.236" width="71.667" height="3.291"></rect>
<path fill-rule="evenodd" clip-rule="evenodd" fill="#1048F6" d="M-66.982-118.43c-2.249,0-4.072,1.823-4.072,4.073  c0,2.249,1.823,4.073,4.072,4.073c2.25,0,4.073-1.824,4.073-4.073C-62.909-116.606-64.732-118.43-66.982-118.43z M-66.982-111.844  c-1.387,0-2.513-1.126-2.513-2.513c0-1.388,1.126-2.513,2.513-2.513c1.389,0,2.514,1.125,2.514,2.513  C-64.469-112.97-65.594-111.844-66.982-111.844z"></path>
<path fill="#1048F6" d="M-38.978-115.864c0,0.608-0.493,1.101-1.101,1.101h-11.81c-0.608,0-1.1-0.493-1.1-1.101l0,0  c0-0.608,0.491-1.1,1.1-1.1h11.81C-39.471-116.963-38.978-116.472-38.978-115.864L-38.978-115.864z"></path>
<path fill="#1048F6" d="M-38.978-102.55c0,0.607-0.493,1.102-1.101,1.102h-11.81c-0.608,0-1.1-0.494-1.1-1.102l0,0  c0-0.608,0.491-1.1,1.1-1.1h11.81C-39.471-103.649-38.978-103.158-38.978-102.55L-38.978-102.55z"></path>
<path fill="#1048F6" d="M-41.859-111.413c0,0.607-0.392,1.1-0.873,1.1h-9.382c-0.481,0-0.873-0.493-0.873-1.1l0,0  c0-0.607,0.392-1.099,0.873-1.099h9.382C-42.251-112.512-41.859-112.02-41.859-111.413L-41.859-111.413z"></path>
<path fill="#1048F6" d="M-41.859-107.071c0,0.607-0.392,1.1-0.873,1.1h-9.382c-0.481,0-0.873-0.492-0.873-1.1l0,0  c0-0.608,0.392-1.1,0.873-1.1h9.382C-42.251-108.171-41.859-107.68-41.859-107.071L-41.859-107.071z"></path>
<path fill-rule="evenodd" clip-rule="evenodd" d="M-109.485-147.517c-10.111-0.003-20.229-0.197-30.332,0.082  c-4.798,0.133-8.105-2.471-8.06-8.299c0.095-12.107,0.014-24.218,0.035-36.326c0.01-5.725,2.395-8.181,8.122-8.192  c20.098-0.038,40.196-0.034,60.294-0.006c5.771,0.008,7.68,1.882,7.699,7.548c0.044,12.609,0.056,25.216,0.016,37.826  c-0.019,5.732-1.681,7.344-7.439,7.361C-89.262-147.493-99.373-147.515-109.485-147.517z M-109.809-150.197c0-0.003,0-0.007,0-0.012  c10.241,0,20.483-0.073,30.724,0.042c3.315,0.037,4.763-1.117,4.734-4.566c-0.104-12.74-0.093-25.48,0.005-38.219  c0.023-3.057-1.092-4.178-4.183-4.165c-20.608,0.092-41.217,0.101-61.824,0.001c-3.133-0.016-4.201,1.171-4.185,4.165  c0.069,12.74,0.061,25.48-0.001,38.219c-0.017,3.339,1.375,4.632,4.754,4.585C-129.794-150.286-119.801-150.197-109.809-150.197z"></path>
<path fill-rule="evenodd" clip-rule="evenodd" d="M-124.901-158.904c-2.871-0.073-3.82,0.132-5.976,0.177  c-1.494,0.031-4.174,0.335-4.182-1.379c-0.012-2.69-0.131-3.406,1.005-5.236c2.073-3.344,6.407-4.639,10.626-4.114  c4.265,0.53,7.647,2.741,9.078,6.833c0.744,2.128,0.059,3.584-2.318,3.689C-119.408-158.813-122.156-158.907-124.901-158.904z   M-117.61-162.344c0.45-5.343-12.499-8.079-14.545,0C-127.158-162.344-122.421-162.344-117.61-162.344z"></path>
<path fill-rule="evenodd" clip-rule="evenodd" d="M-124.787-188.275c-3.772,0-6.83,3.058-6.83,6.831c0,3.773,3.058,6.831,6.83,6.831  c3.773,0,6.831-3.058,6.831-6.831C-117.956-185.217-121.014-188.275-124.787-188.275z M-124.787-177.229  c-2.327,0-4.214-1.887-4.214-4.215c0-2.328,1.887-4.214,4.214-4.214c2.328,0,4.215,1.887,4.215,4.214  C-120.572-179.116-122.459-177.229-124.787-177.229z"></path>
<path d="M-77.813-183.971c0,1.019-0.826,1.845-1.845,1.845h-19.811c-1.019,0-1.845-0.826-1.845-1.845l0,0  c0-1.019,0.826-1.845,1.845-1.845h19.811C-78.639-185.816-77.813-184.99-77.813-183.971L-77.813-183.971z"></path>
<path d="M-77.813-161.638c0,1.019-0.826,1.845-1.845,1.845h-19.811c-1.019,0-1.845-0.826-1.845-1.845l0,0  c0-1.02,0.826-1.846,1.845-1.846h19.811C-78.639-163.483-77.813-162.657-77.813-161.638L-77.813-161.638z"></path>
<path d="M-82.646-176.505c0,1.018-0.656,1.844-1.465,1.844h-15.735c-0.81,0-1.466-0.826-1.466-1.844l0,0  c0-1.02,0.656-1.846,1.466-1.846h15.735C-83.303-178.351-82.646-177.524-82.646-176.505L-82.646-176.505z"></path>
<path d="M-82.646-169.224c0,1.02-0.656,1.846-1.465,1.846h-15.735c-0.81,0-1.466-0.826-1.466-1.846l0,0  c0-1.019,0.656-1.845,1.466-1.845h15.735C-83.303-171.068-82.646-170.242-82.646-169.224L-82.646-169.224z"></path>
<ellipse fill-rule="evenodd" clip-rule="evenodd" fill="none" stroke="#000000" stroke-width="4" stroke-miterlimit="10" cx="-256.227" cy="91.917" rx="33.69" ry="18.042"></ellipse>
<path fill-rule="evenodd" clip-rule="evenodd" fill="none" stroke="#000000" stroke-width="4" stroke-miterlimit="10" d="  M-222.536,91.917c0.85,2.1,1.083,5.335,1.083,7.625c0,13.61-14.57,23.625-34.4,23.625c-19.83,0-34.6-9.015-34.6-22.625  c0-2.29-0.314-6.525,0.536-8.625"></path>
<polyline fill="none" stroke="#000000" stroke-width="3" stroke-linecap="round" stroke-miterlimit="10" points="-243.87,84.167   -267.87,84.167 -267.87,91.917 -244.87,91.917 -245.036,99.334 -267.87,99.334 "></polyline>
<line fill="none" stroke="#000000" stroke-width="3" stroke-linecap="round" stroke-miterlimit="10" x1="-256.227" y1="78.917" x2="-256.227" y2="83.542"></line>
<line fill="none" stroke="#000000" stroke-width="3" stroke-linecap="round" stroke-miterlimit="10" x1="-255.87" y1="100.417" x2="-255.87" y2="105.042"></line>
<path fill="#1048F6" d="M102.011-27.029c-12.562,0-22.4-5.525-22.4-12.58c0-7.053,9.839-12.578,22.4-12.578  s22.399,5.525,22.399,12.578C124.41-32.555,114.572-27.029,102.011-27.029z M102.011-49.677c-10.782,0-19.89,4.611-19.89,10.067  c0,5.458,9.107,10.069,19.89,10.069c10.78,0,19.889-4.611,19.889-10.069C121.899-45.065,112.791-49.677,102.011-49.677z"></path>
<path fill="#1048F6" d="M102.245-18.74c-13.525,0-22.972-6.355-22.972-15.456c0-0.27-0.007-0.587-0.015-0.93  c-0.038-1.627-0.084-3.651,0.443-4.953l2.326,0.94c-0.331,0.823-0.289,2.708-0.259,3.957c0.008,0.362,0.015,0.698,0.015,0.985  c0,7.623,8.415,12.945,20.461,12.945c11.782,0,20.335-5.707,20.335-13.571c0-1.793-0.221-3.405-0.589-4.316l2.327-0.94  c0.673,1.659,0.772,4.006,0.772,5.257C125.091-25.505,115.482-18.74,102.245-18.74z"></path>
<path fill="#1048F6" d="M109.954-34.012H94.703c-0.521,0-0.941-0.421-0.941-0.942c0-0.519,0.421-0.94,0.941-0.94h13.41l0.063-2.772  H93.762v-6.748h16.004c0.521,0,0.941,0.423,0.941,0.942s-0.421,0.94-0.941,0.94H95.645v2.981h14.456L109.954-34.012z"></path>
<path fill="#1048F6" d="M102.011-43.924c-0.521,0-0.94-0.421-0.94-0.941v-2.902c0-0.52,0.42-0.942,0.94-0.942  c0.519,0,0.941,0.423,0.941,0.942v2.902C102.952-44.345,102.529-43.924,102.011-43.924z"></path>
<path fill="#1048F6" d="M102.234-30.429c-0.52,0-0.941-0.423-0.941-0.942v-2.902c0-0.521,0.422-0.942,0.941-0.942  c0.521,0,0.94,0.422,0.94,0.942v2.902C103.175-30.852,102.755-30.429,102.234-30.429z"></path>
<path fill-rule="evenodd" clip-rule="evenodd" fill="#FFFFFF" d="M-58.52-45.135c2.543-1.472,4.243-3.339,6.593-4.485  c3.831-1.869,7.271-0.789,10.469,1.729c3.67,2.891,7.043,8.56,4.425,15.464c-2.707,7.73-8.314,13.406-14.983,18.028  c-1.62,1.124-3.266,2.21-4.859,3.368c-1.117,0.812-2.071,0.82-3.299,0.063c-8.067-4.979-15.189-10.88-19.299-19.702  c-3.481-7.476-1.352-15.758,7.085-18.967c4.983-1.895,8.857,0.019,12.489,3.152C-59.471-46.114-58.614-45.235-58.52-45.135z   M-78.101-38.302c0.065,4.086,1.313,7.313,3.301,10.284c3.962,5.924,9.242,10.441,15.259,14.139  c0.468,0.287,1.428,0.299,1.877,0.006c4.366-2.85,8.654-5.809,12.01-9.901c3.131-3.82,6.051-7.705,6.526-12.897  c0.397-4.342-1.656-8.273-5.929-10.088c-3.001-1.274-6.774-1.198-9.994,2.126c-0.873,0.901-1.295,1.847-2.257,3.055  c-0.737,0.924-1.031,1.472-2.666-0.824c-0.295-0.416-0.501-0.649-0.768-1.084c-2.308-3.747-6.759-5.012-10.87-3.514  C-75.472-45.593-77.983-42.562-78.101-38.302z"></path>
<image width="260" height="432" xlink:href="7.jpg" transform="matrix(0.75 0 0 0.75 714.2139 -377.2373)">
</image>
<image width="243" height="307" xlink:href="8.jpg" transform="matrix(0.75 0 0 0.75 584.5029 -593.7012)">
</image>
<image width="223" height="339" xlink:href="9.jpg" transform="matrix(0.75 0 0 0.75 779.9639 -3.958)">
</image>
<image width="291" height="350" xlink:href="10.jpg" transform="matrix(0.75 0 0 0.75 1235.2969 -201.9756)">
</image>
<path fill="#FFFFFF" d="M36.647,16.025l-1.412-1.233c-0.067-0.058-4.254-3.617-10.099-3.617c-3.263,0-6.452,1.098-9.479,3.263  l-1.245,0.891l-0.027-1.53C14.35,11.801,14.376,1.804,18.42,1.193c1.087-0.164,2.828-0.247,5.174-0.247  c3.762,0,7.937,0.215,8.358,0.237h0.016c1.216,0,4.099,1.264,4.6,12.968L36.647,16.025z M25.137,9.566  c4.408,0,7.893,1.779,9.73,2.971c-0.611-8.825-2.708-9.684-2.903-9.742L31.9,2.792c-0.044-0.003-4.403-0.237-8.307-0.237  c-2.266,0-3.926,0.077-4.934,0.229c-1.731,0.261-2.552,5.373-2.659,9.495C18.927,10.478,21.993,9.566,25.137,9.566z"></path>
<path fill="#FFFFFF" d="M23.594,48.722c-2.346,0-4.087-0.083-5.174-0.247c-4.044-0.61-4.07-10.607-4.035-12.604l0.027-1.53  l1.245,0.891c3.027,2.165,6.217,3.263,9.479,3.263c5.887,0,10.057-3.581,10.098-3.617l1.413-1.233l-0.08,1.874  c-0.501,11.704-3.384,12.968-4.6,12.968h-0.019C31.505,48.508,27.345,48.722,23.594,48.722z M16.001,37.39  c0.109,4.122,0.93,9.233,2.659,9.494c1.008,0.152,2.668,0.229,4.934,0.229c3.904,0,8.263-0.234,8.307-0.237l0.063-0.003l0.012,0.001  c0.134-0.04,2.273-0.809,2.893-9.743c-1.838,1.191-5.322,2.971-9.73,2.971C21.993,40.102,18.927,39.19,16.001,37.39z"></path>
<path fill="#FFFFFF" d="M25.242,40.457c-8.51,0-15.434-6.904-15.434-15.391c0-8.487,6.924-15.393,15.434-15.393  s15.433,6.905,15.433,15.393C40.675,33.553,33.752,40.457,25.242,40.457z M25.242,11.282c-7.623,0-13.825,6.184-13.825,13.784  c0,7.6,6.202,13.782,13.825,13.782s13.824-6.183,13.824-13.782C39.066,17.466,32.865,11.282,25.242,11.282z"></path>
<path fill="#FFFFFF" d="M25.289,26.031l-6.223-3.716c-0.382-0.228-0.507-0.722-0.279-1.103c0.229-0.382,0.723-0.506,1.104-0.278  l5.304,3.166l7.477-5.535c0.357-0.263,0.86-0.189,1.126,0.168c0.264,0.357,0.188,0.861-0.168,1.126L25.289,26.031z"></path>
<path fill="#FFFFFF" d="M42.463,22.72h-1.084c-1.26,0-2.281,0.963-2.281,2.15v0.793c0,1.188,1.021,2.15,2.281,2.15h1.084  c1.26,0,2.281-0.963,2.281-2.15V24.87C44.744,23.683,43.723,22.72,42.463,22.72z M43.353,25.467c0,0.604-0.517,1.092-1.157,1.092  h-0.55c-0.64,0-1.156-0.488-1.156-1.092v-0.4c0-0.604,0.517-1.092,1.156-1.092h0.55c0.641,0,1.157,0.488,1.157,1.092V25.467z"></path>
</svg>