<svg xmlns="http://www.w3.org/2000/svg" xmlns:xlink="http://www.w3.org/1999/xlink" id="Layer_1" x="0px" y="0px" width="50px" height="50px" viewBox="0 0 50 50" xml:space="preserve">
<path fill-rule="evenodd" clip-rule="evenodd" fill="#1B50F4" d="M-204.262,35.785c0,0.159-0.002,0.318,0,0.478  c0.002,0.209-0.099,0.359-0.262,0.479c-0.405,0.297-0.868,0.469-1.343,0.609c-0.932,0.276-1.883,0.468-2.85,0.563  c-1.225,0.12-2.451,0.231-3.679,0.304c-0.982,0.058-1.969,0.085-2.953,0.067c-1.04-0.02-2.079-0.104-3.117-0.17  c-1.197-0.076-2.384-0.241-3.561-0.471c-0.703-0.137-1.398-0.314-2.051-0.624c-0.154-0.073-0.301-0.164-0.442-0.26  c-0.304-0.208-0.328-0.525-0.304-0.852c0.033-0.456,0.04-0.916,0.114-1.365c0.14-0.85,0.276-1.704,0.493-2.536  c0.302-1.157,0.771-2.255,1.388-3.286c0.746-1.248,1.646-2.364,2.797-3.262c1.099-0.857,2.31-1.486,3.683-1.786  c0.731-0.158,1.468-0.245,2.211-0.201c1.282,0.074,2.499,0.408,3.635,1.02c0.768,0.413,1.459,0.927,2.101,1.519  c0.6,0.554,1.131,1.163,1.597,1.83c0.479,0.687,0.9,1.407,1.242,2.172c0.56,1.252,0.943,2.559,1.137,3.916  c0.088,0.615,0.132,1.235,0.195,1.854C-204.242,35.783-204.252,35.784-204.262,35.785z"></path>
<path fill-rule="evenodd" clip-rule="evenodd" fill="#1B50F4" d="M-195.735,35.875c0.045-1.619,0.312-3.127,0.812-4.591  c0.274-0.805,0.618-1.578,1.036-2.321c0.544-0.967,1.191-1.854,1.965-2.646c0.731-0.748,1.568-1.367,2.493-1.856  c0.873-0.462,1.804-0.776,2.782-0.913c1.624-0.227,3.185,0.011,4.683,0.686c1.204,0.543,2.24,1.314,3.143,2.269  c0.82,0.867,1.492,1.841,2.038,2.903c0.677,1.315,1.129,2.706,1.373,4.159c0.117,0.699,0.147,1.413,0.214,2.12  c0.016,0.158,0.024,0.316,0.028,0.476c0.008,0.263-0.109,0.459-0.322,0.61c-0.464,0.33-0.991,0.517-1.534,0.645  c-0.716,0.168-1.438,0.313-2.162,0.437c-0.568,0.097-1.144,0.158-1.718,0.209c-0.879,0.078-1.758,0.159-2.639,0.189  c-0.984,0.034-1.971,0.025-2.955,0.014c-0.654-0.008-1.309-0.039-1.961-0.084c-0.79-0.056-1.581-0.119-2.368-0.212  c-0.698-0.083-1.396-0.191-2.087-0.321c-0.746-0.141-1.487-0.319-2.169-0.669c-0.183-0.094-0.355-0.221-0.503-0.362  c-0.081-0.079-0.124-0.218-0.143-0.336C-195.753,36.124-195.735,35.962-195.735,35.875z"></path>
<path fill-rule="evenodd" clip-rule="evenodd" fill="#1B50F4" d="M-179.867,17.303c-0.019,3.116-2.473,5.519-5.423,5.592  c-3.293,0.081-5.67-2.529-5.75-5.409c-0.09-3.271,2.509-5.736,5.496-5.773C-182.374,11.672-179.867,14.228-179.867,17.303z"></path>
<path fill-rule="evenodd" clip-rule="evenodd" fill="#1B50F4" d="M-214.516,22.905c-3.131-0.045-5.542-2.465-5.602-5.459  c-0.065-3.282,2.491-5.697,5.511-5.73c3.17-0.035,5.625,2.436,5.663,5.504C-208.904,20.415-211.406,22.85-214.516,22.905z"></path>
<path fill-rule="evenodd" clip-rule="evenodd" fill="#1B50F4" d="M-196.833,22.48c-0.06-0.093-0.083-0.149-0.124-0.189  c-0.364-0.362-0.73-0.722-1.097-1.081c-0.04-0.041-0.078-0.083-0.114-0.127c-0.096-0.117-0.114-0.238-0.007-0.361  c0.11-0.126,0.243-0.148,0.368-0.041c0.191,0.165,0.371,0.345,0.551,0.523c0.428,0.424,0.855,0.85,1.279,1.279  c0.215,0.219,0.209,0.376-0.012,0.6c-0.558,0.563-1.111,1.131-1.678,1.686c-0.099,0.096-0.2,0.271-0.397,0.154  c-0.223-0.133-0.245-0.307-0.059-0.49c0.384-0.381,0.769-0.76,1.151-1.139c0.048-0.047,0.089-0.101,0.136-0.152  c-0.14-0.092-7.816-0.106-8.018-0.018c0.049,0.057,0.09,0.109,0.137,0.156c0.364,0.363,0.726,0.729,1.095,1.088  c0.245,0.238,0.259,0.412,0.015,0.544c-0.06,0.032-0.176,0.025-0.231-0.014c-0.144-0.102-0.274-0.225-0.4-0.35  c-0.475-0.473-0.949-0.946-1.416-1.427c-0.286-0.294-0.289-0.387-0.003-0.68c0.544-0.559,1.099-1.107,1.652-1.656  c0.119-0.117,0.257-0.227,0.437-0.123c0.179,0.103,0.176,0.324,0.011,0.485c-0.391,0.38-0.779,0.763-1.166,1.147  c-0.041,0.039-0.063,0.098-0.117,0.185C-202.162,22.48-199.528,22.48-196.833,22.48z"></path>
<path fill-rule="evenodd" clip-rule="evenodd" fill="#1B50F4" d="M-140.641,12.941c-0.02,0.108-0.046,0.188-0.046,0.269  c0.004,2.943,0.013,5.888,0.01,8.832c-0.001,0.261,0.1,0.327,0.333,0.396c2.157,0.638,4.281,1.355,6.168,2.634  c1.708,1.156,2.915,2.686,3.493,4.674c0.487,1.678,0.59,3.391,0.389,5.125c-0.175,1.508-0.613,2.933-1.402,4.229  c-1.146,1.882-2.797,3.173-4.826,4.005c-1.086,0.445-2.215,0.72-3.367,0.906c-0.267,0.043-0.381,0.137-0.378,0.43  c0.017,1.681,0.011,3.361,0.019,5.042c0.003,0.512,0.005,0.519-0.499,0.519c-1.752-0.001-3.505-0.007-5.257,0.006  c-0.301,0.002-0.385-0.095-0.383-0.388c0.012-1.729,0.002-3.457,0.01-5.186c0.002-0.27-0.035-0.399-0.358-0.47  c-1.25-0.273-2.503-0.552-3.726-0.925c-1.233-0.376-2.358-1.014-3.409-1.761c-1.15-0.817-2.161-1.789-3.032-2.902  c-0.071-0.092-0.136-0.189-0.232-0.324c1.877-1.319,3.731-2.621,5.619-3.947c1.429,1.786,3.095,3.194,5.488,3.608  c0-0.172,0-0.297,0-0.423c0-3.004-0.004-6.008,0.007-9.012c0.001-0.287-0.104-0.376-0.362-0.456  c-2.122-0.655-4.171-1.472-5.95-2.844c-1.907-1.47-3.138-3.36-3.596-5.747c-0.351-1.828-0.341-3.646,0.139-5.44  c0.736-2.756,2.422-4.748,4.974-6.018c1.291-0.643,2.66-1.021,4.081-1.226c0.253-0.036,0.361-0.128,0.359-0.408  c-0.012-1.848,0.002-3.695-0.012-5.543c-0.002-0.309,0.074-0.409,0.396-0.406c1.775,0.016,3.552,0.015,5.328,0  c0.311-0.002,0.411,0.076,0.408,0.396c-0.014,1.764-0.021,3.528,0.002,5.292c0.01,0.761-0.136,0.618,0.644,0.771  c1.885,0.371,3.647,1.018,5.271,2.076c1.399,0.913,2.531,2.07,3.519,3.395c0.157,0.211,0.178,0.354-0.063,0.525  c-1.612,1.14-3.217,2.292-4.825,3.438c-0.435,0.311-0.45,0.315-0.765-0.145c-0.717-1.048-1.598-1.914-2.727-2.507  C-139.647,13.199-140.098,12.954-140.641,12.941z M-140.679,37.622c0.548-0.126,1.014-0.337,1.437-0.639  c0.997-0.714,1.546-1.69,1.629-2.91c0.068-1.008-0.124-1.951-0.766-2.777c-0.494-0.636-1.142-1.063-1.828-1.446  c-0.125-0.069-0.279-0.089-0.42-0.132c-0.026,0.134-0.075,0.269-0.075,0.402c-0.006,2.37-0.005,4.739-0.004,7.109  C-140.706,37.345-140.69,37.46-140.679,37.622z M-146.051,20.55c0-2.516,0-5.021,0-7.529c-1.244,0.082-2.555,1.679-2.677,3.235  C-148.896,18.406-147.76,19.869-146.051,20.55z"></path>
<path fill-rule="evenodd" clip-rule="evenodd" fill="#1B50F4" d="M-48.396,31.951c-1.459-0.627-2.461-1.611-2.895-3.039  c-0.514-1.689-0.907-3.415-1.333-5.129c-0.565-2.279-1.121-4.561-1.659-6.847c-0.271-1.147-0.585-2.295-0.716-3.462  c-0.189-1.685,0.433-3.132,1.699-4.261c0.734-0.654,1.63-1.03,2.585-1.262c2.006-0.486,4.011-0.979,6.018-1.467  c2.672-0.649,5.345-1.291,8.016-1.945c2.21-0.541,4.416-1.099,6.626-1.643c1.402-0.346,2.801-0.715,4.215-1.004  c0.834-0.17,1.638,0.108,2.417,0.413c1.978,0.773,2.911,2.333,3.375,4.313c0.822,3.516,1.704,7.017,2.561,10.523  c0.174,0.71,0.331,1.425,0.523,2.13c0.082,0.299-0.002,0.389-0.289,0.381c-0.31-0.01-0.62-0.002-0.93-0.002  c-6.767,0-13.533,0-20.3,0c-1.297,0-2.585,0.077-3.83,0.491c-2.264,0.754-3.877,2.276-5.043,4.309  c-0.738,1.285-1.06,2.683-1.042,4.164C-48.386,29.699-48.396,30.783-48.396,31.951z M-29.539,11.111  c0.021,0.15,0.021,0.193,0.031,0.233c0.451,1.855,0.905,3.71,1.352,5.566c0.063,0.259,0.22,0.301,0.441,0.248  c0.354-0.084,0.71-0.169,1.064-0.257c1.47-0.364,2.938-0.731,4.409-1.091c0.294-0.071,0.424-0.176,0.321-0.52  c-0.179-0.603-0.298-1.223-0.446-1.835c-0.29-1.201-0.582-2.402-0.875-3.603c-0.06-0.245-0.14-0.371-0.466-0.29  c-1.835,0.46-3.68,0.881-5.519,1.327C-29.356,10.923-29.462,11.055-29.539,11.111z"></path>
<path fill-rule="evenodd" clip-rule="evenodd" fill="#1B50F4" d="M-26.744,48.352c-4.172,0-8.345,0.023-12.517-0.008  c-2.211-0.018-3.927-0.98-4.862-3.027c-0.335-0.734-0.534-1.596-0.543-2.4c-0.051-4.693-0.077-9.389-0.008-14.08  c0.045-3.033,2.143-5.384,5.401-5.391c8.316-0.02,16.633-0.009,24.949-0.004c1.372,0,2.604,0.442,3.614,1.369  c1.139,1.046,1.739,2.364,1.74,3.926c0.002,4.82,0,9.641,0,14.461c0,2.328-1.923,4.641-4.212,5.045  c-0.372,0.066-0.754,0.107-1.132,0.107c-4.144,0.008-8.288,0.004-12.432,0.004C-26.744,48.354-26.744,48.354-26.744,48.352z   M-26.786,35.822c-0.479,0-0.958,0-1.438,0c-4.398,0-8.796,0.002-13.194,0c-0.288,0-0.56-0.039-0.557,0.41  c0.016,2.326-0.017,4.652,0.026,6.977c0.016,0.846,0.388,1.563,1.152,2.041c0.605,0.379,1.265,0.436,1.944,0.436  c8.091,0,16.183-0.006,24.273,0.002c1.751,0.002,2.934-0.979,2.951-2.918c0.02-2.1,0.006-4.201,0.001-6.301  c-0.001-0.6-0.056-0.645-0.654-0.645C-17.115,35.822-21.951,35.822-26.786,35.822z M-26.885,30.607c4.216,0,8.432,0,12.647,0  c0.677,0,1.354-0.014,2.03,0.006c0.37,0.01,0.542-0.092,0.515-0.5c-0.032-0.492-0.044-0.99,0.001-1.479  c0.104-1.139-1.054-2.461-2.336-2.469c-0.813-0.004-1.626,0.004-2.439,0.004c-7.698,0-15.396-0.002-23.094-0.002  c-1.214,0-2.221,0.922-2.313,2.121c-0.041,0.547-0.058,1.096-0.098,1.643c-0.049,0.676-0.054,0.676,0.621,0.676  C-36.528,30.607-31.706,30.607-26.885,30.607z"></path>
<path fill-rule="evenodd" clip-rule="evenodd" fill="#1B50F4" d="M60.283,30.228c0-4.471,0-8.942,0-13.414  c0.026-0.13,0.074-0.261,0.075-0.391c0.005-2.116,0.004-4.232,0.005-6.349c0-0.199-0.017-0.4,0.013-0.596  c0.31-2.055,2.026-3.297,3.923-3.301c13.104-0.03,26.209-0.017,39.313-0.012c0.304,0,0.612,0.035,0.91,0.098  c1.947,0.405,3.195,1.953,3.195,3.934c-0.001,8.535,0,17.069-0.002,25.604c0,1.314-0.591,2.342-1.595,3.142  c-0.739,0.589-1.612,0.75-2.541,0.749c-8.366-0.007-16.731-0.004-25.097-0.004c-0.447,0-0.451,0.001-0.451,0.439  c-0.001,2.295-0.001,4.59-0.001,6.885c0,0.144,0,0.287,0,0.431c-0.026,0.012-0.054,0.023-0.081,0.034  c-1.596-1.611-3.191-3.223-4.827-4.875c-1.632,1.643-3.229,3.25-4.885,4.915c0-0.175,0-0.27,0-0.364  c0-2.364-0.007-4.729,0.006-7.094c0.002-0.313-0.099-0.381-0.39-0.378c-1.242,0.013-2.484-0.003-3.726,0.004  c-2.031,0.011-3.804-1.802-3.773-3.811c0.026-1.738,0.007-3.478,0.001-5.216C60.356,30.515,60.309,30.371,60.283,30.228z   M83.968,8.082c-6.557,0-13.114,0.008-19.672-0.008c-1.12-0.002-2.063,0.682-2.064,2.034c-0.007,8.534-0.003,17.068,0,25.603  c0,1.209,0.862,2.092,2.074,2.106c1.202,0.016,2.404,0,3.606,0.007c0.236,0.001,0.333-0.068,0.33-0.325  c-0.013-1.014-0.028-2.027,0.005-3.04c0.019-0.563-0.119-0.996-0.497-1.447c-1.161-1.385-1.625-3.004-1.429-4.816  c0.217-1.994,1.131-3.591,2.716-4.792c1.47-1.114,3.137-1.565,4.979-1.326c1.182,0.153,2.282,0.545,3.226,1.265  c1.818,1.387,2.712,3.294,2.796,5.543c0.064,1.7-0.672,3.149-1.727,4.451c-0.139,0.17-0.246,0.421-0.25,0.636  c-0.021,1.132-0.008,2.265,0,3.397c0.004,0.451,0.012,0.452,0.453,0.452c6.518,0,13.035,0,19.553,0c1.868,0,3.735,0.007,5.604-0.005  c0.583-0.004,1.146-0.111,1.59-0.547c0.49-0.48,0.566-1.097,0.566-1.73c0.004-8.365,0.005-16.73,0.002-25.096  c0-0.267-0.004-0.542-0.064-0.799c-0.235-0.991-0.989-1.561-2.035-1.562C97.143,8.083,90.556,8.083,83.968,8.082z M78.134,28.914  c0.059-2.828-2.197-5.045-5.013-5.031c-2.781,0.014-4.967,2.195-4.973,4.998c-0.006,2.815,2.213,5.004,5.106,4.984  C76.003,33.846,78.152,31.62,78.134,28.914z M76.131,35.17c-0.988,0.333-1.962,0.578-2.978,0.577  c-1.017-0.001-1.991-0.248-2.973-0.579c0,2.617,0,5.161,0,7.705c0.026,0.02,0.053,0.039,0.08,0.059  c0.975-0.97,1.949-1.939,2.932-2.917c0.966,0.96,1.908,1.897,2.852,2.835c0.029-0.019,0.058-0.037,0.087-0.056  C76.131,40.28,76.131,37.767,76.131,35.17z"></path>
<path fill-rule="evenodd" clip-rule="evenodd" fill="#1B50F4" d="M101.756,17.911c-0.127,0.007-0.223,0.017-0.319,0.017  c-11.575,0-23.149,0-34.724,0c-0.412,0-0.41-0.001-0.413-0.403c-0.004-0.397-0.011-0.795-0.019-1.191  c-0.004-0.154,0.05-0.245,0.222-0.239c0.219,0.006,0.438,0.002,0.655,0.002c11.406,0,22.812,0.001,34.218-0.006  c0.292,0,0.406,0.063,0.387,0.378C101.734,16.94,101.756,17.416,101.756,17.911z"></path>
<path fill-rule="evenodd" clip-rule="evenodd" fill="#1B50F4" d="M84.099,23.888c0-0.601-0.003-1.173,0.006-1.745  c0-0.041,0.082-0.101,0.137-0.115c0.073-0.021,0.157-0.007,0.236-0.007c5.642,0,11.282,0,16.924-0.001c0.106,0,0.213,0,0.352,0  c0,0.59,0.006,1.143-0.008,1.696c-0.002,0.059-0.11,0.134-0.186,0.165c-0.067,0.028-0.156,0.007-0.235,0.007  c-5.621,0-11.243,0-16.864,0C84.354,23.888,84.246,23.888,84.099,23.888z"></path>
<path fill-rule="evenodd" clip-rule="evenodd" fill="#1B50F4" d="M101.755,29.77c-3.929,0-7.815,0-11.736,0  c0-0.573-0.005-1.127,0.007-1.68c0.001-0.055,0.096-0.129,0.161-0.155c0.069-0.027,0.157-0.007,0.236-0.007  c3.654,0.001,7.309,0.005,10.963-0.006c0.31-0.001,0.392,0.091,0.376,0.389C101.737,28.785,101.755,29.262,101.755,29.77z"></path>
<path fill-rule="evenodd" clip-rule="evenodd" fill="#1B50F4" d="M43.082,12.913c-0.069,2.612-0.438,4.74-0.988,6.838  c-0.671,2.561-1.613,5.021-2.699,7.434c-1.012,2.245-2.131,4.436-3.45,6.512c-1.048,1.649-2.194,3.237-3.313,4.842  c-1.239,1.777-2.666,3.4-4.206,4.918c-1.615,1.593-3.316,3.086-5.308,4.209c-1.021,0.577-2.124,0.945-3.268,1.148  c-0.839,0.149-1.673-0.063-2.487-0.302c-1.365-0.399-2.574-1.141-3.844-1.749c-0.282-0.518-0.682-0.297-1.108-0.238  c-0.373,0.052-0.824,0.003-1.152-0.17c-1.137-0.599-2.252-1.242-3.342-1.923c-1.068-0.668-1.276-1.707-0.642-2.804  c0.833-1.438,1.66-2.88,2.489-4.32c1.164-2.022,2.329-4.044,3.49-6.067c0.572-0.999,1.658-1.408,2.75-0.805  c1.116,0.616,2.226,1.246,3.316,1.906c0.594,0.359,0.907,0.924,0.863,1.638c-0.021,0.332,0.112,0.517,0.399,0.672  c1.482,0.806,2.941,0.663,4.359-0.129c1.735-0.969,3.062-2.383,4.172-4.008c1.229-1.798,2.217-3.716,2.77-5.831  c0.384-1.471,0.632-2.959,0.337-4.492c-0.25-1.302-0.987-2.22-2.12-2.852c-0.066-0.037-0.183-0.05-0.244-0.017  c-0.872,0.467-1.665,0.22-2.445-0.242c-0.861-0.511-1.736-0.999-2.597-1.512c-0.716-0.426-1.227-1.009-1.147-1.899  c0.032-0.352,0.152-0.721,0.326-1.028c1.164-2.063,2.352-4.111,3.533-6.163c0.79-1.371,1.588-2.738,2.373-4.112  c0.54-0.944,1.47-1.448,2.313-1.133c0.611,0.229,1.176,0.587,1.752,0.903c0.589,0.322,1.17,0.659,1.748,1  c0.656,0.387,1.146,0.89,1.21,1.708c0.011,0.14,0.137,0.315,0.261,0.395c0.785,0.502,1.606,0.947,2.373,1.475  c1.461,1.004,2.692,2.222,3.146,4.008C42.918,11.575,43.007,12.462,43.082,12.913z"></path>
<path fill-rule="evenodd" clip-rule="evenodd" fill="#1B50F4" d="M-83.73,37.93c0.044,0.772,0.041,1.514,0.137,2.241  c0.169,1.29,0.916,2.225,1.951,2.961c0.234,0.167,0.443,0.369,0.663,0.557c0.403,0.344,0.879,0.412,1.391,0.401  c0.804-0.018,1.607-0.008,2.41-0.005c0.353,0.001,0.706,0.005,1.058,0.021c0.308,0.014,0.563,0.133,0.689,0.437  c0.116,0.282,0.05,0.553-0.169,0.742c-0.141,0.122-0.347,0.173-0.53,0.239c-0.072,0.025-0.161,0.005-0.243,0.005  c-7.953,0-15.905,0-23.858-0.003c-0.161,0-0.325-0.02-0.48-0.06c-0.37-0.096-0.617-0.43-0.573-0.752  c0.048-0.349,0.353-0.603,0.747-0.61c0.335-0.006,0.67,0.003,1.004-0.004c0.696-0.013,1.392-0.033,2.088-0.047  c0.341-0.007,0.687,0.028,1.021-0.018c0.221-0.03,0.457-0.132,0.633-0.27c0.533-0.417,1.051-0.856,1.556-1.309  c0.756-0.676,1.148-1.53,1.204-2.545c0.035-0.645,0.092-1.289,0.143-1.981c-0.188,0-0.337,0-0.487,0  c-6.08,0-12.16-0.006-18.24,0.009c-0.693,0.001-0.917-0.392-0.916-0.923c0.006-9.455,0.004-18.91,0.003-28.365  c0-0.674,0.255-0.925,0.935-0.925c15.526,0.001,31.052,0.001,46.578,0.007c0.196,0,0.407,0.056,0.585,0.142  c0.205,0.099,0.304,0.299,0.293,0.539c-0.005,0.1,0,0.199,0,0.299c0,9.4-0.005,18.801,0.009,28.202  c0.002,0.807-0.286,1.026-1.042,1.024c-5.989-0.015-11.979-0.009-17.969-0.01C-83.313,37.93-83.482,37.93-83.73,37.93z   M-88.255,9.152c-7.438,0-14.874,0-22.311,0c-0.472,0-0.539,0.064-0.539,0.522c0.001,6.695,0.001,13.39,0.001,20.085  c0,0.108-0.001,0.217,0,0.325c0.002,0.246,0.137,0.361,0.371,0.374c0.108,0.007,0.217,0.003,0.326,0.003c14.502,0,29.004,0,43.507,0  c0.316,0,0.633,0.004,0.95-0.001c0.351-0.005,0.443-0.115,0.419-0.468c-0.016-0.233-0.033-0.468-0.032-0.702  c0.011-6.558,0.024-13.116,0.038-19.674c0.001-0.465,0.002-0.465-0.476-0.465C-73.418,9.152-80.837,9.152-88.255,9.152z   M-88.337,36.5c7.454,0,14.908,0,22.363,0c0.405,0,0.405,0,0.405-0.397c0.001-1.267,0-2.533,0-3.8c0-0.402,0-0.402-0.402-0.402  c-14.828,0-29.655-0.001-44.482-0.001c-0.1,0-0.2,0.011-0.299-0.001c-0.237-0.029-0.308,0.064-0.306,0.305  c0.013,1.275,0.005,2.552,0.008,3.827c0.001,0.514-0.07,0.469,0.458,0.469C-103.174,36.5-95.756,36.5-88.337,36.5z M-82.974,44.021  c0.01-0.021,0.021-0.044,0.031-0.066c-0.304-0.331-0.609-0.66-0.91-0.993c-0.58-0.645-1-1.383-1.096-2.247  c-0.089-0.804-0.096-1.618-0.109-2.429c-0.004-0.259-0.084-0.313-0.325-0.313c-1.899,0.008-3.798,0.002-5.697,0.006  c-0.526,0.001-0.465-0.091-0.484,0.469c-0.027,0.773-0.026,1.554-0.127,2.318c-0.126,0.964-0.674,1.734-1.313,2.44  c-0.226,0.249-0.442,0.507-0.71,0.814C-90.077,44.021-86.525,44.021-82.974,44.021z"></path>
<path fill-rule="evenodd" clip-rule="evenodd" fill="#1B50F4" d="M-93.106,27.829c0.283-0.518,0.54-0.989,0.801-1.46  c0.358-0.646,0.722-1.291,1.078-1.939c0.721-1.312,1.437-2.626,2.155-3.939c0.836-1.526,1.67-3.053,2.507-4.577  c0.677-1.232,1.36-2.462,2.034-3.695c0.078-0.144,0.163-0.212,0.334-0.209c0.558,0.011,1.115,0.004,1.721,0.004  c-0.134,0.258-0.24,0.473-0.355,0.683c-1.146,2.075-2.297,4.148-3.439,6.226c-0.595,1.081-1.173,2.172-1.767,3.253  c-0.712,1.296-1.434,2.586-2.148,3.879c-0.271,0.489-0.54,0.979-0.798,1.476c-0.109,0.212-0.234,0.322-0.499,0.309  C-92.007,27.811-92.531,27.829-93.106,27.829z"></path>
<path fill-rule="evenodd" clip-rule="evenodd" fill="#1B50F4" d="M-93.135,16.038c0,0.745,0.007,1.467-0.01,2.188  c-0.002,0.086-0.113,0.201-0.203,0.249c-0.859,0.456-1.726,0.898-2.587,1.351c-0.088,0.047-0.158,0.13-0.236,0.195  c0.075,0.071,0.14,0.163,0.229,0.209c0.865,0.447,1.735,0.883,2.601,1.331c0.084,0.043,0.196,0.143,0.198,0.218  c0.015,0.721,0.009,1.441,0.009,2.223c-0.366-0.2-0.688-0.371-1.006-0.55c-1.444-0.812-2.889-1.623-4.328-2.444  c-0.079-0.045-0.153-0.175-0.156-0.267c-0.016-0.479-0.016-0.959,0-1.438c0.004-0.093,0.079-0.222,0.16-0.269  c1.35-0.773,2.704-1.538,4.06-2.302C-93.999,16.503-93.587,16.284-93.135,16.038z"></path>
<path fill-rule="evenodd" clip-rule="evenodd" fill="#1B50F4" d="M-80.342,20.041c-0.146-0.098-0.222-0.157-0.305-0.201  c-0.828-0.431-1.654-0.865-2.488-1.284c-0.218-0.108-0.321-0.228-0.311-0.49c0.023-0.568,0.005-1.139,0.005-1.708  c0-0.088,0.008-0.175,0.014-0.304c0.563,0.314,1.096,0.611,1.628,0.91c1.177,0.662,2.349,1.331,3.532,1.98  c0.212,0.117,0.303,0.241,0.293,0.481c-0.016,0.406-0.016,0.813,0.002,1.22c0.008,0.201-0.063,0.318-0.233,0.407  c-0.448,0.231-0.896,0.461-1.334,0.709c-0.602,0.341-1.189,0.702-1.789,1.045c-0.68,0.389-1.366,0.767-2.083,1.169  c-0.012-0.094-0.028-0.168-0.028-0.242c-0.001-0.615-0.008-1.229,0.011-1.844c0.003-0.108,0.088-0.263,0.18-0.313  c0.665-0.36,1.342-0.698,2.013-1.048C-80.955,20.382-80.679,20.225-80.342,20.041z"></path>
</svg>