<svg xmlns="http://www.w3.org/2000/svg" xmlns:xlink="http://www.w3.org/1999/xlink" id="Layer_1" x="0px" y="0px" width="50px" height="40.875px" viewBox="0 0 50 40.875" xml:space="preserve">
<image width="1501" height="1500" xlink:href="Why Choose Us Icons_High Quality Software.jpg" transform="matrix(0.24 0 0 0.24 -814.0723 -160)">
</image>
<path fill-rule="evenodd" clip-rule="evenodd" fill="#1B50F4" d="M49.439,0.817c0,10.422,0,20.799,0,31.205  c-5.697,0-11.38,0-17.117,0c0.043,0.34,0.07,0.647,0.121,0.953c0.148,0.902,0.389,1.772,0.912,2.543  c0.479,0.708,1.188,1.021,1.995,1.082c0.87,0.067,1.745,0.052,2.619,0.071c0.098,0.001,0.193,0,0.317,0c0,0.314,0.002,0.591,0,0.869  c-0.012,0.775-0.026,1.549-0.037,2.323c-0.005,0.358-0.003,0.359-0.362,0.359c-6.66-0.008-13.32-0.016-19.98-0.022  c-1.445,0-2.889-0.005-4.333,0.004c-0.227,0.002-0.292-0.067-0.29-0.291c0.013-0.992,0.015-1.985,0.007-2.979  c-0.002-0.229,0.073-0.293,0.295-0.288c0.722,0.015,1.445,0.047,2.164,0.007c0.506-0.027,1.018-0.12,1.508-0.255  c0.653-0.175,1.088-0.645,1.396-1.236c0.388-0.743,0.605-1.537,0.71-2.364c0.029-0.238,0.066-0.479,0.103-0.756  c-6.286,0-12.544,0-18.843,0c0-0.15,0-0.264,0-0.378c0-10.181,0.001-20.363-0.004-30.544c0-0.229,0.048-0.309,0.295-0.309  C16.99,0.818,33.068,0.817,49.143,0.817C49.231,0.817,49.319,0.817,49.439,0.817z M45.904,4.367c-0.209,0-0.37,0-0.534,0  C31.813,4.368,18.256,4.368,4.697,4.368c-0.08,0-0.162,0.006-0.242,0C4.23,4.35,4.164,4.449,4.164,4.67  C4.17,10.547,4.17,16.423,4.163,22.3c0,0.272,0.099,0.336,0.347,0.333c0.686-0.013,1.371-0.005,2.059-0.005  c12.979,0,25.959,0,38.939-0.001c0.434,0,0.396,0.052,0.396-0.387c0.001-5.859,0.001-11.718,0.001-17.575  C45.904,4.577,45.904,4.489,45.904,4.367z M45.903,26.19c-0.095-0.005-0.163-0.013-0.234-0.013c-13.701-0.001-27.404,0-41.104,0.001  c-0.054,0-0.109,0.005-0.162-0.001c-0.176-0.021-0.238,0.057-0.235,0.231c0.007,0.514-0.004,1.029,0.001,1.542  c0.006,0.561-0.072,0.526,0.523,0.526c13.512,0,27.024,0,40.536,0c0.153,0,0.307-0.007,0.46,0c0.161,0.007,0.221-0.061,0.218-0.226  C45.9,27.577,45.903,26.899,45.903,26.19z M29.8,36.651c-0.749-1.474-1.045-3.022-1.123-4.623c-1.771,0-3.513,0.005-5.253-0.006  c-0.256-0.001-0.369,0.067-0.351,0.327c0.005,0.052-0.004,0.107-0.007,0.161c-0.071,1.185-0.302,2.333-0.759,3.431  c-0.095,0.226-0.193,0.453-0.303,0.71C24.618,36.651,27.181,36.651,29.8,36.651z"></path>
<path fill-rule="evenodd" clip-rule="evenodd" fill="#1B50F4" d="M30.627,6.605c-0.401,0.729-0.772,1.407-1.145,2.083  c-1.542,2.81-3.084,5.621-4.627,8.431c-0.524,0.955-1.049,1.91-1.585,2.859c-0.047,0.085-0.17,0.176-0.262,0.178  c-0.494,0.019-0.989,0.009-1.538,0.009c0.143-0.273,0.265-0.516,0.396-0.754c1.394-2.531,2.791-5.061,4.185-7.592  c0.911-1.656,1.817-3.314,2.72-4.976c0.091-0.168,0.188-0.25,0.391-0.244C29.629,6.617,30.097,6.605,30.627,6.605z"></path>
<path fill-rule="evenodd" clip-rule="evenodd" fill="#1B50F4" d="M18.794,13.5c0.614,0.317,1.182,0.609,1.747,0.901  c0.241,0.123,0.489,0.235,0.72,0.372c0.08,0.047,0.173,0.154,0.176,0.236c0.015,0.612,0.008,1.225,0.008,1.884  c-0.108-0.049-0.188-0.079-0.261-0.119c-1.404-0.79-2.807-1.584-4.214-2.37c-0.19-0.106-0.269-0.232-0.256-0.451  c0.019-0.351-0.004-0.704,0.007-1.055c0.003-0.085,0.045-0.21,0.108-0.247c1.515-0.865,3.036-1.721,4.613-2.611  c0,0.28,0,0.509,0,0.738c0.002,0.36-0.008,0.722,0.006,1.082c0.008,0.18-0.064,0.275-0.222,0.354  c-0.729,0.369-1.456,0.749-2.182,1.126C18.975,13.377,18.91,13.425,18.794,13.5z"></path>
<path fill-rule="evenodd" clip-rule="evenodd" fill="#1B50F4" d="M29.754,16.86c0-0.62-0.012-1.224,0.01-1.827  c0.004-0.101,0.118-0.236,0.217-0.289c0.699-0.373,1.407-0.728,2.111-1.09c0.086-0.044,0.168-0.097,0.299-0.175  c-0.413-0.218-0.784-0.415-1.156-0.61c-0.432-0.224-0.866-0.44-1.293-0.674c-0.08-0.043-0.176-0.15-0.178-0.23  c-0.016-0.612-0.009-1.224-0.009-1.879c0.11,0.044,0.194,0.065,0.268,0.107c1.389,0.782,2.773,1.57,4.165,2.347  c0.191,0.106,0.27,0.232,0.261,0.45c-0.016,0.36,0.005,0.722-0.013,1.082c-0.005,0.099-0.071,0.237-0.152,0.283  c-1.477,0.842-2.963,1.672-4.445,2.504C29.825,16.867,29.803,16.86,29.754,16.86z"></path>
</svg>