<svg xmlns="http://www.w3.org/2000/svg" xmlns:xlink="http://www.w3.org/1999/xlink" id="Layer_1" x="0px" y="0px" width="50px" height="41.833px" viewBox="0 0 50 41.833" xml:space="preserve">
<path fill-rule="evenodd" clip-rule="evenodd" fill="#1B50F4" d="M-946.591,148.594c-5.06-6.123-9.901-11.983-14.873-18  c-4.993,6.039-9.868,11.935-14.936,18.064c0-9.256,0-18.22,0-27.307c-0.572-0.043-1.034-0.106-1.497-0.107  c-5.399-0.016-10.799,0.036-16.196-0.047c-6.05-0.094-11.172-2.494-15.381-6.753c-4.339-4.391-6.571-9.721-6.571-15.938  c0.001-29.876-0.006-59.752,0.004-89.628c0.004-10.948,8.021-20.472,18.832-22.358c1.366-0.239,2.781-0.282,4.173-0.282  c50.914-0.014,101.827,0.021,152.741-0.038c10.353-0.012,19.936,6.988,22.503,17.964c0.353,1.504,0.534,3.083,0.536,4.627  c0.028,29.956,0.097,59.913-0.023,89.868c-0.047,11.471-8.509,20.528-19.068,22.273c-1.408,0.232-2.857,0.296-4.287,0.297  c-34.716,0.015-69.432,0.01-104.147,0.008c-1.805,0-1.808-0.003-1.809,1.773c-0.001,7.999,0,15.998,0,23.997  C-946.591,147.428-946.591,147.848-946.591,148.594z M-976.448,105.491c0-3.686-0.028-7.242,0.021-10.799  c0.012-0.817-0.251-1.279-0.909-1.756c-6.858-4.971-10.755-11.729-11.533-20.123c-0.543-5.862,0.759-11.405,3.884-16.487  c4.73-7.691,11.632-12.155,20.501-13.144c8.202-0.915,15.654,1.403,21.69,7.184c8.109,7.767,10.548,17.274,7.631,28.04  c-1.652,6.1-5.33,10.935-10.514,14.577c-0.656,0.462-0.938,0.974-0.928,1.785c0.037,3.079,0.064,6.161-0.017,9.238  c-0.032,1.209,0.328,1.537,1.544,1.536c34.836-0.035,69.672-0.028,104.508-0.033c4.521-0.001,7.592-3.095,7.593-7.603  c0.001-29.397,0.004-58.794,0.007-88.19c0.001-4.682-3.115-7.817-7.802-7.817c-50.675-0.003-101.349-0.004-152.023,0  c-4.486,0-7.587,3.138-7.587,7.633c0.002,29.357,0.004,58.714,0.006,88.07c0,0.359-0.012,0.721,0.005,1.079  c0.164,3.418,3.084,6.718,6.299,6.778C-988.238,105.569-982.402,105.491-976.448,105.491z"></path>
<path fill-rule="evenodd" clip-rule="evenodd" fill="#1B50F4" d="M-919.309,35.008c-22.757,0-45.515,0-68.271,0  c-1.561,0-1.563-0.001-1.563-1.579c0-4.24,0.035-8.479-0.023-12.718c-0.015-1.089,0.279-1.49,1.403-1.45  c2.077,0.075,4.159,0.021,6.239,0.021c43.155,0,86.309,0,129.463,0c2.711,0,2.71,0.002,2.709,2.755  c0,3.839-0.041,7.679,0.025,11.518c0.02,1.147-0.302,1.48-1.472,1.479C-873.635,35-896.472,35.008-919.309,35.008z"></path>
<path fill-rule="evenodd" clip-rule="evenodd" fill="#1B50F4" d="M-886.227,61.679c-11.798,0-23.595-0.018-35.392,0.028  c-1.148,0.004-1.411-0.364-1.399-1.423c0.049-4.278,0.06-8.558,0.006-12.836c-0.014-1.116,0.254-1.523,1.453-1.522  c23.634,0.031,47.269,0.025,70.904,0c0.97-0.001,1.331,0.245,1.32,1.269c-0.046,4.398-0.053,8.799,0.01,13.196  c0.016,1.108-0.382,1.307-1.39,1.304c-11.838-0.032-23.675-0.021-35.512-0.021C-886.227,61.676-886.227,61.678-886.227,61.679z"></path>
<path fill-rule="evenodd" clip-rule="evenodd" fill="#1B50F4" d="M-897.488,88.227c0-2.708-0.001-5.301,0-7.893  c0-2.119,0.055-4.24-0.02-6.356c-0.038-1.084,0.28-1.449,1.399-1.436c4.558,0.057,9.116,0.023,13.674,0.023  c10.516,0.001,21.031,0.021,31.546-0.022c1.206-0.005,1.581,0.321,1.563,1.545c-0.068,4.316-0.042,8.636-0.011,12.954  c0.007,0.884-0.188,1.272-1.195,1.271c-15.313-0.03-30.626-0.021-45.939-0.023C-896.746,88.289-897.02,88.257-897.488,88.227z"></path>
<path fill-rule="evenodd" clip-rule="evenodd" fill="#1B50F4" d="M17.833,41.045c-1.227-1.484-2.398-2.905-3.604-4.363  c-1.211,1.463-2.393,2.892-3.621,4.378c0-2.244,0-4.416,0-6.618c-0.138-0.01-0.249-0.026-0.362-0.026  c-1.309-0.004-2.617,0.009-3.925-0.012c-1.467-0.022-2.708-0.604-3.729-1.637C1.541,31.704,1,30.412,1,28.905  c0.001-7.241-0.001-14.482,0.002-21.723c0-2.653,1.943-4.961,4.564-5.418c0.33-0.058,0.674-0.068,1.011-0.068  c12.339-0.003,24.679,0.005,37.019-0.009c2.51-0.003,4.832,1.694,5.454,4.354c0.086,0.365,0.13,0.747,0.13,1.122  c0.007,7.26,0.022,14.52-0.006,21.78c-0.013,2.78-2.063,4.976-4.621,5.398c-0.342,0.056-0.692,0.072-1.04,0.072  c-8.413,0.004-16.827,0.002-25.241,0.002c-0.438,0-0.438-0.001-0.438,0.43c0,1.938,0,3.876,0,5.815  C17.833,40.762,17.833,40.863,17.833,41.045z M10.598,30.598c0-0.893-0.007-1.754,0.004-2.617c0.004-0.198-0.061-0.31-0.219-0.425  c-1.662-1.204-2.607-2.842-2.796-4.877c-0.132-1.421,0.185-2.764,0.94-3.995c1.147-1.864,2.82-2.946,4.969-3.186  c1.989-0.222,3.795,0.34,5.258,1.742c1.966,1.882,2.557,4.186,1.85,6.795c-0.401,1.478-1.293,2.649-2.549,3.533  c-0.158,0.113-0.227,0.236-0.224,0.433c0.008,0.747,0.015,1.493-0.005,2.239c-0.008,0.293,0.08,0.373,0.375,0.372  c8.442-0.008,16.886-0.007,25.328-0.008c1.096,0,1.84-0.75,1.84-1.843c0-7.124,0.002-14.25,0.002-21.374  c0.001-1.134-0.755-1.895-1.891-1.895c-12.281,0-24.563-0.001-36.845,0c-1.087,0-1.839,0.761-1.839,1.85  c0,7.115,0.001,14.231,0.001,21.345c0,0.087-0.003,0.175,0.002,0.261c0.039,0.829,0.747,1.628,1.526,1.644  C7.739,30.617,9.155,30.598,10.598,30.598z"></path>
<path fill-rule="evenodd" clip-rule="evenodd" fill="#1B50F4" d="M24.445,13.516c-5.516,0-11.03,0-16.546,0  c-0.378,0-0.379,0-0.379-0.383c0-1.027,0.009-2.055-0.006-3.082C7.511,9.787,7.582,9.689,7.855,9.699  c0.503,0.019,1.008,0.005,1.512,0.005c10.46,0,20.918,0,31.377,0c0.657,0,0.656,0,0.656,0.668c0,0.931-0.01,1.861,0.006,2.791  c0.006,0.278-0.072,0.359-0.356,0.358C35.516,13.514,29.981,13.516,24.445,13.516z"></path>
<path fill-rule="evenodd" clip-rule="evenodd" fill="#1B50F4" d="M32.463,19.98c-2.858,0-5.717-0.005-8.577,0.006  c-0.278,0.001-0.342-0.088-0.339-0.345c0.011-1.037,0.015-2.074,0.001-3.111c-0.003-0.271,0.063-0.37,0.353-0.369  c5.729,0.008,11.456,0.006,17.185,0c0.235,0,0.321,0.06,0.32,0.308c-0.012,1.066-0.013,2.133,0.001,3.198  c0.006,0.269-0.093,0.317-0.336,0.316c-2.869-0.008-5.737-0.005-8.607-0.005C32.463,19.979,32.463,19.979,32.463,19.98z"></path>
<path fill-rule="evenodd" clip-rule="evenodd" fill="#1B50F4" d="M29.734,26.414c0-0.656,0-1.285,0-1.913  c0-0.514,0.013-1.028-0.005-1.542c-0.01-0.262,0.068-0.351,0.34-0.348c1.104,0.014,2.208,0.005,3.313,0.005  c2.549,0,5.097,0.005,7.646-0.005c0.292-0.001,0.384,0.078,0.378,0.375c-0.017,1.045-0.01,2.093-0.002,3.14  c0.002,0.214-0.046,0.308-0.29,0.307c-3.711-0.007-7.423-0.004-11.133-0.005C29.913,26.429,29.848,26.422,29.734,26.414z"></path>
<rect x="-569" y="-73.167" fill-rule="evenodd" clip-rule="evenodd" fill="#525252" width="96" height="161.479"></rect>
<rect x="-430.716" y="-27.417" fill="#1B50F4" width="17.874" height="14.5"></rect>
</svg>