<svg xmlns="http://www.w3.org/2000/svg" xmlns:xlink="http://www.w3.org/1999/xlink" id="Layer_1" x="0px" y="0px" width="178px" height="183.5px" viewBox="0 0 178 183.5" xml:space="preserve">
<image width="224" height="271" xlink:href="image_2021_02_01T06_50_35_696Z.png" transform="matrix(1 0 0 1 -840 -36.833)">
</image>
<path fill="none" stroke="#000000" stroke-width="4" d="M47.466,107.596V81.111c0-16.434,14.282-29.765,31.902-29.765h13.299  c17.62,0,31.913,13.331,31.913,29.765v26.485"></path>
<path fill="none" stroke="#000000" stroke-width="4" d="M75.334,118.669c0,2.997-2.238,5.427-5,5.427l0,0c-2.762,0-5-2.43-5-5.427  V91.857c0-2.998,2.238-5.427,5-5.427l0,0c2.762,0,5,2.43,5,5.427V118.669z"></path>
<path fill="none" stroke="#000000" stroke-width="4" d="M106,118.669c0,2.997-2.238,5.427-5,5.427l0,0c-2.762,0-5-2.43-5-5.427  V91.857c0-2.998,2.238-5.427,5-5.427l0,0c2.762,0,5,2.43,5,5.427V118.669z"></path>
<path d="M53.83,103.876v3.06c0,2.8,1.381,5.34,3.619,7.18c1.742,1.43,4,2.44,6.525,2.82l0.322,4.28c-4.021,0-7.982-1.54-10.611-4.04  c-2.64-2.49-4.269-5.94-4.269-9.75v-4.16c0-7.62,6.946-13.79,15.388-13.462l-0.43,4.41C58.212,94.736,53.83,98.886,53.83,103.876z"></path>
<path d="M118.975,103.635v3.06c0,2.8-1.382,5.34-3.619,7.18c-1.742,1.43-5.454,2.132-7.98,2.512l-0.425,4.208  c4.021,0,9.54-1.161,12.169-3.661c2.639-2.49,4.268-5.94,4.268-9.75v-4.16c0-7.62-7.995-13.803-16.437-13.475v4.421  C113.113,94.494,118.975,98.646,118.975,103.635z"></path>
<path d="M123.387,107.596l-0.717,16c0,6.08-5.711,10.542-11,11H100.5c-3.9,0-3.9,0-8.375,0l1.188-4.75c1,0.38,4.408,0.25,5.518,0.25  h9.47c5.15,0,9.32-4.34,9.32-9.69l1.305-12.81H123.387z"></path>
<circle fill="none" stroke="#000000" stroke-width="4" stroke-miterlimit="10" cx="87.875" cy="132.346" r="4.813"></circle>
</svg>