<svg xmlns="http://www.w3.org/2000/svg" xmlns:xlink="http://www.w3.org/1999/xlink" id="Layer_1" x="0px" y="0px" width="50px" height="50px" viewBox="0 0 50 50" xml:space="preserve">
<path fill="#1248F8" d="M44.623,31.951H42.69v-12.8c0-7.398-6.485-13.418-14.457-13.418h-6.427c-7.969,0-14.451,6.02-14.451,13.418  v12.8H5.423v-12.8c0-8.464,7.35-15.352,16.384-15.352h6.427c9.038,0,16.39,6.887,16.39,15.352V31.951z"></path>
<path fill="#1248F8" d="M17.44,40.892c-1.864,0-3.383-1.61-3.383-3.589V24.345c0-1.979,1.519-3.589,3.383-3.589  c1.865,0,3.384,1.61,3.384,3.589v12.958C20.824,39.282,19.306,40.892,17.44,40.892z M17.44,22.688c-0.8,0-1.449,0.743-1.449,1.656  v12.958c0,0.913,0.649,1.656,1.449,1.656s1.45-0.743,1.45-1.656V24.345C18.891,23.432,18.24,22.688,17.44,22.688z"></path>
<path fill="#1248F8" d="M32.262,40.892c-1.865,0-3.384-1.61-3.384-3.589V24.345c0-1.979,1.519-3.589,3.384-3.589  c1.864,0,3.383,1.61,3.383,3.589v12.958C35.645,39.282,34.126,40.892,32.262,40.892z M32.262,22.688  c-0.801,0-1.451,0.743-1.451,1.656v12.958c0,0.913,0.65,1.656,1.451,1.656c0.799,0,1.449-0.743,1.449-1.656V24.345  C33.711,23.432,33.061,22.688,32.262,22.688z"></path>
<path fill="#1248F8" d="M9.465,30.153v1.479c0,1.353,0.667,2.581,1.749,3.47c0.842,0.691,1.934,1.179,3.153,1.362l0.156,2.069  c-1.943,0-3.858-0.745-5.128-1.953c-1.276-1.204-2.063-2.871-2.063-4.712v-2.011c0-3.683,3.357-6.665,7.437-6.506l-0.208,2.131  C11.582,25.736,9.465,27.742,9.465,30.153z"></path>
<path fill="#1248F8" d="M40.947,30.037v1.479c0,1.353-0.667,2.581-1.749,3.47c-0.841,0.691-2.635,1.03-3.856,1.214l-0.205,2.034  c1.943,0,4.61-0.561,5.881-1.769c1.275-1.204,2.063-2.871,2.063-4.712v-2.011c0-3.683-3.863-6.671-7.943-6.512v2.136  C38.115,25.619,40.947,27.625,40.947,30.037z"></path>
<path fill="#1248F8" d="M43.08,31.951l-0.347,7.732c0,2.938-2.76,5.095-5.315,5.316H32.02c-1.885,0-1.885,0-4.047,0l0.573-2.296  c0.483,0.184,2.131,0.121,2.667,0.121h4.576c2.489,0,4.504-2.097,4.504-4.683l0.631-6.191H43.08z"></path>
<path fill="#1248F8" d="M25.918,47.205c-1.815,0-3.292-1.478-3.292-3.292c0-1.815,1.477-3.292,3.292-3.292s3.292,1.477,3.292,3.292  C29.21,45.728,27.733,47.205,25.918,47.205z M25.918,42.553c-0.749,0-1.359,0.61-1.359,1.359s0.61,1.359,1.359,1.359  s1.359-0.609,1.359-1.359S26.667,42.553,25.918,42.553z"></path>
</svg>