<svg xmlns="http://www.w3.org/2000/svg" xmlns:xlink="http://www.w3.org/1999/xlink" id="Layer_1" x="0px" y="0px" width="1349px" height="657px" viewBox="0 0 1349 657" xml:space="preserve">
<image width="224" height="271" xlink:href="image_2021_02_01T06_50_35_696Z.png" transform="matrix(1 0 0 1 577 108.167)">
</image>
<path fill="#1248F8" d="M1525.623,243.701h-1.933v-12.8c0-7.398-6.485-13.418-14.457-13.418h-6.427  c-7.969,0-14.451,6.02-14.451,13.418v12.8h-1.933v-12.8c0-8.464,7.35-15.352,16.384-15.352h6.427c9.038,0,16.39,6.887,16.39,15.352  V243.701z"></path>
<path fill="#1248F8" d="M1498.44,252.642c-1.864,0-3.383-1.61-3.383-3.589v-12.958c0-1.979,1.519-3.589,3.383-3.589  c1.865,0,3.384,1.61,3.384,3.589v12.958C1501.824,251.032,1500.306,252.642,1498.44,252.642z M1498.44,234.438  c-0.8,0-1.449,0.743-1.449,1.656v12.958c0,0.913,0.649,1.656,1.449,1.656s1.45-0.743,1.45-1.656v-12.958  C1499.891,235.182,1499.24,234.438,1498.44,234.438z"></path>
<path fill="#1248F8" d="M1513.262,252.642c-1.865,0-3.384-1.61-3.384-3.589v-12.958c0-1.979,1.519-3.589,3.384-3.589  c1.864,0,3.383,1.61,3.383,3.589v12.958C1516.645,251.032,1515.126,252.642,1513.262,252.642z M1513.262,234.438  c-0.801,0-1.451,0.743-1.451,1.656v12.958c0,0.913,0.65,1.656,1.451,1.656c0.799,0,1.449-0.743,1.449-1.656v-12.958  C1514.711,235.182,1514.061,234.438,1513.262,234.438z"></path>
<path fill="#1248F8" d="M1490.465,241.903v1.479c0,1.353,0.667,2.581,1.749,3.47c0.842,0.691,1.934,1.179,3.153,1.362l0.156,2.069  c-1.943,0-3.858-0.745-5.128-1.953c-1.276-1.204-2.063-2.871-2.063-4.712v-2.011c0-3.683,3.357-6.665,7.437-6.506l-0.208,2.131  C1492.582,237.486,1490.465,239.492,1490.465,241.903z"></path>
<path fill="#1248F8" d="M1521.947,241.787v1.479c0,1.353-0.667,2.581-1.749,3.47c-0.841,0.691-2.635,1.03-3.856,1.214l-0.205,2.034  c1.943,0,4.61-0.561,5.881-1.769c1.275-1.204,2.063-2.871,2.063-4.712v-2.011c0-3.683-3.863-6.671-7.943-6.512v2.136  C1519.115,237.369,1521.947,239.375,1521.947,241.787z"></path>
<path fill="#1248F8" d="M1524.08,243.701l-0.347,7.732c0,2.938-2.76,5.095-5.315,5.316h-5.398c-1.885,0-1.885,0-4.047,0l0.573-2.296  c0.483,0.184,2.131,0.121,2.667,0.121h4.576c2.489,0,4.504-2.097,4.504-4.683l0.631-6.191H1524.08z"></path>
<path fill="#1248F8" d="M1506.918,258.955c-1.815,0-3.292-1.478-3.292-3.292c0-1.815,1.477-3.292,3.292-3.292  s3.292,1.477,3.292,3.292C1510.21,257.478,1508.733,258.955,1506.918,258.955z M1506.918,254.303c-0.749,0-1.359,0.61-1.359,1.359  s0.61,1.359,1.359,1.359s1.359-0.609,1.359-1.359S1507.667,254.303,1506.918,254.303z"></path>
<path fill="none" stroke="#1248F8" stroke-width="4" d="M1635.133,223.034v-26.485c0-16.434,14.282-29.765,31.902-29.765h13.299  c17.62,0,31.913,13.331,31.913,29.765v26.485"></path>
<path fill="none" stroke="#1248F8" stroke-width="4" d="M1663.001,234.107c0,2.997-2.238,5.427-5,5.427l0,0c-2.762,0-5-2.43-5-5.427  v-26.813c0-2.998,2.238-5.427,5-5.427l0,0c2.762,0,5,2.43,5,5.427V234.107z"></path>
<path fill="none" stroke="#1248F8" stroke-width="4" d="M1693.667,234.107c0,2.997-2.238,5.427-5,5.427l0,0c-2.762,0-5-2.43-5-5.427  v-26.813c0-2.998,2.238-5.427,5-5.427l0,0c2.762,0,5,2.43,5,5.427V234.107z"></path>
<path fill="#1248F8" d="M1641.497,219.313v3.06c0,2.8,1.381,5.34,3.619,7.18c1.742,1.43,4,2.44,6.525,2.82l0.322,4.28  c-4.021,0-7.982-1.54-10.611-4.04c-2.64-2.49-4.269-5.94-4.269-9.75v-4.16c0-7.62,6.946-13.79,15.388-13.462l-0.43,4.41  C1645.879,210.174,1641.497,214.324,1641.497,219.313z"></path>
<path fill="#1248F8" d="M1706.642,219.073v3.06c0,2.8-1.382,5.34-3.619,7.18c-1.742,1.43-5.454,2.132-7.98,2.512l-0.425,4.208  c4.021,0,9.54-1.161,12.169-3.661c2.639-2.49,4.268-5.94,4.268-9.75v-4.16c0-7.62-7.995-13.803-16.437-13.475v4.421  C1700.78,209.931,1706.642,214.083,1706.642,219.073z"></path>
<path fill="#1248F8" d="M1711.054,223.034l-0.717,16c0,6.08-5.711,10.542-11,11h-11.17c-3.9,0-3.9,0-8.375,0l1.188-4.75  c1,0.38,4.408,0.25,5.518,0.25h9.47c5.15,0,9.32-4.34,9.32-9.69l1.305-12.81H1711.054z"></path>
<circle fill="none" stroke="#1248F8" stroke-width="4" cx="1675.542" cy="247.784" r="4.813"></circle>
</svg>